<svg xmlns="http://www.w3.org/2000/svg">
<defs>
<font id="UTMHelvetIns" horiz-adv-x="1024" >
  <font-face 
    font-family="UTM HelvetIns"
    font-weight="400"
    font-stretch="normal"
    units-per-em="2048"
    panose-1="2 4 6 3 5 5 6 2 2 4"
    ascent="1638"
    descent="-410"
    x-height="1309"
    cap-height="1637"
    bbox="-84 -546.997 4942 2482"
    underline-thickness="109"
    underline-position="-143"
    unicode-range="U+0020-U+2026"
  />
<missing-glyph horiz-adv-x="5040" 
d="M3351 2045h10c24.667 -6.66699 37 -24 37 -52c0 -8 -10.667 -27 -32 -57h-28c0 16 9.33301 34 28 54l2 10c-3.33301 8.66699 -6.66602 13.667 -10 15h-9c-5.33301 0 -8.66602 -6.33301 -10 -19h-30c4 32.667 18 49 42 49zM2019 2016l29.001 -31
c0 -10.667 -13.333 -20.667 -40 -30h-19l-59 12l-11 -12l-28 25c7.33301 19.333 21.666 29 42.999 29h11l42 -11h2c6.66699 0 16.667 6 30 18zM468.001 1980h142v-60h-94v-75h89v-59h-89v-129l-5 -5h-49v323zM1155 1980h43l6 -5v-78h30v-52h-30v-188l-6 -5h-49v193h-25v52
h25v78zM1621 1980h41.999l4 -5v-94h3c15.333 16 33.333 24 54 24h2c38.667 0 66.334 -23.667 83.001 -71l2 -39v-143h-52v115c0 53.333 -14 80 -42 80h-7c-28.667 0 -43 -28.667 -43 -86v-109h-51v323zM2200 1980l49 -0.000976562l5 -5v-222c6.66699 -34 21.667 -51 45 -51
c29.333 4.66699 44 24.334 44 59.001v214l5 5h49v-216c0 -56.667 -22 -94 -66 -112c-10 -5.33301 -21.667 -8 -35 -8c-31.333 0 -58.666 18.333 -82 55c-9.33301 16 -14 35 -14 57v224zM2435 1980h159v-60h-56v-268h-53v268h-55v55zM2621 1980l71 0.000976562
c4.66699 -2.66699 32.334 -86.334 83 -251.001h2l80 251h73v-328h-54v242h-2l-74 -242h-44c-2.66699 0 -22 60.667 -58 182l-19 60h-3v-242h-55v328zM3760 1980l52 -0.000976562v-328h-45l-5 5v11l3 2l-3 14c-19.333 -26.667 -45.333 -40 -78 -40
c-44.667 0 -78 30.333 -100 91l-5 39v3c0 62.667 30.667 104.334 92 125.001l23 3c23.333 0 44.333 -10.667 63 -32h3v107zM2057 1928l36 0.00195312l4 -6v-49h-45v-221h-48v23c-15.333 -20.667 -35 -31 -59 -31c-59.333 9.33301 -89 41.666 -89 96.999v156h51v-104

<glyph glyph-name=".notdef" horiz-adv-x="5040" 
d="M3351 2045h10c24.667 -6.66699 37 -24 37 -52c0 -8 -10.667 -27 -32 -57h-28c0 16 9.33301 34 28 54l2 10c-3.33301 8.66699 -6.66602 13.667 -10 15h-9c-5.33301 0 -8.66602 -6.33301 -10 -19h-30c4 32.667 18 49 42 49zM2019 2016l29.001 -31
c0 -10.667 -13.333 -20.667 -40 -30h-19l-59 12l-11 -12l-28 25c7.33301 19.333 21.666 29 42.999 29h11l42 -11h2c6.66699 0 16.667 6 30 18zM468.001 1980h142v-60h-94v-75h89v-59h-89v-129l-5 -5h-49v323zM1155 1980h43l6 -5v-78h30v-52h-30v-188l-6 -5h-49v193h-25v52
h25v78zM1621 1980h41.999l4 -5v-94h3c15.333 16 33.333 24 54 24h2c38.667 0 66.334 -23.667 83.001 -71l2 -39v-143h-52v115c0 53.333 -14 80 -42 80h-7c-28.667 0 -43 -28.667 -43 -86v-109h-51v323zM2200 1980l49 -0.000976562l5 -5v-222c6.66699 -34 21.667 -51 45 -51
c29.333 4.66699 44 24.334 44 59.001v214l5 5h49v-216c0 -56.667 -22 -94 -66 -112c-10 -5.33301 -21.667 -8 -35 -8c-31.333 0 -58.666 18.333 -82 55c-9.33301 16 -14 35 -14 57v224zM2435 1980h159v-60h-56v-268h-53v268h-55v55zM2621 1980l71 0.000976562
c4.66699 -2.66699 32.334 -86.334 83 -251.001h2l80 251h73v-328h-54v242h-2l-74 -242h-44c-2.66699 0 -22 60.667 -58 182l-19 60h-3v-242h-55v328zM3760 1980l52 -0.000976562v-328h-45l-5 5v11l3 2l-3 14c-19.333 -26.667 -45.333 -40 -78 -40
c-44.667 0 -78 30.333 -100 91l-5 39v3c0 62.667 30.667 104.334 92 125.001l23 3c23.333 0 44.333 -10.667 63 -32h3v107zM2057 1928l36 0.00195312l4 -6v-49h-45v-221h-48v23c-15.333 -20.667 -35 -31 -59 -31c-59.333 9.33301 -89 41.666 -89 96.999v156h51v-104
c0 -52.667 8.66699 -81.334 26 -86.001l18 -5h6c17.333 0 30.333 12 39 36l3 26v133h53v25zM3476 1928v-55h-31v-221h-47v25h-2c-10 -22 -29 -33 -57 -33c-45.333 0 -74 26 -86 78l-3 29v146h52v-120c0 -33.333 6.33301 -56 19 -68l21 -7h9c28 0 42 23 42 69v126h27
c2.66699 0 4 9.33301 4 28l3 3h49zM758 1905c45.333 0 79.667 -25.667 103 -77c6 -12 10 -30 12 -54c0 -58.667 -30 -101 -90 -127l-32 -3c-42 0 -75.667 24.333 -101 73c-8 14.667 -12 32 -12 52v10c0 62.667 33.667 104.667 101 126h19zM1011 1905h3
c49.333 0 77 -33.667 83 -101v-152h-51v119c0 50.667 -14 76 -42 76h-5c-29.333 0 -44 -25.333 -44 -76v-119h-52v245h46v-21c20 19.333 40.667 29 62 29zM1466 1905l7 -0.000976562c48 0 83 -29.667 105 -89h-60c-10.667 20.667 -24.667 31 -42 31h-17
c-35.333 -9.33301 -53 -29.666 -53 -60.999l-3 -15c8 -46 28.333 -69 61 -69h9c14.667 0 30.334 9 47.001 27h40l2 3h3l2 -3l2 3l3 -3l2 3l2 -7c-22 -54 -58.667 -81 -110 -81c-50.667 0 -87.334 31.333 -110.001 94l-4 36v3c0 56.667 25.667 96.667 77 120
c10 5.33301 22.333 8 37 8zM3141 1905h1.99902c32.667 0 56 -20 70 -60v-14h-52c0 10.667 -5.33301 16 -16 16h-4c-9.33301 0 -15.666 -4.33301 -18.999 -13v-13c0 -6 22.667 -17.667 68 -35c20 -12.667 30 -32.334 30 -59.001c0 -38.667 -20.333 -65.334 -61 -80.001
l-23 -3c-50.667 8 -76 35.667 -76 83h54c0 -13.333 9 -21.666 27 -24.999h4c12.667 0 20.667 7.66699 24 23c0 14.667 -22.667 29.334 -68 44.001c-22.667 18 -34 37.667 -34 59c0 44 24.667 69.667 74 77zM4203 1905c36.666 0 62.333 -21 77 -63
c4.66602 -12 7 -33.667 7 -65v-125h-52v112c0 55.333 -13.334 83 -40 83h-11c-22 0 -35.334 -18 -40 -54v-141h-52v5h-2l2 2v238h47v-21c16.666 19.333 38 29 64 29zM4432 1905h5c26.666 0 49.666 -13.333 69 -40v18l-3 3l3 11h47v-208c0 -64.667 -28.334 -108.667 -85 -132
l-33 -4h-7c-46.666 0 -81.333 26.667 -104 80h59c16 -14.667 31 -22.334 45 -23.001h13c14.666 0 29 7.33301 43 22c10 8.66699 17.334 26 22 52h-3c-21.334 -26.667 -45.667 -40 -73 -40c-38 0 -70 23.333 -96 70c-6.66602 12 -11.333 33 -14 63
c0 58.667 29 100.334 87 125.001zM3851 1897l53 -0.000976562v-136c4 -39.333 17.333 -59 40 -59h7c30.667 0 46 31 46 93v102h51v-245h-47l-3 10h3l-3 3v5l3 2v3h-4c0 -15.333 -19 -25.666 -57 -30.999h-3c-39.333 0 -67.333 25 -84 75l-2 85v93zM690 1771
c6.66699 -46 27.6689 -69 63.002 -69h7c39.333 9.33301 59 31 59 65v15c-8.66699 43.333 -28.334 65 -59.001 65h-5c-38.667 0 -60.334 -25.333 -65.001 -76zM3630 1774c8.66699 -48 29 -72 61 -72h5c38.667 0 60.667 25 66 75c0 32.667 -17 56 -51 70h-22
c-24.667 0 -43.334 -19 -56 -57zM4374 1774c5.33398 -48 27 -71.999 65 -71.999h5c39.334 8 59 32 59 72c0 40.667 -19.666 65 -59 73h-14c-37.334 -10.667 -56 -31.334 -56 -62.001v-11zM3928 1620h52v-57h-52v57zM1054 1402c28.667 -7.33301 43 -23.667 43 -49v-4
c0 -11.333 -10.667 -31.333 -32 -60h-28c0 16.667 10.333 35.667 31 57v7c0 8 -2.33301 13 -7 15h-12c-6.66699 -2.66699 -10 -9 -10 -19h-28v6c0 21.333 11 36 33 44zM3349 1339c61.333 0 107.333 -33.001 138 -99.001h-60c-24.667 28 -51.334 42 -80 42
c-36.667 0 -65.667 -22.667 -87 -68c-6.66699 -14.667 -10 -30.334 -10 -47.001c0 -52 27 -88.667 81 -110l18 -1c24 0 49 13 75 39h61c-29.333 -64.667 -75.333 -97 -138 -97c-62 0 -109 37.333 -141 112c-6.66699 20.667 -10 41.334 -10 62.001
c0 64.667 30 115.334 90 152.001c19.333 10 40.333 15 63 15zM3664 1339c38 0 72.333 -15.666 103 -46.999c30.667 -34 46 -72.333 46 -115v-20c0 -59.333 -30.333 -108 -91 -146c-22 -8.66699 -43 -13 -63 -13c-59.333 0 -105.333 33.667 -138 101
c-8.66699 22 -13 42 -13 60v18c0 65.333 32.667 115.666 98 150.999c19.333 7.33301 38.666 11 58 11zM2261 1337h2l47 -11h3c7.33301 0 16 3.66699 26 11l18 -36c-12 -12.667 -23.667 -19 -35 -19h-3l-54 10l-20 -7l-20 36c12 10.667 24 16 36 16zM716.002 1334h19
c78.667 0 121.667 -8.66699 129 -26c16.667 -17.333 25 -38 25 -62c-6.66699 -38 -16.667 -57 -30 -57v-6c31.333 -15.333 47 -37.333 47 -66v-18c0 -42 -23 -71.333 -69 -88l-54 -5h-67v328zM2550 1334h53v-217c4 -40.667 19 -61 45 -61c19.333 0 34 13 44 39l3 30v203l4 6
h45l5 -6v-171c0 -78.667 -13.333 -123 -40 -133c-16 -17.333 -37.333 -26 -64 -26c-36.667 0 -67 25.333 -91 76l-4 54v206zM2805 1334h59c2.66699 0 43.334 -79 122 -237h4v237h50l4 -6v-322h-58c-19.333 32 -61 111.333 -125 238h-3v-238h-53v328zM3101 1334h54v-328h-54
v328zM3859 1334l8 0.000976562c103.333 0 161.333 -13.333 174 -40c15.333 -7.33301 31 -32.333 47 -75l4 -36v-11l3 -2c0 -62.667 -27.333 -112.334 -82 -149.001c-23.333 -10 -56.333 -15 -99 -15h-55v328zM4141 1334h153v-60h-103v-75h101v-57h-101v-74l4 -5h99v-57h-157
v322zM3563 1175v-10c0 -50.667 26.333 -86.667 79 -108l19 -1c45.333 0 77.333 28.667 96 86l3 20v15c0 40.667 -20 72 -60 94c-8 5.33301 -21 9 -39 11c-44 0 -76 -27.667 -96 -83zM770.002 1274v-67h9c36 0 54 9.33301 54 28l3 14c-7.33301 16.667 -17 25 -29 25h-37z
M3912 1274v-206.001l2 -3v-2c69.333 0 110 25.333 122 76l2 15v29c0 22.667 -10.667 45.334 -32 68.001c-16.667 15.333 -42.667 23 -78 23h-16zM1041 1259h5c25.333 0 49 -13.333 71 -40v32h49v-245h-49v32c-24 -26.667 -50.667 -40 -80 -40c-50 0 -83.667 32.333 -101 97
l-5 36c0 59.333 28.333 101 85 125zM1314 1259h3c49.333 0 77 -34 83 -102v-151h-51v128c0 44.667 -14 67 -42 67h-10c-22.667 0 -35.667 -20.667 -39 -62v-133h-52v245h47v-21c18.667 19.333 39 29 61 29zM1543 1259h5c30 0 53.667 -13.333 71 -40v32h47v-219
c0 -63.333 -34.667 -105.333 -104 -126h-16c-49.333 0 -85.333 27.333 -108 82h59c17.333 -16.667 32 -25 44 -25h14c34.667 0 56 25.667 64 77c-22 -28 -47.333 -42 -76 -42c-40 0 -73.667 27 -101 81l-7 44v16c0 52.667 28.333 91.667 85 117zM1912 1259l2 0.000976562
c28.667 0 49 -12.333 61 -37h2c21.333 24.667 44.333 37 69 37h4c38 0 64.333 -18.333 79 -55c5.33301 -16.667 8 -31.667 8 -45v-153h-52v138c0 29.333 -7.66699 47.666 -23 54.999l-12 2h-15c-21.333 0 -33.333 -21.667 -36 -65v-130h-52v136c0 39.333 -14.333 59 -43 59
h-8c-21.333 0 -33.333 -19 -36 -57v-138h-54v245h50v-21h2c4 16 22 25.667 54 29zM2282 1259c31.333 0 56.333 -14 75 -42v34h47v-245h-47v32c-24 -26.667 -50 -40 -78 -40c-49.333 0 -83.333 30.667 -102 92l-6 41c0 60 28.333 101.667 85 125zM985.002 1117
c0 -32 20.333 -52.333 61 -61h4c30 0 50.667 15.333 62 46l3 15v22c-8 41.333 -27 62 -57 62h-14c-27.333 0 -47 -19 -59 -57v-27zM1487 1128c0 -32 14.332 -54.667 42.999 -68l18 -4h5c31.333 0 52.333 19 63 57v23c-7.33301 43.333 -26.666 65 -57.999 65h-12
c-33.333 0 -53 -24.333 -59 -73zM2225 1131v-14.001c10 -40.667 29 -61 57 -61h14c38.667 8 58 29.333 58 64v11c0 30 -12.333 51.667 -37 65l-18 5h-10c-42.667 -5.33301 -64 -28.666 -64 -69.999zM770.001 1150v-82c0 -3.33301 2.33301 -5 7 -5c51.333 0 77 15 77 45
c0 22.667 -15.667 36.667 -47 42h-37zM2966 752.999l24 -28l-51 -55c-12 8 -21 16.667 -27 26zM1524 726.999l85 -54c0 -10 -7 -24 -21 -42l-87 54c12 27.333 19.667 41.333 23 42zM2850 692.999h38l55 -60h-54l-21 26l-23 -26h-54c36 40 55.667 60 59 60zM3422 692.999h40
l56 -60h-54l-24 26h-1c0 -3.33301 -6.33301 -12 -19 -26h-54zM622.001 684.999l52 0.00195312c5.33301 -2.66699 21 -48.334 47 -137.001l34 -110c6 5.33301 17.333 38.666 34 99.999l48 147h54v-2l-112 -326h-44zM1159 685.001h51v-54h-51v54zM1354 685.001h46l6 -5v-323
h-52v328zM2317 685.001h45l4 -5v-78h31v-52h-31v-193h-53v193h-26v52h26v78zM2425 685.001h52v-98h2c15.333 15.333 33.333 23 54 23h3c38 0 65 -23.667 81 -71l3 -38v-144h-52v115c0 54 -13 81 -39 81h-10c-28 0 -42 -29 -42 -87v-109h-52v328zM2664 685.001h52v-54h-52v54
zM3028 685.001h44l6 -5v-78h29v-52h-29v-193h-54v193h-27v52h27v78zM3234 685.001h52v-328h-52v328zM3957 685.001h52v-328h-52v328zM4316 685.001h51v-54h-51v54zM1555 610.001h5c55.333 0 92 -34 110 -102l3 -23v-11c0 -55.333 -28.333 -95.333 -85 -120l-35 -5
c-50.667 0 -87.667 32.333 -111 97l-4 32c0 64.667 31 108 93 130zM1811 610.001h4c35.333 0 61.333 -20 78 -60c4.66699 -16.667 7 -43.667 7 -81v-112h-54v146c-4.66699 33.333 -17 50 -37 50h-10c-25.333 0 -39.333 -19 -42 -57v-139h-54v245h49v-21
c17.333 19.333 37 29 59 29zM2046 610.001h4.00098c30 0 51 -13 63 -39h3v31h49v-206c0 -68 -29.667 -113 -89 -135l-28 -3h-5c-48.667 0 -84 27 -106 81h52l37 -20l15 -3h14c33.333 0 53.666 24 60.999 72c-22 -26 -46.333 -39 -73 -39c-41.333 0 -74 25.333 -98 76
c-7.33301 15.333 -11.333 35.333 -12 60c0 56.667 28.667 97.667 86 123zM2866 610.001l2 -0.000976562c54.667 0 91.667 -34.667 111 -104l2 -25l-2 -27h-172c10 -30 25 -45 45 -45l14 -3c19.333 0 35.666 7.33301 49 22h57v-3c-23.333 -50.667 -59.333 -76 -108 -76
c-51.333 0 -88.333 32.333 -111 97l-1 28v8c0 32.667 10.667 62.334 32 89.001c22.667 26 50 39 82 39zM3429 610h5c27.333 0 50.666 -13 70 -39h2v31h47v-245h-47v31h-2c-23.333 -26 -49 -39 -77 -39c-47.333 0 -81 29.667 -101 89l-5 36v14c0 57.333 28 97.333 84 120z
M3711 610l7 -0.000976562c58.667 0 94.334 -42.667 107 -128l-2 -1v-15c0 -43.333 -22 -78.666 -66 -105.999c-14 -7.33301 -29.333 -11 -46 -11c-22.667 0 -44 10.667 -64 32v-99l-5 -5h-49v325h49v-28c20.667 24 43.667 36 69 36zM4151 609.999
c29.334 0 54.334 -13 75 -39v31h49v-245h-49v31c-23.334 -26 -49 -39 -77 -39c-61.333 0 -97.333 44 -108 132c0 56 24.333 96.333 73 121c10 5.33301 22.334 8 37 8zM922.002 601.999h50v-136c2 -40 16 -60 42 -60h5c29.333 0 44 29 44 87v109h52v-245h-47v24h-5
c0 -15.333 -18.667 -26 -56 -32h-3c-36.667 0 -64 22.667 -82 68c-2.66699 23.333 -4 56.333 -4 99v81zM1159 601.999h51v-245h-51v245zM2664 601.999h52v-245h-52v245zM4316 601.999h51v-245h-51v245zM1492 487.999v-15.999c8.66699 -44 28.334 -66 59.001 -66h4
c39.333 0 61.333 25.333 66 76c-8.66699 47.333 -28.334 71 -59.001 71h-11c-39.333 -10.667 -59 -32.334 -59 -65.001zM1987 472c10 -44 29.667 -66 59 -66h11c32 0 51.667 25 59 75v1c-8.66699 47.333 -28.334 71 -59 71h-14c-26 0 -44.667 -19 -56 -57v-24zM2805 506h122
v2c-10.667 30 -30.334 45 -59 45h-7c-23.333 0 -42 -15.667 -56 -47zM3373 474c8.66699 -45.333 29 -68 61 -68h5c34.667 0 56.334 21 65 63v12c-6.66699 48 -25.667 72 -57 72h-16c-37.333 -9.33301 -56 -30.333 -56 -63zM3642 478c8 -48 28.333 -72.001 61 -72.001h3
c33.333 0 55 20 65 60v22c0 28.667 -16.333 50.334 -49 65.001h-22c-31.333 0 -50.666 -24 -58 -72v-3zM4095 471.999c6.66602 -44 28.666 -66 66 -66c28.666 0 49 16 61 48l2 15v16c0 36 -17.334 58.667 -52 68h-18c-28 0 -47.666 -20 -59 -60v-21zM3416 320.999h51v-52
h-51v52zM4137 320.999h51v-52h-51v52zM2733 132.999h4c23.333 0 37.666 -16.667 43 -50v-2c0 -10.667 -8 -24.334 -24 -41.001l-10 -17h-28c0 16.667 9.33301 35.334 28 56.001l3 2v2c-2 12.667 -5 19 -9 19h-10c-5.33301 0 -8.33301 -6.33301 -9 -19h-30
c4 33.333 18 50 42 50zM1546 115.999l52 -60l-26 -19l-52 52zM352.002 78.999h4c50 -32 78.333 -52 85 -60l-20 -37c-58.667 32.667 -88 52 -88 58zM3490 78.999l86 -58l-18 -39c-6.66699 0 -37 18.333 -91 55c10 24 17.667 38 23 42zM4578 75.999l19 -42l-91 -52l-20 39
l92 58v-3zM1204 52.999h51v-19l5 -5h14v-36h-14l-5 -5v-279h-46v31c-22.667 -26.667 -49.667 -40 -81 -40c-48 0 -82 35 -102 105l-3 26c0 68 33.667 111.667 101 131h14c22 0 44 -11 66 -33v59l-6 5h-43v36h49v24zM1480 44.999h40l56 -61h-53l-23 27l-23 -27h-53z
M2641 44.999h33c8 0 29 -20.333 63 -61h-54l-23 27c-12.667 -14 -19 -23 -19 -27h-58v4zM49.002 36.999h160v-60h-56v-268h-50l-4 5v245l2 3v2l-2 2l2 3l-2 2l2 3l-2 3h-54v54zM699.002 36.999h47v-73l2 -2l-2 -3v-3l2 -2l-2 -3v-3l2 -2v-2l-2 -3l2 -3h3
c11.333 16 28.333 24 51 24h3c35.333 0 61 -19.333 77 -58c4.66699 -11.333 7 -25.333 7 -42v-153h-52v127c0 45.333 -13.333 68 -40 68h-8c-28.667 0 -43 -28.667 -43 -86v-109h-52v322zM1297 36.999h47l5 -6v-49h-52v55zM1987 36.999h52v-198l70 115h62l-78 -118l90 -125
v-2h-70c-6.66699 14.667 -31.334 53 -74 115v-115h-52v328zM2271 36.999v-98.999c16 16 33.667 24 53 24c38 0 64.667 -18.667 80 -56c6.66699 -12.667 10 -38.334 10 -77.001v-120h-54v133c0 41.333 -13.667 62 -41 62h-11c-20.667 0 -33 -18.333 -37 -55v-140h-53v314
l-1 3v3l1 2l-1 3l1 3h53zM2458 37h51v-55h-51v55zM3148 37h51v-108c18 22 40.667 33 68 33h3c50 0 85 -31.333 105 -94l5 -37c0 -50 -21.333 -90 -64 -120c-20 -7.33301 -36.333 -11 -49 -11c-27.333 0 -51.333 13.333 -72 40v-31h-47v328zM4275 37h52v-99h2
c15.334 16 33.334 24 54 24h3c40 0 67.334 -24.667 82 -74l2 -41v-138h-52v111c0 54.667 -10.666 82 -32 82l-10 2h-12c-24.666 0 -37 -26.667 -37 -80v-115h-52v328zM329.002 -38h3v-58h-5c-28 0 -42 -19 -42 -57v-138h-53v245h47v-21c12 19.333 28.667 29 50 29z
M564.002 -38c47.333 0 75.999 -29 85.999 -87v-166h-51v136c-4 39.333 -17.667 59 -41 59h-6c-30 0 -45 -28 -45 -84v-111h-52v245h50v-21c16.667 19.333 36.334 29 59.001 29zM1504 -38c48 0 83 -31.333 105 -94l5 -39c-1.33301 -16 -3.66602 -24 -6.99902 -24h-169
c11.333 -31.333 32 -47 62 -47c16 0 32 7 48 21h57c-22 -52.667 -58 -79 -108 -79c-54.667 0 -92.334 35 -113.001 105v37c0 54 29.667 93 89 117zM2657 -38h5c51.333 0 87 -32.333 107 -97l3 -26v-21l-3 -13h-170c12 -31.333 29.667 -47 53 -47h12c14 0 28 7 42 21h59
c-22.667 -52.667 -57.667 -79 -105 -79c-56 0 -94.333 34 -115 102l-2 29c0 62 30.333 104.667 91 128zM2915 -38h3.99902c36 0 62 -20 78 -60c4.66699 -16.667 7 -44 7 -82v-111h-54v138c0 32 -11.667 51 -35 57h-11c-25.333 0 -39.666 -19 -42.999 -57v-138h-54v245h50
v-21c16.667 19.333 36 29 58 29zM3508 -38h6c26.667 0 50 -13.333 70 -40h2v32h47v-245h-47v31h-2c-22.667 -26.667 -48.667 -40 -78 -40c-47.333 0 -81 30 -101 90l-4 37v12c0 54.667 25.667 93.667 77 117c7.33301 4 17.333 6 30 6zM3781 -38h4
c41.333 0 68.666 -26 82 -78l3 -84v-91h-54v138c0 32 -12.667 51 -38 57h-9c-25.333 0 -39.333 -17.333 -42 -52v-143h-54v245h49v-21c17.333 19.333 37 29 59 29zM4133 -38h1c49.334 0 84 -31 104 -93l4 -40c0 -58.667 -28 -100.667 -84 -126l-25 -3
c-27.333 0 -50 11.333 -68 34v-106h-52v326h47v-29c20 24.667 44.334 37 73 37zM4714 -38h5c22.666 0 43.666 -12.333 63 -37c18 24.667 41 37 69 37h6c37.334 0 63.667 -22 79 -66l6 -51v-136h-52v122c0 48.667 -13 73 -39 73h-7c-23.334 0 -37 -16.667 -41 -50v-140l-5 -5
h-48v140c0 28 -10.334 46.333 -31 55h-17c-26.666 0 -40 -25.667 -40 -77v-118h-51v245h47v-21c14.666 19.333 33.333 29 56 29zM359 -46h49l5 -6v-234l-5 -5h-49v245zM1297 -46h52v-245h-52v245zM1649 -46h52v-136c2.66699 -40 17 -60 43 -60h4c29.333 0 44 27 44 81v115
h52v-245h-47v24h-5c-8 -22 -27.667 -33 -59 -33c-34.667 0 -61 21 -79 63c-3.33301 8 -5 19.333 -5 34v157zM2458 -46h51v-245h-51v245zM4515 -46h51v-245h-51v245zM1077 -169c0 -35.333 16.999 -59.666 50.999 -72.999h12c36 0 58 22 66 66v10
c0 35.333 -18 58.666 -54 69.999h-17c-25.333 0 -44.666 -19 -57.999 -57v-16zM1438 -143h122.001c-12 31.333 -29.667 47 -53 47h-7c-28.667 0 -49.334 -14.667 -62.001 -44v-3zM2599 -143h122c-14 31.333 -32 47 -54 47h-7c-30.667 0 -51 -15.667 -61 -47zM3196 -158v-11
c6.66699 -48.667 27 -73 61 -73h5c42.667 5.33301 64 29 64 71v5c0 30 -12.667 51.667 -38 65l-18 5h-14c-40 -9.33301 -60 -30 -60 -62zM3452 -173c9.33301 -46 30 -69 62 -69h11c27.333 0 47 20 59 60v13c-5.33301 48.667 -24 73 -56 73h-17
c-31.333 0 -51 -24.333 -59 -73v-4zM4062 -158v-22c0 -31.333 19.667 -52 59 -62h9c33.334 0 53.667 25.333 61 76c-8.66602 46.667 -28 70 -58 70h-15c-37.333 -11.333 -56 -32 -56 -62z" />
    <glyph glyph-name="space" unicode=" " horiz-adv-x="508" 
 />
    <glyph glyph-name="exclam" unicode="!" horiz-adv-x="684" 
d="M172 1637h340v-639l-78 -525h-184l-78 525v639zM512 0h-340v377h340v-377z" />
    <glyph glyph-name="quotedbl" unicode="&#x22;" 
d="M577 1059v578h291v-578h-291zM155 1059v578h291v-578h-291z" />
    <glyph glyph-name="numbersign" unicode="#" 
d="M60 957v241h182l49 412h236l-50 -412h166l49 412h234l-51 -412h151v-241h-182l-31 -269h152v-241h-182l-52 -447h-231l53 447h-168l-53 -447h-235l53 447h-152v241h182l31 269h-151zM615 957h-166l-35 -269h168z" />
    <glyph glyph-name="dollar" unicode="$" 
d="M59 359l-0.00195312 184.001h340v-129c0 -57.333 5.33301 -98.333 16 -123c10 -26 40.333 -39 91 -39c28.667 0 52.334 12.333 71.001 37c16.667 24.667 25 63.667 25 117c0 65.333 -47 142.333 -141 231l-263 234c-94 106 -141 222.667 -141 350
c0 121.333 33.333 219 100 293c66 72 155.667 113 269 123v147h168v-147c122.667 0 213.334 -38.333 272.001 -115c53.333 -70 80 -171.667 80 -305v-105h-340v109c0 38 -6 69.333 -18 94c-16.667 28.667 -45.334 43 -86.001 43c-23.333 0 -45.333 -12.333 -66 -37
c-18 -24.667 -27 -52 -27 -82c0 -57.333 48 -127 144 -209c148.667 -126.667 238 -207.667 268 -243c96.667 -116 145 -242.333 145 -379c0 -244.667 -124 -389.334 -372 -434.001v-148h-168v148c-101.333 0 -186.666 30.667 -255.999 92c-74 69.333 -111 167 -111 293z" />
    <glyph glyph-name="percent" unicode="%" horiz-adv-x="1820" 
d="M1286 586v-363c0 -24 3.33301 -41.5 10 -52.5s23 -16.5 49 -16.5c20.667 0 35 6 43 18c8.66699 12.667 13 29.667 13 51v363c0 23.333 -3.66699 41 -11 53c-6.66699 11.333 -21.667 17 -45 17c-24.667 0 -41 -6.33301 -49 -19zM190 1024l0.00195312 363
c0 88.667 25.333 152.667 76 192c50.667 38.667 121.667 58 213 58s159.666 -18 204.999 -54c53.333 -40.667 80 -106 80 -196v-363c0 -86 -25.333 -150 -76 -192c-50.667 -38.667 -120.334 -58 -209.001 -58c-95.333 0 -165 18 -209 54c-53.333 40.667 -80 106 -80 196z
M420.002 1387v-362.999c0 -24.667 3.33301 -42.334 10 -53.001s23 -16 49 -16c20.667 0 35 6 43 18s12 29 12 51v363c0 23.333 -3.33301 41 -10 53c-6.66699 10.667 -21.667 16 -45 16c-24.667 0 -41 -6 -49 -18zM598.002 -52.999l434 1716h190l-428 -1716h-196z
M1057 223.001l0.000976562 363c0 88.667 25 152.667 75 192c50.667 38.667 121.667 58 213 58c92 0 160.333 -17.667 205 -53c53.333 -41.333 80 -107 80 -197v-363c0 -86 -25.333 -150 -76 -192c-50.667 -38 -120.334 -57 -209.001 -57c-95.333 0 -165 17.667 -209 53
c-52.667 40.667 -79 106 -79 196z" />
    <glyph glyph-name="ampersand" unicode="&#x26;" horiz-adv-x="1366" 
d="M983 910l289.001 -0.000976562c0 -53.333 -4 -101.333 -12 -144c-10 -42 -25 -92.333 -45 -151c-32.667 -104 -80 -193 -142 -267l193 -348h-363l-51 101c-38 -36 -89 -67.667 -153 -95c-66 -21.333 -127 -32 -183 -32c-172 0 -292.667 66 -362 198
c-40 76.667 -60 173.667 -60 291c0 79.333 25.333 163.333 76 252c57.333 102.667 132.666 177 225.999 223c-48 78 -79 132.667 -93 164l-32 100c-8.66699 33.333 -13 64.333 -13 93c0 102 35 184.333 105 247c69.333 63.333 159.333 95 270 95c112 0 200 -24 264 -72
c74 -53.333 111 -134.666 111 -243.999c0 -78 -21.333 -153.667 -64 -227c-43.333 -75.333 -101.333 -139.666 -174 -192.999l144 -258l37 101c21.333 83.333 32 138.666 32 165.999zM725.001 327.999l-192 360l-47 -57l-19 -25c-13.333 -22.667 -24.333 -47 -33 -73
c-8 -27.333 -12 -56.666 -12 -87.999c0 -46.667 14.333 -88.334 43 -125.001c27.333 -37.333 64.333 -56 111 -56l41 2l32 15l39 20zM647.001 1395c-57.333 0 -86 -27.999 -86 -83.999c0 -28.667 9.66699 -59.334 29 -92.001l45 -78c28.667 27.333 49.167 49.833 61.5 67.5
s20.5 33.5 24.5 47.5l8 47c0 30 -6 53 -18 69c-14 15.333 -35.333 23 -64 23z" />
    <glyph glyph-name="quotesingle" unicode="'" horiz-adv-x="569" 
d="M139 1059v578h291v-578h-291z" />
    <glyph glyph-name="parenleft" unicode="(" horiz-adv-x="682" 
d="M602 1637l-0.000976562 -180.999c-46.667 0 -83 -15 -109 -45c-21.333 -30 -32 -96 -32 -198v-1039c0 -70.667 5.33301 -119 16 -145c20.667 -49.333 62.334 -74 125.001 -74v-180c-135.333 20.667 -244 69.667 -326 147c-87.333 83.333 -131 192 -131 326v891
c0 143.333 41 262.166 123 356.499s193.333 141.5 334 141.5z" />
    <glyph glyph-name="parenright" unicode=")" horiz-adv-x="682" 
d="M80 -225v180c61.333 0 102.333 24.667 123 74c12 28.667 18 77 18 145v1039c0 86 -5.33301 142 -16 168c-19.333 50 -61 75 -125 75v181c136.667 0 248.667 -48 336 -144c80.667 -91.333 121 -209.333 121 -354v-891c0 -134 -43.667 -242.667 -131 -326
c-78 -73.333 -186.667 -122.333 -326 -147z" />
    <glyph glyph-name="asterisk" unicode="*" horiz-adv-x="796" 
d="M635 1059l-162 115l17 -213h-168l6 213l-162 -119l-86 131l186 113l-182 114l76 140l168 -123l-12 207h172l-15 -205l172 119l72 -138l-190 -112l190 -113z" />
    <glyph glyph-name="plus" unicode="+" horiz-adv-x="1229" 
d="M469 811v373h291v-373h372v-291h-372v-372h-291v372h-373v291h373z" />
    <glyph glyph-name="comma" unicode="," horiz-adv-x="512" 
d="M86 0l-0.000976562 376.999h340v-352c0 -45.333 -17.667 -98 -53 -158c-36.667 -61.333 -68.667 -94.666 -96 -99.999h-191c36 30 70.333 66 103 108c24.667 30 46.334 71.667 65.001 125h-168z" />
    <glyph glyph-name="hyphen" unicode="-" horiz-adv-x="682" 
d="M71 541v303h539v-303h-539z" />
    <glyph glyph-name="hyphen" unicode="&#x2010;" horiz-adv-x="682" 
d="M71 541v303h539v-303h-539z" />
    <glyph glyph-name="period" unicode="." horiz-adv-x="512" 
d="M426 0h-340v377h340v-377z" />
    <glyph glyph-name="slash" unicode="/" horiz-adv-x="569" 
d="M-84 -26l447 1689h291l-447 -1689h-291z" />
    <glyph glyph-name="zero" unicode="0" 
d="M61 383l0.000976562 844c0 125.333 39 225 117 299s189.333 111 334 111c143.333 0 254.666 -36.333 333.999 -109c77.333 -74 116 -174.333 116 -301v-844c0 -126.667 -39.333 -226.334 -118 -299.001c-79.333 -73.333 -190 -110 -332 -110
c-144.667 0 -256 36.667 -334 110c-78 72.667 -117 172.334 -117 299.001zM426.001 1254v-897c0 -40 7.5 -67.5 22.5 -82.5s36.167 -22.5 63.5 -22.5c23.333 0 43 6.33301 59 19c18 17.333 27 46 27 86v897c0 39.333 -7.5 66.5 -22.5 81.5s-36.167 22.5 -63.5 22.5
c-28.667 0 -50 -6.66699 -64 -20c-14.667 -15.333 -22 -43.333 -22 -84z" />
    <glyph glyph-name="one" unicode="1" 
d="M104 1209l0.000976562 229c67.333 0 129.666 13.667 186.999 41c56 27.333 94.667 71 116 131h308v-1610h-353v1209h-258z" />
    <glyph glyph-name="two" unicode="2" 
d="M76 1045l0.000976562 127.001c0 156.667 37 273.334 111 350.001c73.333 76.667 190.666 115 351.999 115c140.667 0 250 -35 328 -105c76 -70.667 114 -178.334 114 -323.001c0 -128.667 -32 -239.334 -96 -332.001c-16.667 -24.667 -42 -55.334 -76 -92.001
c-35.333 -38.667 -81 -84 -137 -136c-101.333 -94 -173.666 -179.333 -216.999 -256l-21 -45l-16 -45h551v-303h-926v101c0 196.667 49.333 364.334 148 503.001c2.66699 6 94.667 101.667 276 287c100 104 150 209.333 150 316c0 61.333 -8.33301 102 -25 122
c-18 19.333 -43.333 29 -76 29c-40.667 0 -67.334 -12.333 -80.001 -37c-13.333 -26 -20 -64 -20 -114v-162h-340z" />
    <glyph glyph-name="three" unicode="3" 
d="M49 389v154.001h353v-168c0 -36.667 7.33301 -66 22 -88c15.333 -23.333 40.666 -35 75.999 -35c32.667 0 57.334 11.667 74.001 35c16 22 24 51.333 24 88v115c0 90 -14.333 152.667 -43 188c-10.667 12.667 -32.334 23.667 -65.001 33c-34 8 -75 12 -123 12v266h63
c40 0 76.333 10.333 109 31c31.333 20.667 47 52 47 94v133c0 22 -0.666992 37.833 -2 47.5s-6.66602 22.5 -15.999 38.5c-10 16.667 -32.667 25 -68 25c-61.333 0 -92 -39.667 -92 -119v-102h-350c0 168 29.333 290 88 366c68 89.333 188 134 360 134
c142 0 249.333 -29.333 322 -88c82 -66 123 -172.667 123 -320c0 -90 -10.333 -159.667 -31 -209c-27.333 -64 -77.333 -113 -150 -147c71.333 -24.667 124 -73.334 158 -146.001c23.333 -58.667 35 -135.667 35 -231c0 -176 -30.667 -305 -92 -387
c-70 -90 -191.667 -135 -365 -135c-143.333 0 -255.333 34 -336 102s-121 172.333 -121 313z" />
    <glyph glyph-name="four" unicode="4" 
d="M39 305l0.00195312 337.999c65.333 140.667 120.666 301.334 165.999 482.001c19.333 78.667 35.666 161.667 48.999 249c14 86 21 164.667 21 236h379c0 -78 -11.667 -158.667 -35 -242c-24.667 -83.333 -60.334 -179.333 -107.001 -288
c-65.333 -161.333 -154 -322.666 -266 -483.999h264v221c24.667 34.667 47.334 69.667 68.001 105s41 75.666 61 120.999c40 83.333 68.667 164.333 86 243h137v-690h123v-291h-123v-305h-352v305h-471z" />
    <glyph glyph-name="five" unicode="5" 
d="M86 727l0.000976562 883.001h826v-303h-523v-242c23.333 18 56.166 33.167 98.499 45.5s75.166 18.5 98.499 18.5c128 0 224.333 -36.333 289 -109c58.667 -66.667 88 -161.667 88 -285v-227c0 -177.333 -32 -308.333 -96 -393c-72.667 -94 -193 -141 -361 -141
c-143.333 0 -255.333 34 -336 102s-121 172.333 -121 313v142h353v-156c0 -36.667 7.33301 -66 22 -88c15.333 -23.333 40.666 -35 75.999 -35c32.667 0 57.334 11.667 74.001 35c16 22 24 51.333 24 88v352c0 19.333 -1.33301 33.666 -4 42.999c0 14 -6.66699 31 -20 51
c-14 19.333 -38.667 29 -74 29s-60.666 -11 -75.999 -33c-14.667 -22.667 -22 -52.667 -22 -90h-316z" />
    <glyph glyph-name="six" unicode="6" 
d="M61 383l-0.000976562 843.999c0 125.333 39 225 117 299s189.333 111 334 111c135.333 0 240.333 -33 315 -99c74 -65.333 111 -170.333 111 -315h-328c0 44.667 -7.33301 78.667 -22 102c-15.333 22 -40.666 33 -75.999 33s-60.666 -11.667 -75.999 -35
s-23 -56.666 -23 -99.999v-182l5 -4c28.667 36.667 57.334 61 86.001 73c27.333 12.667 66.666 19 117.999 19c123.333 0 213.666 -41 270.999 -123c46 -74 69 -175.667 69 -305v-318c0 -126.667 -39.333 -226.334 -118 -299.001c-79.333 -73.333 -190 -110 -332 -110
c-144.667 0 -256 36.667 -334 110c-78 72.667 -117 172.334 -117 299.001zM425.999 745.999v-389c0 -40 7.5 -67.5 22.5 -82.5s36.167 -22.5 63.5 -22.5c23.333 0 43 6.33301 59 19c18 17.333 27 46 27 86v389c0 39.333 -7.5 66.5 -22.5 81.5s-36.167 22.5 -63.5 22.5
c-28.667 0 -50 -6.66699 -64 -20c-14.667 -15.333 -22 -43.333 -22 -84z" />
    <glyph glyph-name="seven" unicode="7" 
d="M24 1307v303.001h938v-272l-45 -78l-43 -80c-38 -71.333 -72.667 -147.666 -104 -228.999c-15.333 -42.667 -33 -94.667 -53 -156c-10 -28.667 -20.333 -62 -31 -100c-52 -192.667 -78 -364.334 -78 -515.001l-12 -180h-389l6 101l8 71
c8 93.333 21.667 176.666 41 249.999c18 86 42 171.333 72 256c46 143.333 112.667 302.333 200 477l76 152h-586z" />
    <glyph glyph-name="eight" unicode="8" 
d="M61 383v134.997c0 87.333 7.66699 150.333 23 189c24.667 70.667 78.667 123.334 162 158.001c-60.667 24 -106 62 -136 114c-24.667 41.333 -37 87 -37 137v111c0 53.333 4.33301 101 13 143c8 41.333 21.667 76.333 41 105c66.667 108 195 162 385 162
c188 0 315.667 -54 383 -162c36.667 -57.333 55 -140 55 -248v-111c0 -43.333 -12.333 -87.666 -37 -132.999c-28.667 -50 -75.667 -89.333 -141 -118c76.667 -29.333 130.667 -74.666 162 -135.999c18.667 -46 28 -116.333 28 -211v-135
c0 -126.667 -39.333 -226.334 -118 -299.001c-79.333 -73.333 -190 -110 -332 -110c-144.667 0 -256 36.667 -334 110c-78 72.667 -117 172.334 -117 299.001zM426 616.997v-260c0 -40 7.5 -67.5 22.5 -82.5s36.167 -22.5 63.5 -22.5c23.333 0 43 6.33301 59 19
c18 17.333 27 46 27 86v260c0 39.333 -7.5 66.5 -22.5 81.5s-36.167 22.5 -63.5 22.5c-28.667 0 -50 -6.66699 -64 -20c-14.667 -15.333 -22 -43.333 -22 -84zM426 1254v-150c0 -39.333 7.5 -66.5 22.5 -81.5s36.167 -22.5 63.5 -22.5c23.333 0 43 6 59 18
c18 18 27 46.667 27 86v150c0 39.333 -7.5 66.5 -22.5 81.5s-36.167 22.5 -63.5 22.5c-28.667 0 -50 -6.66699 -64 -20c-14.667 -15.333 -22 -43.333 -22 -84z" />
    <glyph glyph-name="nine" unicode="9" 
d="M962 1227l0.00292969 -843.998c0 -126.667 -39.333 -226.334 -118 -299.001c-79.333 -73.333 -190 -110 -332 -110c-135.333 0 -239.333 31.333 -312 94c-76 68 -114 174.333 -114 319h327c0 -44.667 7.66699 -78 23 -100c15.333 -23.333 40.666 -35 75.999 -35
s60.666 11.667 75.999 35c14.667 23.333 22 56.666 22 99.999v183l-4 4c-26 -34.667 -54.667 -60 -86 -76l-49 -12l-70 -4c-122.667 0 -212.667 40.667 -270 122c-46.667 74 -70 176 -70 306v317c0 125.333 39 225 117 299s189.333 111 334 111
c143.333 0 254.666 -36.333 333.999 -109c77.333 -74 116 -174.333 116 -301zM598.003 865.002l-0.00195312 389.001c0 39.333 -7.5 66.5 -22.5 81.5s-36.167 22.5 -63.5 22.5s-48.666 -7.33301 -63.999 -22c-14.667 -12.667 -22 -40 -22 -82v-389
c0 -40 7.5 -67.5 22.5 -82.5s36.167 -22.5 63.5 -22.5c28.667 0 50.334 7.66699 65.001 23c14 13.333 21 40.666 21 81.999z" />
    <glyph glyph-name="colon" unicode=":" horiz-adv-x="512" 
d="M86 813v377h340v-377h-340zM86 0v377h340v-377h-340z" />
    <glyph glyph-name="semicolon" unicode=";" horiz-adv-x="512" 
d="M86 0l-0.000976562 376.999h340v-352c0 -45.333 -17.667 -98 -53 -158c-36.667 -61.333 -68.667 -94.666 -96 -99.999h-191c36 30 70.333 66 103 108c24.667 30 46.334 71.667 65.001 125h-168zM85.999 812.999v377h340v-377h-340z" />
    <glyph glyph-name="less" unicode="&#x3c;" horiz-adv-x="1229" 
d="M1132 131l-1036 389v291l1036 389v-315l-626 -217l626 -221v-316z" />
    <glyph glyph-name="equal" unicode="=" horiz-adv-x="1229" 
d="M1132 1065v-291h-1036v291h1036zM1132 557v-291h-1036v291h1036z" />
    <glyph glyph-name="greater" unicode="&#x3e;" horiz-adv-x="1229" 
d="M96 131v316l627 217l-627 221v315l1036 -389v-291z" />
    <glyph glyph-name="question" unicode="?" 
d="M250 0v377h340v-377h-340zM555 473l-266.002 -0.000976562v92c0 93.333 28.667 185 86 275l160 201c58.667 74.667 88 145.667 88 213c0 51.333 -7 90 -21 116c-17.333 34.667 -48.666 52 -93.999 52c-39.333 0 -68.666 -18 -87.999 -54c-18 -39.333 -27 -85 -27 -137
v-113h-315v138c0 116 40.333 212.667 121 290c79.333 78 187 117 323 117c142 0 251.333 -31.333 328 -94c83.333 -68 125 -168.333 125 -301c0 -101.333 -36 -197 -108 -287l-203 -219c-72.667 -91.333 -109 -187.666 -109 -288.999z" />
    <glyph glyph-name="at" unicode="@" horiz-adv-x="1802" 
d="M868 574c65.333 0 121.333 24.333 168 73c46.667 48 70 104.667 70 170c0 56 -16.333 102 -49 138c-34.667 35.333 -80.667 53 -138 53c-61.333 0 -114.333 -25.333 -159 -76c-42.667 -50.667 -64 -106 -64 -166c0 -52 14.333 -97 43 -135s71.667 -57 129 -57zM1165 1116
l20.998 108.999h213l-99 -541l-10 -43l-4 -32c0 -32 18.333 -48 55 -48c48 0 87.667 22 119 66c44 60 66 152.667 66 278c0 176.667 -54 313.334 -162 410.001c-109.333 95.333 -252.666 143 -429.999 143c-186 0 -335.667 -60 -449 -180
c-114.667 -120 -172 -274.333 -172 -463c0 -192 60.667 -346 182 -462c122 -116.667 280.667 -175 476 -175c88.667 0 168.334 12.333 239.001 37c70 24.667 133 58.334 189 101.001h223c-79.333 -108 -175.666 -192 -288.999 -252c-114.667 -60 -241.667 -90 -381 -90
c-247.333 0 -454 78.333 -620 235c-174 161.333 -261 363.333 -261 606c0 238 84 438.667 252 602c168 164 373.667 246 617 246c207.333 0 389 -61.333 545 -184c163.333 -131.333 245 -298.666 245 -501.999c0 -225.333 -76.333 -400 -229 -524
c-112 -88.667 -222.667 -133 -332 -133c-46 0 -80.667 10 -104 30c-24.667 19.333 -37 46.666 -37 81.999l-45 -45l-53 -39c-36 -18.667 -77.667 -28 -125 -28c-98.667 0 -185.334 41 -260.001 123c-76.667 81.333 -115 176.666 -115 285.999c0 138 43 259.667 129 365
c43.333 52 91.666 91 144.999 117s114.333 39 183 39c118.667 0 211.334 -44.667 278.001 -134z" />
    <glyph glyph-name="A" unicode="A" horiz-adv-x="1138" 
d="M14 0l303 1637h500l307 -1637h-395l-35 291h-264l-39 -291h-377zM469 582h188l-88 801z" />
    <glyph glyph-name="B" unicode="B" horiz-adv-x="1138" 
d="M84 0v1637h522c142 0 246 -28.667 312 -86c64 -58.667 96 -158.334 96 -299.001c0 -105.333 -11.667 -183.333 -35 -234c-28.667 -68 -86 -118.333 -172 -151c88.667 -16.667 152.167 -58.5 190.5 -125.5s57.5 -152.167 57.5 -255.5c0 -146.667 -30.667 -262 -92 -346
c-70 -93.333 -184.667 -140 -344 -140h-535zM461 723.001v-443.999h78c56 0 93.667 14.333 113 43c17.333 31.333 26 91.333 26 180c0 71.333 -6.66699 122.666 -20 153.999c-19.333 44.667 -56.333 67 -111 67h-86zM461 1358l-0.000976562 -369h70
c53.333 0 90 18.667 110 56c14 30 21 75 21 135c0 61.333 -8.16699 106.333 -24.5 135s-47.166 43 -92.499 43h-84z" />
    <glyph glyph-name="C" unicode="C" horiz-adv-x="1138" 
d="M84 447v742.999c0 154.667 45.667 273.334 137 356.001c86 78 202.333 117 349 117c144.667 0 262 -40.333 352 -121c88.667 -80 133 -197.333 133 -352v-151h-377v184c0 39.333 -4 70.666 -12 93.999c-16.667 36.667 -48.667 55 -96 55c-45.333 0 -77 -17.667 -95 -53
c-9.33301 -28.667 -14 -60.667 -14 -96v-809c0 -49.333 8.33301 -87.666 25 -114.999c16 -23.333 44 -35 84 -35c44.667 0 76 19.333 94 58c9.33301 28.667 14 59.334 14 92.001v240h377v-207c0 -144.667 -43.667 -259.334 -131 -344.001
c-87.333 -86 -205.333 -129 -354 -129c-148 0 -265.667 42.333 -353 127c-88.667 84.667 -133 200 -133 346z" />
    <glyph glyph-name="D" unicode="D" horiz-adv-x="1138" 
d="M461 1358v-1079h59c105.333 0 158 46.333 158 139v801c0 92.667 -52.667 139 -158 139h-59zM84 0v1637h561c152 0 260.667 -41.667 326 -125c56 -71.333 84 -176 84 -314v-778c0 -136.667 -43 -243.667 -129 -321c-74 -66 -167.667 -99 -281 -99h-561z" />
    <glyph glyph-name="E" unicode="E" 
d="M84 0v1637h838v-316h-461v-325h404v-316h-404v-364h479v-316h-856z" />
    <glyph glyph-name="F" unicode="F" horiz-adv-x="909" 
d="M84 0v1637h787v-316h-410v-325h367v-316h-367v-680h-377z" />
    <glyph glyph-name="G" unicode="G" horiz-adv-x="1138" 
d="M84 447l-0.00292969 742.998c0 154.667 45.667 273.334 137 356.001c86 78 202.333 117 349 117c144.667 0 257.334 -28 338.001 -84c98 -68 147 -173.667 147 -317v-182h-358v163c0 86 -39.667 129 -119 129c-40 0 -72 -18.333 -96 -55c-14 -30 -21 -61.333 -21 -94
v-809c0 -49.333 8.33301 -87.666 25 -114.999c16 -23.333 44 -35 84 -35c80 0 120 41 120 123v211h-133v303h498v-901h-330v133c-69.333 -106 -167.666 -159 -294.999 -159c-121.333 0 -212.666 47.667 -273.999 143c-48 79.333 -72 189.333 -72 330z" />
    <glyph glyph-name="H" unicode="H" horiz-adv-x="1138" 
d="M84 0v1637h377v-613h217v613h377v-1637h-377v697h-217v-697h-377z" />
    <glyph glyph-name="I" unicode="I" horiz-adv-x="569" 
d="M96 0v1637h377v-1637h-377z" />
    <glyph glyph-name="J" unicode="J" 
d="M940 1637v-1229c0 -147.333 -37.5 -256.5 -112.5 -327.5s-188.833 -106.5 -341.5 -106.5c-124.667 0 -221 25 -289 75c-98.667 70 -148 189.667 -148 359v239h365v-278c0 -28.667 4 -54.667 12 -78c10 -18 30 -27 60 -27c18.667 0 36.167 8.33301 52.5 25
s24.5 44 24.5 82v1266h377z" />
    <glyph glyph-name="K" unicode="K" horiz-adv-x="1138" 
d="M84 0v1637h365v-670l256 670h399l-313 -678l315 -959h-401l-168 586l-88 -135v-451h-365z" />
    <glyph glyph-name="L" unicode="L" horiz-adv-x="909" 
d="M84 0v1637h377v-1321h410v-316h-787z" />
    <glyph glyph-name="M" unicode="M" horiz-adv-x="1593" 
d="M94 0v1637h594l107 -811l110 811h594v-1637h-364v1272l-215 -1272h-246l-211 1272l-4 -1272h-365z" />
    <glyph glyph-name="N" unicode="N" horiz-adv-x="1251" 
d="M84 0v1637h412l303 -965l4 965h365v-1637h-410l-305 1012l-4 -1012h-365z" />
    <glyph glyph-name="O" unicode="O" horiz-adv-x="1138" 
d="M461 1223v-809.001c0 -49.333 8.33301 -87.666 25 -114.999c16 -23.333 44 -35 84 -35c44.667 0 76 19.333 94 58c9.33301 28.667 14 59.334 14 92.001v809c0 39.333 -4 70.666 -12 93.999c-16.667 36.667 -48.667 55 -96 55c-45.333 0 -77 -17.667 -95 -53
c-9.33301 -28.667 -14 -60.667 -14 -96zM84 446.999v743c0 154.667 45.667 273.334 137 356.001c86 78 202.333 117 349 117c144.667 0 262 -40.333 352 -121c88.667 -80 133 -197.333 133 -352v-743c0 -144.667 -43.667 -259.334 -131 -344.001
c-87.333 -86 -205.333 -129 -354 -129c-148 0 -265.667 42.333 -353 127c-88.667 84.667 -133 200 -133 346z" />
    <glyph glyph-name="P" unicode="P" horiz-adv-x="1138" 
d="M461 1346l-0.000976562 -406.001h94c54.667 0 92.334 14.333 113.001 43c18 32.667 27 87.334 27 164.001c0 90 -16 148 -48 174c-20 16.667 -67.667 25 -143 25h-43zM83.999 -0.000976562v1637h404c216.667 0 365.334 -29.333 446.001 -88
c91.333 -68.667 137 -205.334 137 -410.001c0 -56 -0.666992 -94.333 -2 -115c-2.66699 -22 -8 -53.333 -16 -94c-8 -42 -25.667 -83.667 -53 -125c-64.667 -104 -173.334 -156 -326.001 -156h-213v-649h-377z" />
    <glyph glyph-name="Q" unicode="Q" horiz-adv-x="1138" 
d="M461 1223v-809.001c0 -49.333 8.33301 -87.666 25 -114.999c16 -23.333 44 -35 84 -35c44.667 0 76 19.333 94 58c9.33301 28.667 14 59.334 14 92.001v809c0 39.333 -4 70.666 -12 93.999c-16.667 36.667 -48.667 55 -96 55c-45.333 0 -77 -17.667 -95 -53
c-9.33301 -28.667 -14 -60.667 -14 -96zM84 446.999l0.000976562 742.999c0 154.667 45.667 273.334 137 356.001c86 78 202.333 117 349 117c144.667 0 262 -40.333 352 -121c88.667 -80 133 -197.333 133 -352v-743c0 -182 -71 -317.333 -213 -406l145 -235l-305 -31
l-55 102l-55 97c-76.667 0 -144.334 10 -203.001 30c-58.667 20.667 -110.667 53 -156 97c-86 84.667 -129 200 -129 346z" />
    <glyph glyph-name="R" unicode="R" horiz-adv-x="1138" 
d="M84 0v1637h498c168 0 289.333 -29.333 364 -88c75.333 -59.333 113 -162 113 -308c0 -104.667 -12.333 -183.667 -37 -237c-32.667 -66 -96 -113.333 -190 -142c68 -12 121 -42.667 159 -92c40 -46 60 -103.333 60 -172v-289v-116v-45c0 -15.333 1.33301 -31 4 -47
c0 -40 11.667 -73.667 35 -101h-373c-12 14 -23 46.333 -33 97c-5.33301 43.333 -8 84 -8 122c-1.33301 38.667 -2 68.667 -2 90v263c0 44.667 -11 78.667 -33 102c-21.333 22 -58 33 -110 33h-70v-707h-377zM461 1358l-0.000976562 -373h92
c54.667 0 92.334 18.667 113.001 56l12 49l4 88c0 64 -6 108.333 -18 133c-19.333 31.333 -62.333 47 -129 47h-74z" />
    <glyph glyph-name="S" unicode="S" horiz-adv-x="1138" 
d="M69 555l365 0.00195312v-121c0 -54 7.33301 -93.333 22 -118c22 -34.667 57 -52 105 -52c39.333 0 71.333 13 96 39c23.333 24.667 35 54 35 88c0 74 -45.667 150 -137 228l-162 121c-118.667 98 -188.334 159.333 -209.001 184
c-28.667 35.333 -52.667 77.666 -72 126.999c-14.667 48 -22 99 -22 153c0 153.333 41.667 268.333 125 345c82 76 200.667 114 356 114c158.667 0 276.667 -36 354 -108c78 -72.667 117 -173.667 117 -303v-148h-352v88c0 49.333 -6.33301 89.666 -19 120.999
c-18.667 39.333 -52 59 -100 59c-39.333 0 -70.666 -10 -93.999 -30c-23.333 -22 -35 -52.667 -35 -92c0 -52 48.667 -117.667 146 -197l167 -129c149.333 -132.667 233.333 -216 252 -250c41.333 -74 62 -168.333 62 -283c0 -100.667 -36.333 -190 -109 -268
c-92.667 -99.333 -227 -149 -403 -149c-168 0 -295.667 46.333 -383 139c-70 73.333 -105 162 -105 266v176z" />
    <glyph glyph-name="T" unicode="T" horiz-adv-x="909" 
d="M22 1321v316h865v-316h-244v-1321h-377v1321h-244z" />
    <glyph glyph-name="U" unicode="U" horiz-adv-x="1138" 
d="M84 447l0.000976562 1190h377v-1194c0 -57.333 5.33301 -99 16 -125c10 -27.333 41 -41 93 -41c35.333 0 62.666 10.667 81.999 32c17.333 20.667 26 65.334 26 134.001v1194h377v-1190c0 -144.667 -43.667 -259.334 -131 -344.001c-87.333 -86 -205.333 -129 -354 -129
c-148 0 -265.667 42.333 -353 127c-88.667 84.667 -133 200 -133 346z" />
    <glyph glyph-name="V" unicode="V" 
d="M264 0l-250 1637h385l103 -1164l129 1164h378l-278 -1637h-467z" />
    <glyph glyph-name="W" unicode="W" horiz-adv-x="1706" 
d="M309 0l-279 1637h388l133 -1164l125 1164h366l115 -1164l139 1164h379l-287 -1637h-420l-110 1008l-129 -1008h-420z" />
    <glyph glyph-name="X" unicode="X" horiz-adv-x="1138" 
d="M20 0l318 883l-299 754h405l129 -465l135 465h392l-302 -766l320 -871h-395l-160 529l-152 -529h-391z" />
    <glyph glyph-name="Y" unicode="Y" 
d="M323 647l-307 990h389l105 -553l114 553h383l-307 -963v-674h-377v647z" />
    <glyph glyph-name="Z" unicode="Z" 
d="M60 1321v316h927v-306l-534 -1015h534v-316h-950v305l531 1016h-508z" />
    <glyph glyph-name="bracketleft" unicode="[" horiz-adv-x="682" 
d="M159 -225v1862h459v-205h-143v-1452h143v-205h-459z" />
    <glyph glyph-name="backslash" unicode="\" horiz-adv-x="569" 
d="M207 1663l447 -1689h-291l-447 1689h291z" />
    <glyph glyph-name="bracketright" unicode="]" horiz-adv-x="682" 
d="M522 -225h-459v205h144v1452h-144v205h459v-1862z" />
    <glyph glyph-name="asciicircum" unicode="^" horiz-adv-x="1229" 
d="M422 862h-326l332 748h373l331 -748h-327l-191 488z" />
    <glyph glyph-name="underscore" unicode="_" 
d="M1024 -256h-1024v103h1024v-103z" />
    <glyph glyph-name="grave" unicode="`" horiz-adv-x="569" 
d="M6 1704h324l90 -278h-190z" />
    <glyph glyph-name="a" unicode="a" 
d="M944 926v-926h-323v101c-61.333 -84.667 -146 -127 -254 -127c-116 0 -196 40 -240 120c-31.333 59.333 -47 152.333 -47 279c0 110.667 28 198 84 262c39.333 46.667 100 87.667 182 123c104 40.667 163.667 68 179 82c52.667 35.333 79 83.666 79 144.999
c0 34.667 -5.33301 61.334 -16 80.001c-12 19.333 -34 29 -66 29c-60 0 -90 -30 -90 -90v-107h-327v119c0 94 38.667 171 116 231c78 59.333 177 89 297 89c156 0 266 -32.333 330 -97c64 -64 96 -168.333 96 -313zM604 305l-0.000976562 353l-98 -72
c-40.667 -31.333 -61 -70.333 -61 -117v-174c0 -69.333 25.667 -104 77 -104c24.667 0 45.334 10 62.001 30c13.333 24.667 20 52.667 20 84z" />
    <glyph glyph-name="b" unicode="b" 
d="M80 0l-0.000976562 1637h352v-447c28.667 52 63 89.667 103 113c38 22 89 33 153 33c82 0 145.667 -28 191 -84c43.333 -57.333 65 -140 65 -248v-639c0 -124.667 -22.333 -221 -67 -289c-46.667 -68 -111.667 -102 -195 -102c-57.333 0 -107 13 -149 39
c-37.333 25.333 -69.666 64.666 -96.999 117.999l-4 -131h-352zM431.999 903.001v-450.001c0 -71.333 3.66699 -117.666 11 -138.999c12 -49.333 38.333 -74 79 -74c20.667 0 38 6.66699 52 20c12 12.667 18 34.667 18 66v663c0 24.667 -7.33301 44 -22 58
c-10 10.667 -26 18 -48 22c-30 0 -53 -17 -69 -51c-14 -36.667 -21 -75 -21 -115z" />
    <glyph glyph-name="c" unicode="c" 
d="M80 346l-0.000976562 617c0 96.667 28 178 84 244c74 86 190 129 348 129c152 0 268 -43 348 -129c56 -64.667 84 -146 84 -244v-139h-352v163c0 34.667 -2.66699 58 -8 70c-10.667 24.667 -34.667 37 -72 37c-35.333 0 -57 -9.66699 -65 -29
c-10 -18.667 -15 -44.667 -15 -78v-665c0 -34 3 -57.333 9 -70c10.667 -24.667 34.334 -37 71.001 -37c32.667 0 56 11.667 70 35c6.66699 18 10 42 10 72v235h352v-211c0 -96.667 -28 -177.667 -84 -243c-73.333 -86 -189.333 -129 -348 -129
c-151.333 0 -267.333 43 -348 129c-56 64 -84 145 -84 243z" />
    <glyph glyph-name="d" unicode="d" 
d="M944 1637l-0.000976562 -1637h-352v131c-49.333 -104.667 -132.666 -157 -249.999 -157c-82 0 -146 35.333 -192 106c-46.667 70 -70 165 -70 285v639c0 102 22 183 66 243c42 59.333 105.333 89 190 89c116 0 200 -48.667 252 -146l4 447h352zM591.999 453v450.001v31
c0 14 -1.33301 26.333 -4 37c0 10.667 -4 25.667 -12 45c-15.333 35.333 -40 53 -74 53c-19.333 0 -35.833 -6.83301 -49.5 -20.5s-20.5 -33.5 -20.5 -59.5v-663c0 -27.333 6.33301 -49.333 19 -66c12 -10.667 29 -17.334 51 -20.001c40.667 0 68.667 34.667 84 104
c4 28.667 6 65 6 109z" />
    <glyph glyph-name="e" unicode="e" 
d="M80 346l-0.000976562 617c0 96.667 28 178 84 244c74 86 190 129 348 129c152 0 268 -43 348 -129c56 -64.667 84 -146 84 -244v-361h-512v-280c0 -34 3 -57.333 9 -70c10.667 -24.667 34.334 -37 71.001 -37c32.667 0 56 11.667 70 35c6.66699 18 10 42 10 72v164h352
v-140c0 -96.667 -28 -177.667 -84 -243c-73.333 -86 -189.333 -129 -348 -129c-151.333 0 -267.333 43 -348 129c-56 64 -84 145 -84 243zM431.999 987v-143h160v143c0 34.667 -2.66699 58 -8 70c-10.667 24.667 -34.667 37 -72 37c-35.333 0 -57 -9.66699 -65 -29
c-10 -18.667 -15 -44.667 -15 -78z" />
    <glyph glyph-name="f" unicode="f" horiz-adv-x="569" 
d="M22 1041l0.000976562 254h84v94c0 104.667 30 175 90 211c41.333 24.667 113.666 37 216.999 37h134v-230h-35c-44 0 -66 -21.667 -66 -65v-47h101v-254h-88v-1041h-353v1041h-84z" />
    <glyph glyph-name="g" unicode="g" 
d="M944 1309l0.00195312 -1155c0 -143.333 -33.333 -244.333 -100 -303c-68 -58.667 -177.333 -88 -328 -88c-108.667 0 -199.334 18.333 -272.001 55c-82 42 -130.333 116.333 -145 223h340c0 -27.333 6.66699 -47.666 20 -60.999c12 -15.333 31 -23 57 -23
c52 0 78 30 78 90v232l-4 4c-36.667 -104 -117.334 -156 -242.001 -156c-77.333 0 -141.333 28.667 -192 86s-76 132.666 -76 225.999v485c0 125.333 15.667 218.666 47 279.999c44 88 122 132 234 132c60 0 109 -15.333 147 -46c30 -21.333 60 -63.333 90 -126l4 145h342z
M432.002 973.001v-495.999c0 -31.333 6.33301 -55 19 -71c12 -12.667 29.667 -21 53 -25c26 0 48 15 66 45c14.667 34 22 81.333 22 142v340c0 55.333 -9 96 -27 122c-17.333 26 -37.666 39 -60.999 39c-20.667 0 -36.334 -5.33301 -47.001 -16
c-16.667 -16.667 -25 -43.334 -25 -80.001z" />
    <glyph glyph-name="h" unicode="h" 
d="M80 0l0.00195312 1637h352v-449c33.333 52 69.666 89.667 108.999 113s89.666 35 150.999 35c82 0 145 -26 189 -78c42 -52 63 -119.667 63 -203v-1055h-352v895c0 42.667 -2.66699 69.334 -8 80.001c-12.667 30 -36.667 45 -72 45c-32.667 0 -55.667 -17 -69 -51
c-7.33301 -23.333 -11 -48 -11 -74v-895h-352z" />
    <glyph glyph-name="i" unicode="i" horiz-adv-x="569" 
d="M108 0v1309h353v-1309h-353zM108 1395v242h353v-242h-353z" />
    <glyph glyph-name="j" unicode="j" horiz-adv-x="569" 
d="M109 94v1215h352v-1174c0 -116 -15.667 -200.667 -47 -254c-42.667 -70.667 -120.667 -106 -234 -106h-172v246l33 -4c23.333 0 40.333 5.33301 51 16c11.333 10.667 17 31 17 61zM109 1395v242h352v-242h-352z" />
    <glyph glyph-name="k" unicode="k" 
d="M641 0l-198 719l192 590h361l-205 -574l211 -735h-361zM80 0v1637h352v-1637h-352z" />
    <glyph glyph-name="l" unicode="l" horiz-adv-x="569" 
d="M108 0v1637h353v-1637h-353z" />
    <glyph glyph-name="m" unicode="m" horiz-adv-x="1593" 
d="M96 0l-0.000976562 1309h340v-162c35.333 58.667 72.333 105 111 139c43.333 33.333 99.333 50 168 50c61.333 0 113.666 -14.333 156.999 -43c44 -30.667 72.667 -79.334 86 -146.001c35.333 62.667 70.333 109 105 139c40.667 33.333 99.334 50 176.001 50
c83.333 0 147.333 -26 192 -78c44 -52 66 -119.667 66 -203v-1055h-352v879c0 43.333 -3.66699 72.666 -11 87.999c-12 35.333 -37 53 -75 53c-37.333 0 -62.666 -19.667 -75.999 -59c-4 -12.667 -6.66699 -23.667 -8 -33c-1.33301 -10.667 -2 -27 -2 -49v-879h-353v879
c0 43.333 -3.33301 72.666 -10 87.999c-12 35.333 -37.333 53 -76 53c-36.667 0 -61.667 -19.667 -75 -59c-4.66699 -12.667 -7.66699 -23.667 -9 -33c-1.33301 -10.667 -2 -27 -2 -49v-879h-352z" />
    <glyph glyph-name="n" unicode="n" 
d="M80 0v1309h340v-145c31.333 50 68.333 92 111 126c47.333 30.667 101 46 161 46c82 0 145 -26 189 -78c42 -52 63 -119.667 63 -203v-1055h-352v895c0 42.667 -2.66699 69.334 -8 80.001c-12.667 30 -36.667 45 -72 45c-32.667 0 -55.667 -17 -69 -51
c-7.33301 -23.333 -11 -48 -11 -74v-895h-352z" />
    <glyph glyph-name="o" unicode="o" 
d="M80 346v617c0 96.667 28 178 84 244c74 86 190 129 348 129c152 0 268 -43 348 -129c56 -64.667 84 -146 84 -244v-617c0 -96.667 -28 -177.667 -84 -243c-73.333 -86 -189.333 -129 -348 -129c-151.333 0 -267.333 43 -348 129c-56 64 -84 145 -84 243zM432 987
l-0.000976562 -665c0 -34 3 -57.333 9 -70c10.667 -24.667 34.334 -37 71.001 -37c32.667 0 56 11.667 70 35c6.66699 18 10 42 10 72v665c0 34.667 -2.66699 58 -8 70c-10.667 24.667 -34.667 37 -72 37c-35.333 0 -57 -9.66699 -65 -29c-10 -18.667 -15 -44.667 -15 -78z
" />
    <glyph glyph-name="p" unicode="p" 
d="M80 -225l-0.000976562 1534h352v-119c28.667 52 63 89.667 103 113c38 22 89 33 153 33c82 0 145.667 -28 191 -84c43.333 -57.333 65 -140 65 -248v-639c0 -124.667 -22.333 -221 -67 -289c-46.667 -68 -111.667 -102 -195 -102c-57.333 0 -107 13 -149 39
c-37.333 25.333 -69.666 64.666 -96.999 117.999l-4 -356h-352zM431.999 903.001v-450.001c0 -71.333 3.66699 -117.666 11 -138.999c12 -49.333 38.333 -74 79 -74c20.667 0 38 6.66699 52 20c12 12.667 18 34.667 18 66v663c0 24.667 -7.33301 44 -22 58
c-10 10.667 -26 18 -48 22c-30 0 -53 -17 -69 -51c-14 -36.667 -21 -75 -21 -115z" />
    <glyph glyph-name="q" unicode="q" 
d="M944 1309l-0.000976562 -1534h-352v356c-49.333 -104.667 -132.666 -157 -249.999 -157c-82 0 -146 35.333 -192 106c-46.667 70 -70 165 -70 285v639c0 102 22 183 66 243c42 59.333 105.333 89 190 89c116 0 200 -48.667 252 -146l4 119h352zM591.999 453v450.001v31
c0 14 -1.33301 26.333 -4 37c0 10.667 -4 25.667 -12 45c-15.333 35.333 -40 53 -74 53c-19.333 0 -35.833 -6.83301 -49.5 -20.5s-20.5 -33.5 -20.5 -59.5v-663c0 -27.333 6.33301 -49.333 19 -66c12 -10.667 29 -17.334 51 -20.001c40.667 0 68.667 34.667 84 104
c4 28.667 6 65 6 109z" />
    <glyph glyph-name="r" unicode="r" horiz-adv-x="682" 
d="M80 0v1309h334v-232c40.667 92 70 150.333 88 175c40.667 56 96.667 84 168 84v-426h-82c-52 0 -92.333 -15 -121 -45c-23.333 -30.667 -35 -71 -35 -121v-744h-352z" />
    <glyph glyph-name="s" unicode="s" horiz-adv-x="909" 
d="M49 326l0.00292969 86h316v-80c0 -44 8.66699 -75.333 26 -94c12.667 -15.333 34 -23 64 -23c52 0 78 32.333 78 97c0 48.667 -36.333 103 -109 163l-127 95c-87.333 65.333 -150 130.666 -188 195.999c-31.333 62.667 -47 127 -47 193
c0 118.667 35.333 211.334 106 278.001c70 66 165.667 99 287 99c128 0 225.667 -27.333 293 -82c65.333 -56 98 -143.667 98 -263v-69h-315v69c0 37.333 -6.33301 64 -19 80c-13.333 15.333 -32.333 23 -57 23c-52 0 -78 -29.333 -78 -88
c0 -38.667 26.667 -82.334 80 -131.001l162 -127c77.333 -57.333 132.666 -108.666 165.999 -153.999c50 -66.667 75 -145 75 -235c0 -128.667 -35.333 -225 -106 -289c-72.667 -64 -172.334 -96 -299.001 -96c-148.667 0 -255.334 31.333 -320.001 94
c-57.333 56 -86 142 -86 258z" />
    <glyph glyph-name="t" unicode="t" horiz-adv-x="569" 
d="M106 209v832h-88v254h88v284h353v-284h88v-254h-88v-701l6 -74c4 -17.333 17.667 -26 41 -26h45v-266h-170c-88.667 0 -153.667 13.667 -195 41c-53.333 35.333 -80 100 -80 194z" />
    <glyph glyph-name="u" unicode="u" 
d="M944 1309l0.000976562 -1309h-340v146c-35.333 -57.333 -73.333 -101 -114 -131c-42.667 -27.333 -95.334 -41 -158.001 -41c-82 0 -144 26.333 -186 79c-44 53.333 -66 120.333 -66 201v1055h352v-895c0 -42.667 3 -69.334 9 -80.001c12 -30 35.667 -45 71 -45
c32.667 0 56 17 70 51c6.66699 23.333 10 48 10 74v895h352z" />
    <glyph glyph-name="v" unicode="v" horiz-adv-x="909" 
d="M248 0l-238 1309h363l82 -838l92 838h352l-239 -1309h-412z" />
    <glyph glyph-name="w" unicode="w" horiz-adv-x="1478" 
d="M274 0l-256 1309h367l98 -920l98 920h330l80 -920l117 920h352l-252 -1309h-371l-100 871l-92 -871h-371z" />
    <glyph glyph-name="x" unicode="x" 
d="M24 0l295 678l-278 631h387l90 -346l96 346h375l-272 -631l282 -678h-385l-98 396l-113 -396h-379z" />
    <glyph glyph-name="y" unicode="y" horiz-adv-x="909" 
d="M109 -237v254.003h80c21.333 0 35.666 2.66699 42.999 8c6.66699 5.33301 12 18.333 16 39l-6 55c0 23.333 -1.33301 37.666 -4 42.999l-12 49l-216 1098h361l88 -920l94 920h346l-229 -1198l-12 -66c-4 -26 -9.66699 -45 -17 -57
c-16 -58.667 -42.667 -106.334 -80 -143.001c-28.667 -28.667 -66 -49.334 -112 -62.001c-20.667 -5.33301 -46 -10 -76 -14c-31.333 -4 -64.666 -6 -99.999 -6h-164z" />
    <glyph glyph-name="z" unicode="z" horiz-adv-x="909" 
d="M64 1030v279h794v-266l-428 -764h428v-279h-807v266l414 764h-401z" />
    <glyph glyph-name="braceleft" unicode="{" horiz-adv-x="682" 
d="M692 -225l-231.001 -0.00292969c-82 0 -147 23.333 -195 70c-54 54.667 -81 132.334 -81 233.001v373c0 52 -24.667 92.333 -74 121c-32.667 16 -73 24 -121 24v217c50.667 0 90.334 7.66699 119.001 23c50.667 26 76 67 76 123v372c0 102.667 26.333 179.334 79 230.001
c52 50.667 117.667 76 197 76h231v-205h-83c-45.333 0 -76.333 -15 -93 -45c-10.667 -19.333 -16 -48.666 -16 -87.999v-391c0 -70 -28 -122.667 -84 -158c-44 -27.333 -94.667 -41 -152 -41c59.333 0 109.333 -12.333 150 -37c57.333 -35.333 86 -96 86 -182v-377
c0 -41.333 5.33301 -70 16 -86c16.667 -31.333 47.667 -47 93 -47h83v-205z" />
    <glyph glyph-name="bar" unicode="|" horiz-adv-x="454" 
d="M82 -26v1689h291v-1689h-291z" />
    <glyph glyph-name="braceright" unicode="}" horiz-adv-x="682" 
d="M-10 -225l0.000976562 205h86c45.333 0 76 15 92 45c11.333 18.667 17 48 17 88v377c0 86 28 146 84 180c38 23.333 88.333 35 151 35c-32.667 0 -59.334 3.33301 -80.001 10c-22 6.66699 -45 17.667 -69 33c-57.333 36.667 -86 90 -86 160v391
c0 40.667 -5.66699 69.334 -17 86.001c-16 31.333 -46.667 47 -92 47h-86v205h233c82 0 147 -23.333 195 -70c54.667 -54.667 82 -133.334 82 -236.001v-372c0 -52 24.667 -92.333 74 -121c32.667 -16.667 72 -25 118 -25v-217c-50 0 -89.333 -7.33301 -118 -22
c-49.333 -24.667 -74 -65.667 -74 -123v-373c0 -104 -25.333 -180.333 -76 -229c-52 -49.333 -119 -74 -201 -74h-233z" />
    <glyph glyph-name="asciitilde" unicode="~" horiz-adv-x="1229" 
d="M1014 891l73 -266.002c-40.667 -57.333 -74.667 -97.666 -102 -120.999c-45.333 -36.667 -96.666 -55 -153.999 -55l-65 6c-14 2.66699 -25.667 6 -35 10c-10.667 2.66699 -21.667 6.66699 -33 12l-76 39l-133 60l-49 12l-53 4c-35.333 0 -71 -16.333 -107 -49
c-20 -20.667 -41.667 -54.667 -65 -102l-74 266c23.333 46 54 86.333 92 121c45.333 36.667 100 55 164 55c32.667 0 69.667 -6 111 -18c9.33301 -3.33301 18 -5.66602 26 -6.99902c7.33301 -2.66699 19 -8 35 -16l55 -25l115 -53c39.333 -16 70.666 -24 93.999 -24
c42.667 0 83.667 23.667 123 71z" />
    <glyph glyph-name="dieresis" unicode="&#xa8;" 
 />
    <glyph glyph-name="copyright" unicode="&#xa9;" horiz-adv-x="1772" 
 />
    <glyph glyph-name="registered" unicode="&#xae;" horiz-adv-x="1770" 
d="M840 1462c101.333 0 198.334 -20.167 291.001 -60.5s173.667 -96.833 243 -169.5c66 -68 116.833 -147.167 152.5 -237.5s53.5 -182.5 53.5 -276.5c0 -94.667 -17.833 -186.5 -53.5 -275.5s-87.834 -168.833 -156.501 -239.5c-70 -73.333 -151 -129.5 -243 -168.5
s-190 -58.5 -294 -58.5c-102 0 -198.333 19.833 -289 59.5s-171.334 96.167 -242.001 169.5c-68.667 70 -120.5 149 -155.5 237s-52.5 180 -52.5 276c0 95.333 17.5 187.5 52.5 276.5s86.167 168.167 153.5 237.5c68 72.667 148.833 129.167 242.5 169.5
s192.834 60.5 297.501 60.5zM361.001 1193c-57.333 -56 -104.169 -125.668 -140.502 -209.001s-54.5 -172 -54.5 -266c0 -94.667 18.167 -183.167 54.5 -265.5s87.833 -155.5 154.5 -219.5c65.333 -60.667 136.833 -106.667 214.5 -138s159.167 -47 244.5 -47
c86.667 0 169.334 15.5 248.001 46.5s150.334 76.5 215.001 136.5c66.667 64.667 118.5 138.667 155.5 222s55.5 171.666 55.5 264.999c0 92.667 -18.5 181.334 -55.5 266.001s-87.5 158 -151.5 220c-64 60.667 -135.833 106.834 -215.5 138.501
s-161.834 47.5 -246.501 47.5c-86.667 0 -170.167 -15.833 -250.5 -47.5s-156.166 -81.5 -227.499 -149.5zM657.998 808.999l250 -0.00195312c72 0.666992 109 33.334 111 98.001c-2 58.667 -38.333 89.334 -109 92.001h-252v-190zM1017 661.997l223 -390.001h-205l-215 370
h-162v-370h-179v894h390c208.667 0 313 -85.667 313 -257c0 -129.333 -55 -211.666 -165 -246.999z" />
    <glyph glyph-name="acute" unicode="&#xb4;" 
 />
    <glyph glyph-name="paragraph" unicode="&#xb6;" 
d="M929 1435l-0.000976562 -70h-127v-1365h-82v1365h-166v-1365h-84v738c-116 5.33301 -207.833 39.5 -275.5 102.5s-101.5 144.833 -101.5 245.5c0 104.667 35.833 189 107.5 253s166.834 96 285.501 96h443z" />
    <glyph glyph-name="onequarter" unicode="&#xbc;" horiz-adv-x="1780" 
 />
    <glyph glyph-name="onehalf" unicode="&#xbd;" horiz-adv-x="1780" 
 />
    <glyph glyph-name="threequarters" unicode="&#xbe;" horiz-adv-x="1780" 
 />
    <glyph glyph-name="Agrave" unicode="&#xc0;" horiz-adv-x="1138" 
d="M317 1639h500l309 -1639h-397l-35 291h-264l-39 -291h-377zM614 2015l90 -278h-190l-223 278h323zM469 582h188l-88 803z" />
    <glyph glyph-name="Aacute" unicode="&#xc1;" horiz-adv-x="1138" 
d="M317 1639h500l309 -1639h-397l-35 291h-264l-39 -291h-377zM530 2015h318l-217 -278h-197zM469 582h188l-88 803z" />
    <glyph glyph-name="Acircumflex" unicode="&#xc2;" horiz-adv-x="1138" 
d="M317 1639h500l309 -1639h-397l-35 291h-264l-39 -291h-377zM266 1737l170 278h289l147 -278h-213l-90 156l-102 -156h-201zM469 582h188l-88 803z" />
    <glyph glyph-name="Atilde" unicode="&#xc3;" horiz-adv-x="1138" 
d="M317 1639h500l309 -1639h-397l-35 291h-264l-39 -291h-377zM903 1964c-27.333 -66.667 -55.335 -114.333 -84.002 -143c-39.333 -41.333 -89.333 -62 -150 -62c-35.333 0 -77.666 11.667 -126.999 35c-48.667 22 -84.667 33 -108 33c-15.333 0 -35 -8.33301 -59 -25
c-3.33301 -2.66699 -9 -8.66699 -17 -18l-24 -31l-99 37c10 26 18.333 46.667 25 62c13.333 30 29 54.333 47 73c38 46.667 81.667 70 131 70c36.667 0 82.334 -10.333 137.001 -31c53.333 -21.333 93 -34.333 119 -39c26 0 48.5 7.5 67.5 22.5s33.5 34.833 43.5 59.5z
M468.998 582.001h188l-88 803z" />
    <glyph glyph-name="Egrave" unicode="&#xc8;" 
d="M84 1639h838v-316h-461v-327h404v-316h-404v-364h479v-316h-856v1639zM557 2015l90 -278h-190l-223 278h323z" />
    <glyph glyph-name="Eacute" unicode="&#xc9;" 
d="M84 1639h838v-316h-461v-327h404v-316h-404v-364h479v-316h-856v1639zM473 2015h318l-217 -278h-197z" />
    <glyph glyph-name="Ecircumflex" unicode="&#xca;" 
d="M84 1639h838v-316h-461v-327h404v-316h-404v-364h479v-316h-856v1639zM209 1737l170 278h289l147 -278h-213l-90 156l-102 -156h-201z" />
    <glyph glyph-name="Igrave" unicode="&#xcc;" horiz-adv-x="569" 
d="M97 1639h376v-1639h-376v1639zM330 2015l90 -278h-190l-224 278h324z" />
    <glyph glyph-name="Iacute" unicode="&#xcd;" horiz-adv-x="569" 
d="M96 1639h377v-1639h-377v1639zM246 2015h317l-217 -278h-197z" />
    <glyph glyph-name="Ograve" unicode="&#xd2;" horiz-adv-x="1138" 
d="M84 1192c0 154.667 45.667 273.667 137 357c86 77.333 202.333 116 349 116c144.667 0 262 -39.667 352 -119c90 -80 135 -198 135 -354v-745c0 -143.333 -43.667 -258 -131 -344s-206 -129 -356 -129c-148 0 -265.667 42.333 -353 127c-88.667 84.667 -133 200 -133 346
v745zM686 2073l90 -279h-190l-223 279h323zM461 414c0 -49.333 8.33301 -87.667 25 -115c16 -23.333 44 -35 84 -35c44.667 0 76 19.333 94 58c9.33301 28.667 14 59.334 14 92.001v811c0 39.333 -4 70.666 -12 93.999c-16.667 36.667 -48.667 55 -96 55
c-45.333 0 -77 -17.667 -95 -53c-9.33301 -28.667 -14 -60.667 -14 -96v-811z" />
    <glyph glyph-name="Oacute" unicode="&#xd3;" horiz-adv-x="1138" 
d="M84 1192c0 154.667 45.667 273.667 137 357c86 77.333 202.333 116 349 116c144.667 0 262 -39.667 352 -119c90 -80 135 -198 135 -354v-745c0 -143.333 -43.667 -258 -131 -344s-206 -129 -356 -129c-148 0 -265.667 42.333 -353 127c-88.667 84.667 -133 200 -133 346
v745zM531 2015h317l-217 -278h-197zM461 414c0 -49.333 8.33301 -87.667 25 -115c16 -23.333 44 -35 84 -35c44.667 0 76 19.333 94 58c9.33301 28.667 14 59.334 14 92.001v811c0 39.333 -4 70.666 -12 93.999c-16.667 36.667 -48.667 55 -96 55
c-45.333 0 -77 -17.667 -95 -53c-9.33301 -28.667 -14 -60.667 -14 -96v-811z" />
    <glyph glyph-name="Ocircumflex" unicode="&#xd4;" horiz-adv-x="1138" 
d="M84 1192c0 154.667 45.667 273.667 137 357c86 77.333 202.333 116 349 116c144.667 0 262 -39.667 352 -119c90 -80 135 -198 135 -354v-745c0 -143.333 -43.667 -258 -131 -344s-206 -129 -356 -129c-148 0 -265.667 42.333 -353 127c-88.667 84.667 -133 200 -133 346
v745zM266 1737l170 278h289l148 -278h-213l-90 156l-103 -156h-201zM461 414c0 -49.333 8.33301 -87.667 25 -115c16 -23.333 44 -35 84 -35c44.667 0 76 19.333 94 58c9.33301 28.667 14 59.334 14 92.001v811c0 39.333 -4 70.666 -12 93.999
c-16.667 36.667 -48.667 55 -96 55c-45.333 0 -77 -17.667 -95 -53c-9.33301 -28.667 -14 -60.667 -14 -96v-811z" />
    <glyph glyph-name="Otilde" unicode="&#xd5;" horiz-adv-x="1138" 
d="M84 1192c0 154.667 45.667 273.667 137 357c86 77.333 202.333 116 349 116c144.667 0 262 -39.667 352 -119c90 -80 135 -198 135 -354v-745c0 -143.333 -43.667 -258 -131 -344s-206 -129 -356 -129c-148 0 -265.667 42.333 -353 127c-88.667 84.667 -133 200 -133 346
v745zM903 1964c-27.333 -66.667 -55.333 -114.333 -84 -143c-39.333 -41.333 -89 -62 -149 -62c-35.333 0 -77.666 11.667 -126.999 35c-49.333 22 -85.666 33 -108.999 33c-14.667 0 -34.334 -8.33301 -59.001 -25c-2.66699 -2.66699 -8 -8.66699 -16 -18l-25 -31l-98 37
c9.33301 26 17.333 46.667 24 62c14 30 29.667 54.333 47 73c38.667 46.667 82.667 70 132 70c36.667 0 82.334 -10.333 137.001 -31c53.333 -21.333 93 -34.333 119 -39c25.333 0 47.666 7.5 66.999 22.5s33.666 34.833 42.999 59.5zM461 414.001
c0 -49.333 8.33301 -87.667 25 -115c16 -23.333 44 -35 84 -35c44.667 0 76 19.333 94 58c9.33301 28.667 14 59.334 14 92.001v811c0 39.333 -4 70.666 -12 93.999c-16.667 36.667 -48.667 55 -96 55c-45.333 0 -77 -17.667 -95 -53c-9.33301 -28.667 -14 -60.667 -14 -96
v-811z" />
    <glyph glyph-name="Ugrave" unicode="&#xd9;" horiz-adv-x="1138" 
d="M84 1639l377.001 -0.000976562v-1196c0 -57.333 5.33301 -99 16 -125c10 -27.333 41 -41 93 -41c35.333 0 62.666 10.667 81.999 32c17.333 20.667 26 65.334 26 134.001v1196h379v-1192c0 -143.333 -43.667 -258 -131 -344s-206 -129 -356 -129
c-148 0 -265.667 42.333 -353 127c-88.667 84.667 -133 200 -133 346v1192zM615.001 2015l90 -278h-191l-223 278h324z" />
    <glyph glyph-name="Uacute" unicode="&#xda;" horiz-adv-x="1138" 
d="M84 1639l377.001 -0.000976562v-1196c0 -57.333 5.33301 -99 16 -125c10 -27.333 41 -41 93 -41c35.333 0 62.666 10.667 81.999 32c17.333 20.667 26 65.334 26 134.001v1196h379v-1192c0 -143.333 -43.667 -258 -131 -344s-206 -129 -356 -129
c-148 0 -265.667 42.333 -353 127c-88.667 84.667 -133 200 -133 346v1192zM531.001 2015h317l-217 -278h-197z" />
    <glyph glyph-name="Yacute" unicode="&#xdd;" 
d="M16 1639h389l105 -553l114 553h383l-307 -965v-674h-377v647zM473 2015h317l-217 -278h-196z" />
    <glyph glyph-name="agrave" unicode="&#xe0;" 
d="M944 0l-323 0.000976562v101c-61.333 -84.667 -146 -127 -254 -127c-116 0 -196 40 -240 120c-31.333 59.333 -47 152.333 -47 279c0 110.667 28 198 84 262c39.333 46.667 100 87.667 182 123c104 40.667 163.667 68 179 82c52.667 35.333 79 83.666 79 144.999
c0 34.667 -5.33301 62 -16 82c-12 19.333 -34 29 -66 29c-60 0 -90 -30.667 -90 -92v-107h-327v119c0 96.667 38.667 174.667 116 234c78 58.667 177 88 297 88c156 0 266 -32.333 330 -97c64 -64 96 -169 96 -315v-926zM557 1688l90 -279h-190l-223 279h323zM604 658.001
l-98.001 -72c-40.667 -31.333 -61 -70.333 -61 -117v-174c0 -69.333 25.667 -104 77 -104c24.667 0 45.334 10 62.001 30c13.333 24.667 20 52.667 20 84v353z" />
    <glyph glyph-name="aacute" unicode="&#xe1;" 
d="M944 0l-323 0.000976562v101c-61.333 -84.667 -146 -127 -254 -127c-116 0 -196 40 -240 120c-31.333 59.333 -47 152.333 -47 279c0 110.667 28 198 84 262c39.333 46.667 100 87.667 182 123c104 40.667 163.667 68 179 82c52.667 35.333 79 83.666 79 144.999
c0 34.667 -5.33301 62 -16 82c-12 19.333 -34 29 -66 29c-60 0 -90 -30.667 -90 -92v-107h-327v119c0 96.667 38.667 174.667 116 234c78 58.667 177 88 297 88c156 0 266 -32.333 330 -97c64 -64 96 -169 96 -315v-926zM473 1688h318l-217 -279h-197zM604 658.001
l-98.001 -72c-40.667 -31.333 -61 -70.333 -61 -117v-174c0 -69.333 25.667 -104 77 -104c24.667 0 45.334 10 62.001 30c13.333 24.667 20 52.667 20 84v353z" />
    <glyph glyph-name="acircumflex" unicode="&#xe2;" 
d="M944 0l-323 0.000976562v101c-61.333 -84.667 -146 -127 -254 -127c-116 0 -196 40 -240 120c-31.333 59.333 -47 152.333 -47 279c0 110.667 28 198 84 262c39.333 46.667 100 87.667 182 123c104 40.667 163.667 68 179 82c52.667 35.333 79 83.666 79 144.999
c0 34.667 -5.33301 62 -16 82c-12 19.333 -34 29 -66 29c-60 0 -90 -30.667 -90 -92v-107h-327v119c0 96.667 38.667 174.667 116 234c78 58.667 177 88 297 88c156 0 266 -32.333 330 -97c64 -64 96 -169 96 -315v-926zM209 1409l170 279h289l147 -279h-213l-90 156
l-102 -156h-201zM604 658.001l-98.001 -72c-40.667 -31.333 -61 -70.333 -61 -117v-174c0 -69.333 25.667 -104 77 -104c24.667 0 45.334 10 62.001 30c13.333 24.667 20 52.667 20 84v353z" />
    <glyph glyph-name="atilde" unicode="&#xe3;" 
d="M944 0l-323 0.000976562v101c-61.333 -84.667 -146 -127 -254 -127c-116 0 -196 40 -240 120c-31.333 59.333 -47 152.333 -47 279c0 110.667 28 198 84 262c39.333 46.667 100 87.667 182 123c104 40.667 163.667 68 179 82c52.667 35.333 79 83.666 79 144.999
c0 34.667 -5.33301 62 -16 82c-12 19.333 -34 29 -66 29c-60 0 -90 -30.667 -90 -92v-107h-327v119c0 96.667 38.667 174.667 116 234c78 58.667 177 88 297 88c156 0 266 -32.333 330 -97c64 -64 96 -169 96 -315v-926zM604 658.001l-98.001 -72
c-40.667 -31.333 -61 -70.333 -61 -117v-174c0 -69.333 25.667 -104 77 -104c24.667 0 45.334 10 62.001 30c13.333 24.667 20 52.667 20 84v353zM866.999 1637c-27.333 -67.333 -55.335 -115.332 -84.002 -143.999c-40 -40.667 -90 -61 -150 -61
c-35.333 0 -77.666 11.667 -126.999 35c-49.333 21.333 -85.333 32 -108 32c-15.333 0 -35.333 -8 -60 -24c-2.66699 -2.66699 -8 -9 -16 -19l-25 -30l-98 37c9.33301 25.333 17.333 45.666 24 60.999c14 30 30 54.667 48 74c38 46 81.667 69 131 69
c36.667 0 82.334 -10 137.001 -30c53.333 -22 93 -35 119 -39c26 0 48.5 7.5 67.5 22.5s33.167 34.833 42.5 59.5z" />
    <glyph glyph-name="egrave" unicode="&#xe8;" 
d="M80 963c0 99.333 27.999 181.333 83.999 246c74 86 190 129 348 129c152 0 268 -43 348 -129c56 -64.667 84 -146.667 84 -246v-361h-512v-280c0 -34 3 -57.333 9 -70c10.667 -24.667 34.334 -37 71.001 -37c32.667 0 56 11.667 70 35c6.66699 18 10 42 10 72v164h352
v-140c0 -96.667 -28 -177.667 -84 -243c-73.333 -86 -189.333 -129 -348 -129c-151.333 0 -267.333 43 -348 129c-56 64 -84 145 -84 243v617zM585.999 1731l90 -279h-190l-224 279h324zM431.999 844h160v143c0 34.667 -2.66699 58 -8 70c-14 26 -38 39 -72 39
c-31.333 0 -53 -10.333 -65 -31c-10 -22 -15 -48 -15 -78v-143z" />
    <glyph glyph-name="eacute" unicode="&#xe9;" 
d="M80 963c0 99.333 27.999 181.333 83.999 246c74 86 190 129 348 129c152 0 268 -43 348 -129c56 -64.667 84 -146.667 84 -246v-361h-512v-280c0 -34 3 -57.333 9 -70c10.667 -24.667 34.334 -37 71.001 -37c32.667 0 56 11.667 70 35c6.66699 18 10 42 10 72v164h352
v-140c0 -96.667 -28 -177.667 -84 -243c-73.333 -86 -189.333 -129 -348 -129c-151.333 0 -267.333 43 -348 129c-56 64 -84 145 -84 243v617zM472.999 1688h318l-217 -279h-197zM431.999 844h160v143c0 34.667 -2.66699 58 -8 70c-14 26 -38 39 -72 39
c-31.333 0 -53 -10.333 -65 -31c-10 -22 -15 -48 -15 -78v-143z" />
    <glyph glyph-name="ecircumflex" unicode="&#xea;" 
d="M80 963c0 99.333 27.999 181.333 83.999 246c74 86 190 129 348 129c152 0 268 -43 348 -129c56 -64.667 84 -146.667 84 -246v-361h-512v-280c0 -34 3 -57.333 9 -70c10.667 -24.667 34.334 -37 71.001 -37c32.667 0 56 11.667 70 35c6.66699 18 10 42 10 72v164h352
v-140c0 -96.667 -28 -177.667 -84 -243c-73.333 -86 -189.333 -129 -348 -129c-151.333 0 -267.333 43 -348 129c-56 64 -84 145 -84 243v617zM208.999 1409l170 279h289l147 -279h-213l-90 156l-102 -156h-201zM431.999 844h160v143c0 34.667 -2.66699 58 -8 70
c-14 26 -38 39 -72 39c-31.333 0 -53 -10.333 -65 -31c-10 -22 -15 -48 -15 -78v-143z" />
    <glyph glyph-name="igrave" unicode="&#xec;" horiz-adv-x="569" 
d="M109 0v1311h352v-1311h-352zM330 1688l90 -279h-190l-224 279h324z" />
    <glyph glyph-name="iacute" unicode="&#xed;" horiz-adv-x="569" 
d="M108 0v1311h353v-1311h-353zM246 1688h317l-217 -279h-197z" />
    <glyph glyph-name="ograve" unicode="&#xf2;" 
d="M80 963c0 99.333 28 181.333 84 246c74 86 190 129 348 129c152 0 268 -43 348 -129c56 -64.667 84 -146.667 84 -246v-617c0 -96.667 -28 -177.667 -84 -243c-73.333 -86 -189.333 -129 -348 -129c-151.333 0 -267.333 43 -348 129c-56 64 -84 145 -84 243v617z
M557 1688l90 -279h-190l-223 279h323zM432 322c0 -34 2.99902 -57.333 8.99902 -70c10.667 -24.667 34.334 -37 71.001 -37c32.667 0 56 11.667 70 35c6.66699 18 10 42 10 72v665c0 34.667 -2.66699 58 -8 70c-14 26 -38 39 -72 39c-31.333 0 -53 -10.333 -65 -31
c-10 -22 -15 -48 -15 -78v-665z" />
    <glyph glyph-name="oacute" unicode="&#xf3;" 
d="M80 963c0 99.333 28 181.333 84 246c74 86 190 129 348 129c152 0 268 -43 348 -129c56 -64.667 84 -146.667 84 -246v-617c0 -96.667 -28 -177.667 -84 -243c-73.333 -86 -189.333 -129 -348 -129c-151.333 0 -267.333 43 -348 129c-56 64 -84 145 -84 243v617z
M473 1688h318l-217 -279h-197zM432 322c0 -34 2.99902 -57.333 8.99902 -70c10.667 -24.667 34.334 -37 71.001 -37c32.667 0 56 11.667 70 35c6.66699 18 10 42 10 72v665c0 34.667 -2.66699 58 -8 70c-14 26 -38 39 -72 39c-31.333 0 -53 -10.333 -65 -31
c-10 -22 -15 -48 -15 -78v-665z" />
    <glyph glyph-name="ocircumflex" unicode="&#xf4;" 
d="M80 963c0 99.333 28 181.333 84 246c74 86 190 129 348 129c152 0 268 -43 348 -129c56 -64.667 84 -146.667 84 -246v-617c0 -96.667 -28 -177.667 -84 -243c-73.333 -86 -189.333 -129 -348 -129c-151.333 0 -267.333 43 -348 129c-56 64 -84 145 -84 243v617z
M209 1409l170 279h289l147 -279h-213l-90 156l-102 -156h-201zM432 322c0 -34 2.99902 -57.333 8.99902 -70c10.667 -24.667 34.334 -37 71.001 -37c32.667 0 56 11.667 70 35c6.66699 18 10 42 10 72v665c0 34.667 -2.66699 58 -8 70c-14 26 -38 39 -72 39
c-31.333 0 -53 -10.333 -65 -31c-10 -22 -15 -48 -15 -78v-665z" />
    <glyph glyph-name="otilde" unicode="&#xf5;" 
d="M80 963c0 99.333 28 181.333 84 246c74 86 190 129 348 129c152 0 268 -43 348 -129c56 -64.667 84 -146.667 84 -246v-617c0 -96.667 -28 -177.667 -84 -243c-73.333 -86 -189.333 -129 -348 -129c-151.333 0 -267.333 43 -348 129c-56 64 -84 145 -84 243v617zM432 322
c0 -34 2.99902 -57.333 8.99902 -70c10.667 -24.667 34.334 -37 71.001 -37c32.667 0 56 11.667 70 35c6.66699 18 10 42 10 72v665c0 34.667 -2.66699 58 -8 70c-14 26 -38 39 -72 39c-31.333 0 -53 -10.333 -65 -31c-10 -22 -15 -48 -15 -78v-665zM845.999 1636
c-27.333 -67.333 -55.335 -115.332 -84.002 -143.999c-40 -40.667 -90 -61 -150 -61c-35.333 0 -77.666 11.667 -126.999 35c-49.333 21.333 -85.333 32 -108 32c-15.333 0 -35.333 -8 -60 -24c-2.66699 -2.66699 -8 -9 -16 -19l-25 -30l-98 37
c9.33301 25.333 17.333 45.666 24 60.999c14 30 30 54.667 48 74c38 46 81.667 69 131 69c36.667 0 82.334 -10 137.001 -30c53.333 -22 93 -35 119 -39c26 0 48.5 7.5 67.5 22.5s33.167 34.833 42.5 59.5z" />
    <glyph glyph-name="divide" unicode="&#xf7;" horiz-adv-x="1706" 
 />
    <glyph glyph-name="glyph216" unicode="&#xf9;" 
d="M944 0l-339.999 0.000976562v146c-35.333 -57.333 -73.333 -101 -114 -131c-42.667 -27.333 -95.334 -41 -158.001 -41c-82 0 -144 26.333 -186 79c-44 53.333 -66 120.333 -66 201v1057h352v-897c0 -42.667 3 -69.334 9 -80.001c12 -30 35.667 -45 71 -45
c32.667 0 56 17 70 51c6.66699 23.333 10 48 10 74v897h352v-1311zM557.001 1688l90 -279h-190l-223 279h323z" />
    <glyph glyph-name="glyph217" unicode="&#xfa;" 
d="M944 0l-339.999 0.000976562v146c-35.333 -57.333 -73.333 -101 -114 -131c-42.667 -27.333 -95.334 -41 -158.001 -41c-82 0 -144 26.333 -186 79c-44 53.333 -66 120.333 -66 201v1057h352v-897c0 -42.667 3 -69.334 9 -80.001c12 -30 35.667 -45 71 -45
c32.667 0 56 17 70 51c6.66699 23.333 10 48 10 74v897h352v-1311zM473.001 1688h318l-217 -279h-197z" />
    <glyph glyph-name="glyph234" unicode="&#xfd;" horiz-adv-x="909" 
d="M109 17l80 0.00292969c21.333 0 35.666 2.66699 42.999 8c6.66699 5.33301 12 18.333 16 39l-6 55c0 23.333 -1.33301 37.666 -4 42.999l-12 49l-216 1100h361l88 -922l94 922h346l-229 -1200l-12 -66c-4 -26 -9.66699 -45 -17 -57
c-16 -58.667 -42.667 -106.334 -80 -143.001c-28.667 -28.667 -66 -49.334 -112 -62.001c-20.667 -5.33301 -46 -10 -76 -14c-31.333 -4 -64.666 -6 -99.999 -6h-164v254zM416 1688h317l-217 -279h-196z" />
    <glyph glyph-name="Abreve" unicode="&#x102;" horiz-adv-x="1138" 
d="M317 1639h500l309 -1639h-397l-35 291h-264l-39 -291h-377zM469 582h188l-88 803zM424 2013c0 -40.667 13.666 -72.667 40.999 -96c27.333 -20.667 64 -31 110 -31c48 0 83.667 9 107 27c22 18 37 51.333 45 100h155c0 -92.667 -28 -163 -84 -211
c-55.333 -47.333 -129.666 -71 -222.999 -71c-96.667 0 -171.667 22.333 -225 67c-54.667 45.333 -82 117 -82 215h156z" />
    <glyph glyph-name="abreve" unicode="&#x103;" 
d="M944 0l-323 0.000976562v101c-61.333 -84.667 -146 -127 -254 -127c-116 0 -196 40 -240 120c-31.333 59.333 -47 152.333 -47 279c0 110.667 28 198 84 262c39.333 46.667 100 87.667 182 123c104 40.667 163.667 68 179 82c52.667 35.333 79 83.666 79 144.999
c0 34.667 -5.33301 62 -16 82c-12 19.333 -34 29 -66 29c-60 0 -90 -30.667 -90 -92v-107h-327v119c0 96.667 38.667 174.667 116 234c78 58.667 177 88 297 88c156 0 266 -32.333 330 -97c64 -64 96 -169 96 -315v-926zM604 658.001l-98.001 -72
c-40.667 -31.333 -61 -70.333 -61 -117v-174c0 -69.333 25.667 -104 77 -104c24.667 0 45.334 10 62.001 30c13.333 24.667 20 52.667 20 84v353zM372.999 1706c0 -40.667 13.667 -72.666 41 -95.999c27.333 -20.667 64.333 -31 111 -31c47.333 0 82.666 9 105.999 27
c22 18 37 51.333 45 100h156c0 -92.667 -28 -162.834 -84 -210.501s-130.333 -71.5 -223 -71.5c-97.333 0 -172.666 22.333 -225.999 67c-54.667 45.333 -82 117 -82 215h156z" />
    <glyph glyph-name="Ccaron" unicode="&#x10c;" horiz-adv-x="1274" 
 />
    <glyph glyph-name="ccaron" unicode="&#x10d;" horiz-adv-x="922" 
 />
    <glyph glyph-name="Dslash" unicode="&#x110;" horiz-adv-x="1138" 
d="M84 750h-78v254h78v635h561c150.667 0 259.334 -41.667 326.001 -125c57.333 -70 86 -174.667 86 -314v-780c0 -139.333 -43.667 -246.333 -131 -321c-76.667 -66 -170.334 -99 -281.001 -99h-561v750zM461 1004h115v-254h-115v-471h68c44.667 0 80.667 11.667 108 35
c27.333 21.333 41 50 41 86v821c0 92.667 -52.667 139 -158 139h-59v-356z" />
    <glyph glyph-name="dcroat" unicode="&#x111;" 
d="M592 903c0 50.667 -5.33301 89.001 -16 115.001c-15.333 35.333 -40 53 -74 53c-19.333 0 -35.833 -6.83301 -49.5 -20.5s-20.5 -34.167 -20.5 -61.5v-663c0 -27.333 6.33301 -49.333 19 -66c12 -10.667 29 -17.334 51 -20.001c40.667 0 68.667 34.667 84 104
c4 28.667 6 65 6 109v450zM592 1544l-0.000976562 95h352v-95h82l2 -98h-82l-2 -1446h-352v131c-49.333 -104.667 -132.666 -157 -249.999 -157c-82 0 -146 35.333 -192 106c-46.667 70 -70 165 -70 285v639c0 222.667 85.333 334 256 334c116 0 200 -48.667 252 -146l2 250
h-250l-2 102h254z" />
    <glyph glyph-name="Itilde" unicode="&#x128;" horiz-adv-x="569" 
d="M97 1639h376v-1639h-376v1639zM617 1964c-27.333 -66.667 -55.333 -114.334 -84 -143.001c-40 -41.333 -90 -62 -150 -62c-35.333 0 -77.666 11.667 -126.999 35c-48.667 22 -84.667 33 -108 33c-15.333 0 -35.333 -8.33301 -60 -25
c-2.66699 -2.66699 -8 -8.66699 -16 -18c-8 -10.667 -16.333 -21 -25 -31l-98 37c9.33301 26 17.666 46.667 24.999 62c13.333 30 29 54.333 47 73c38 46.667 81.667 70 131 70c36.667 0 82.334 -10.333 137.001 -31c53.333 -21.333 93 -34.333 119 -39
c26 0 48.333 7.66699 67 23c19.333 14.667 33.666 34.334 42.999 59.001z" />
    <glyph glyph-name="itilde" unicode="&#x129;" horiz-adv-x="569" 
d="M109 1311h352v-1311h-352v1311zM625 1636c-27.333 -67.333 -55.335 -115.332 -84.002 -143.999c-40 -40.667 -90 -61 -150 -61c-35.333 0 -77.666 11.667 -126.999 35c-49.333 21.333 -85.333 32 -108 32c-15.333 0 -35.333 -8 -60 -24c-2.66699 -2.66699 -8 -9 -16 -19
l-25 -30l-98 37c9.33301 25.333 17.333 45.666 24 60.999c14 30 30 54.667 48 74c38 46 81.667 69 131 69c36.667 0 82.334 -10 137.001 -30c53.333 -22 93 -35 119 -39c26 0 48.5 7.5 67.5 22.5s33.167 34.833 42.5 59.5z" />
    <glyph glyph-name="Utilde" unicode="&#x168;" horiz-adv-x="1138" 
d="M84 1639l377.001 -0.000976562v-1196c0 -57.333 5.33301 -99 16 -125c10 -27.333 41 -41 93 -41c35.333 0 62.666 10.667 81.999 32c17.333 20.667 26 65.334 26 134.001v1196h379v-1192c0 -143.333 -43.667 -258 -131 -344s-206 -129 -356 -129
c-148 0 -265.667 42.333 -353 127c-88.667 84.667 -133 200 -133 346v1192zM936.001 1964c-27.333 -66.667 -55.332 -114.334 -83.999 -143.001c-39.333 -41.333 -89 -62 -149 -62c-36 0 -78.333 11.667 -127 35c-49.333 22 -85.666 33 -108.999 33
c-14.667 0 -34.334 -8.33301 -59.001 -25c-2.66699 -2.66699 -8.33398 -8.66699 -17.001 -18l-24 -31l-98 37c9.33301 26 17.333 46.667 24 62c14 30 29.667 54.333 47 73c38.667 46.667 82.334 70 131.001 70c37.333 0 83.333 -10.333 138 -31
c52.667 -21.333 92 -34.333 118 -39c26 0 48.667 7.66699 68 23c19.333 14.667 33.666 34.334 42.999 59.001z" />
    <glyph glyph-name="utilde" unicode="&#x169;" 
d="M944 0l-339.999 0.000976562v146c-35.333 -57.333 -73.333 -101 -114 -131c-42.667 -27.333 -95.334 -41 -158.001 -41c-82 0 -144 26.333 -186 79c-44 53.333 -66 120.333 -66 201v1057h352v-897c0 -42.667 3 -69.334 9 -80.001c12 -30 35.667 -45 71 -45
c32.667 0 56 17 70 51c6.66699 23.333 10 48 10 74v897h352v-1311zM867.001 1637c-27.333 -67.333 -55.335 -115.332 -84.002 -143.999c-40 -40.667 -90 -61 -150 -61c-35.333 0 -77.666 11.667 -126.999 35c-49.333 21.333 -85.333 32 -108 32
c-15.333 0 -35.333 -8 -60 -24c-2.66699 -2.66699 -8 -9 -16 -19l-25 -30l-98 37c9.33301 25.333 17.333 45.666 24 60.999c14 30 30 54.667 48 74c38 46 81.667 69 131 69c36.667 0 82.334 -10 137.001 -30c53.333 -22 93 -35 119 -39c26 0 48.5 7.5 67.5 22.5
s33.167 34.833 42.5 59.5z" />
    <glyph glyph-name="Ohorn" unicode="&#x1a0;" horiz-adv-x="1138" 
d="M461 414c0 -49.333 8.33301 -87.667 25 -115c16 -23.333 44 -35 84 -35c44.667 0 76 19.333 94 58c9.33301 28.667 14 59.334 14 92.001v811c0 39.333 -4 70.666 -12 93.999c-16.667 36.667 -48.667 55 -96 55c-45.333 0 -77 -17.667 -95 -53
c-9.33301 -28.667 -14 -60.667 -14 -96v-811zM1014 1420c28.667 -64 43 -140 43 -228v-745c0 -143.333 -43.667 -258 -131 -344s-206 -129 -356 -129c-148 0 -265.667 42.333 -353 127c-88.667 84.667 -133 200 -133 346v745c0 154.667 45.667 273.667 137 357
c86 77.333 202.333 116 349 116c112.667 0 209 -24 289 -72v228h278l-1 -272z" />
    <glyph glyph-name="ohorn" unicode="&#x1a1;" 
d="M432 322c0 -34 2.99902 -57.333 8.99902 -70c10.667 -24.667 34.334 -37 71.001 -37c32.667 0 56 11.667 70 35c6.66699 18 10 42 10 72v665c0 34.667 -2.66699 58 -8 70c-14 26 -38 39 -72 39c-31.333 0 -53 -10.333 -65 -31c-10 -22 -15 -48 -15 -78v-665z
M864.999 1290l-35 5.00098v157h190v-135c0 -31.333 -6.66699 -52.333 -20 -63l-56 -45l-67 -37c10.667 -7.33301 18.667 -13 24 -17l4 -12c0 -5.33301 3.66699 -14.333 11 -27c18.667 -50 28 -101 28 -153v-617c0 -96.667 -28 -177.667 -84 -243
c-73.333 -86 -189.333 -129 -348 -129c-151.333 0 -267.333 43 -348 129c-56 64 -84 145 -84 243v617c0 99.333 28 181.333 84 246c74 86 190 129 348 129c68.667 0 124 -7 166 -21c20.667 -4 50 -19.667 88 -47l41 -29l31 15c18 9.33301 27 20.666 27 33.999z" />
    <glyph glyph-name="Uhorn" unicode="&#x1af;" horiz-adv-x="1138" 
d="M1004 1821l278.001 -0.000976562l-1 -272l-131 -138h-91l-2 -964c0 -143.333 -43.667 -258 -131 -344s-206 -129 -356 -129c-148 0 -265.667 42.333 -353 127c-88.667 84.667 -133 200 -133 346v1192h377v-1196c0 -57.333 5.33301 -99 16 -125c10 -27.333 41 -41 93 -41
c35.333 0 62.666 10.667 81.999 32c17.333 20.667 26 65.334 26 134.001v1196l326 -4v186z" />
    <glyph glyph-name="uhorn" unicode="&#x1b0;" 
d="M944 1196l0.000976562 -1196h-340v146c-35.333 -57.333 -73.333 -101 -114 -131c-42.667 -27.333 -95.334 -41 -158.001 -41c-82 0 -144 26.333 -186 79c-44 53.333 -66 120.333 -66 201v1057h352v-897c0 -42.667 3 -69.334 9 -80.001c12 -30 35.667 -45 71 -45
c32.667 0 56 17 70 51c6.66699 23.333 10 48 10 74v897h332v4c0 6.66699 1.33301 11.334 4 14.001v7c0 4 0.666992 7.33301 2 10h-37v157h180v-135v-26c0 -24.667 -4 -42 -12 -52c-5.33301 -10.667 -12 -20 -20 -28c-10 -10 -21 -19.667 -33 -29
c-16.667 -6.66699 -31 -12.667 -43 -18c-14 -7.33301 -21 -13.666 -21 -18.999z" />
    <glyph glyph-name="uni1EA0" unicode="&#x1ea0;" horiz-adv-x="1138" 
d="M317 1639h500l309 -1639h-397l-35 291h-264l-39 -291h-377zM469 582h188l-88 803zM383 -157h352v-242h-352v242z" />
    <glyph glyph-name="uni1EA1" unicode="&#x1ea1;" 
d="M944 0l-323 0.000976562v101c-61.333 -84.667 -146 -127 -254 -127c-116 0 -196 40 -240 120c-31.333 59.333 -47 152.333 -47 279c0 110.667 28 198 84 262c39.333 46.667 100 87.667 182 123c104 40.667 163.667 68 179 82c52.667 35.333 79 83.666 79 144.999
c0 34.667 -5.33301 62 -16 82c-12 19.333 -34 29 -66 29c-60 0 -90 -30.667 -90 -92v-107h-327v119c0 96.667 38.667 174.667 116 234c78 58.667 177 88 297 88c156 0 266 -32.333 330 -97c64 -64 96 -169 96 -315v-926zM604 658.001l-98.001 -72
c-40.667 -31.333 -61 -70.333 -61 -117v-174c0 -69.333 25.667 -104 77 -104c24.667 0 45.334 10 62.001 30c13.333 24.667 20 52.667 20 84v353zM333.999 -156.999h352v-242h-352v242z" />
    <glyph glyph-name="uni1EA2" unicode="&#x1ea2;" horiz-adv-x="1138" 
d="M317 1639h500l309 -1639h-397l-35 291h-264l-39 -291h-377zM469 582h188l-88 803zM474 1725c2 40.667 15.667 81.333 41 122l78 98c28.667 33.333 43 67 43 101c0 23.333 -3.33301 42.333 -10 57c-8 15.333 -23 23 -45 23c-18 0 -32.333 -8.33301 -43 -25
c-8 -22 -12 -43.667 -12 -65v-56h-152v68c0 56 19 102.333 57 139c37.333 36.667 89.333 55 156 55c69.333 0 123.333 -15 162 -45c36.667 -31.333 55 -79.666 55 -145c0 -48 -17 -93.667 -51 -137l-98 -105c-21.333 -28 -36 -56.333 -44 -85h-137z" />
    <glyph glyph-name="uni1EA3" unicode="&#x1ea3;" 
d="M944 0l-323 0.000976562v101c-61.333 -84.667 -146 -127 -254 -127c-116 0 -196 40 -240 120c-31.333 59.333 -47 152.333 -47 279c0 110.667 28 198 84 262c39.333 46.667 100 87.667 182 123c104 40.667 163.667 68 179 82c52.667 35.333 79 83.666 79 144.999
c0 34.667 -5.33301 62 -16 82c-12 19.333 -34 29 -66 29c-60 0 -90 -30.667 -90 -92v-107h-327v119c0 96.667 38.667 174.667 116 234c78 58.667 177 88 297 88c156 0 266 -32.333 330 -97c64 -64 96 -169 96 -315v-926zM604 658.001l-98.001 -72
c-40.667 -31.333 -61 -70.333 -61 -117v-174c0 -69.333 25.667 -104 77 -104c24.667 0 45.334 10 62.001 30c13.333 24.667 20 52.667 20 84v353zM468.999 1417v41.0029c0 28.667 31.333 76.667 94 144c14 13.333 25.167 28.166 33.5 44.499s12.5 32.833 12.5 49.5
c0 22 -3.66699 37 -11 45c-4 8 -17 12.667 -39 14c-44.667 0 -67 -23 -67 -69v-49h-139v59c0 45.333 17 85.666 51 120.999c39.333 39.333 93 59 161 59c59.333 0 107.333 -14.333 144 -43s55 -71.667 55 -129c0 -52 -28 -101 -84 -147
c-57.333 -46.667 -86 -93.334 -86 -140.001h-125z" />
    <glyph glyph-name="uni1EA4" unicode="&#x1ea4;" horiz-adv-x="1138" 
d="M317 1639h500l309 -1639h-397l-35 291h-264l-39 -291h-377zM266 1737l170 278h289l147 -278h-213l-90 156l-102 -156h-201zM469 582h188l-88 803zM907 2267h287l-197 -249h-176z" />
    <glyph glyph-name="uni1EA5" unicode="&#x1ea5;" 
d="M944 0l-323 0.000976562v101c-61.333 -84.667 -146 -127 -254 -127c-116 0 -196 40 -240 120c-31.333 59.333 -47 152.333 -47 279c0 110.667 28 198 84 262c39.333 46.667 100 87.667 182 123c104 40.667 163.667 68 179 82c52.667 35.333 79 83.666 79 144.999
c0 34.667 -5.33301 62 -16 82c-12 19.333 -34 29 -66 29c-60 0 -90 -30.667 -90 -92v-107h-327v119c0 96.667 38.667 174.667 116 234c78 58.667 177 88 297 88c156 0 266 -32.333 330 -97c64 -64 96 -169 96 -315v-926zM209 1409l170 279h289l147 -279h-213l-90 156
l-102 -156h-201zM604 658.001l-98.001 -72c-40.667 -31.333 -61 -70.333 -61 -117v-174c0 -69.333 25.667 -104 77 -104c24.667 0 45.334 10 62.001 30c13.333 24.667 20 52.667 20 84v353zM890.999 1985h320l-248 -379h-197z" />
    <glyph glyph-name="uni1EA6" unicode="&#x1ea6;" horiz-adv-x="1138" 
d="M317 1639h500l309 -1639h-397l-35 291h-264l-39 -291h-377zM266 1737l170 278h289l147 -278h-213l-90 156l-102 -156h-201zM469 582h188l-88 803zM912 2253l79 -250h-170l-200 250h291z" />
    <glyph glyph-name="uni1EA7" unicode="&#x1ea7;" 
d="M944 0l-323 0.000976562v101c-61.333 -84.667 -146 -127 -254 -127c-116 0 -196 40 -240 120c-31.333 59.333 -47 152.333 -47 279c0 110.667 28 198 84 262c39.333 46.667 100 87.667 182 123c104 40.667 163.667 68 179 82c52.667 35.333 79 83.666 79 144.999
c0 34.667 -5.33301 62 -16 82c-12 19.333 -34 29 -66 29c-60 0 -90 -30.667 -90 -92v-107h-327v119c0 96.667 38.667 174.667 116 234c78 58.667 177 88 297 88c156 0 266 -32.333 330 -97c64 -64 96 -169 96 -315v-926zM209 1409l170 279h289l147 -279h-213l-90 156
l-102 -156h-201zM604 658.001l-98.001 -72c-40.667 -31.333 -61 -70.333 -61 -117v-174c0 -69.333 25.667 -104 77 -104c24.667 0 45.334 10 62.001 30c13.333 24.667 20 52.667 20 84v353zM806.999 1961l162 -336h-190l-295 336h323z" />
    <glyph glyph-name="uni1EA8" unicode="&#x1ea8;" horiz-adv-x="1138" 
d="M317 1639h500l309 -1639h-397l-35 291h-264l-39 -291h-377zM266 1737l170 278h289l147 -278h-213l-90 156l-102 -156h-201zM469 582h188l-88 803zM829 1909v40.999c0 28.667 31.333 76.334 94 143.001c14 14 25 29.167 33 45.5s12 32.833 12 49.5
c0 21.333 -3.33301 36.333 -10 45c-4 8 -17 12.667 -39 14c-44.667 0 -67 -23.333 -67 -70v-49h-140v60c0 44.667 17.333 84.667 52 120c39.333 40 93 60 161 60c59.333 0 107.333 -14.333 144 -43s55 -71.667 55 -129c0 -52 -28 -101.333 -84 -148
c-57.333 -46 -86 -92.333 -86 -139h-125z" />
    <glyph glyph-name="uni1EA9" unicode="&#x1ea9;" 
d="M944 0l-323 0.000976562v101c-61.333 -84.667 -146 -127 -254 -127c-116 0 -196 40 -240 120c-31.333 59.333 -47 152.333 -47 279c0 110.667 28 198 84 262c39.333 46.667 100 87.667 182 123c104 40.667 163.667 68 179 82c52.667 35.333 79 83.666 79 144.999
c0 34.667 -5.33301 62 -16 82c-12 19.333 -34 29 -66 29c-60 0 -90 -30.667 -90 -92v-107h-327v119c0 96.667 38.667 174.667 116 234c78 58.667 177 88 297 88c156 0 266 -32.333 330 -97c64 -64 96 -169 96 -315v-926zM209 1409l170 279h289l147 -279h-213l-90 156
l-102 -156h-201zM604 658.001l-98.001 -72c-40.667 -31.333 -61 -70.333 -61 -117v-174c0 -69.333 25.667 -104 77 -104c24.667 0 45.334 10 62.001 30c13.333 24.667 20 52.667 20 84v353zM763.999 1581v41.002c0 28.667 31.333 76.667 94 144
c14 13.333 25 28.166 33 44.499s12 32.833 12 49.5c0 22 -3.33301 37 -10 45c-4 8 -17 12.667 -39 14c-44.667 0 -67 -23 -67 -69v-50h-140v60c0 44.667 17.333 85 52 121c39.333 39.333 93 59 161 59c58.667 0 106.5 -14.333 143.5 -43s55.5 -71.667 55.5 -129
c0 -52 -28 -101 -84 -147c-57.333 -46.667 -86 -93.334 -86 -140.001h-125z" />
    <glyph glyph-name="uni1EAA" unicode="&#x1eaa;" horiz-adv-x="1138" 
d="M317 1639h500l309 -1639h-397l-35 291h-264l-39 -291h-377zM266 1737l170 278h289l147 -278h-213l-90 156l-102 -156h-201zM469 582h188l-88 803zM909 2304c-20.667 -57.333 -45.333 -100.333 -74 -129c-35.333 -36.667 -80.333 -55 -135 -55
c-24.667 0 -52.667 6.16699 -84 18.5s-56.666 21.833 -75.999 28.5c-20 5.33301 -37.667 9.33301 -53 12c-13.333 0 -30.333 -6 -51 -18c-15.333 -12.667 -28.333 -28.334 -39 -47l-88 33c19.333 48.667 41.333 88.667 66 120c34 42.667 72.667 64 116 64
c28.667 0 69.667 -10.333 123 -31s89.666 -31 108.999 -31c21.333 0 40.333 6.33301 57 19c15.333 10.667 29 29 41 55z" />
    <glyph glyph-name="uni1EAB" unicode="&#x1eab;" 
d="M944 0l-323 0.000976562v101c-61.333 -84.667 -146 -127 -254 -127c-116 0 -196 40 -240 120c-31.333 59.333 -47 152.333 -47 279c0 110.667 28 198 84 262c39.333 46.667 100 87.667 182 123c104 40.667 163.667 68 179 82c52.667 35.333 79 83.666 79 144.999
c0 34.667 -5.33301 62 -16 82c-12 19.333 -34 29 -66 29c-60 0 -90 -30.667 -90 -92v-107h-327v119c0 96.667 38.667 174.667 116 234c78 58.667 177 88 297 88c156 0 266 -32.333 330 -97c64 -64 96 -169 96 -315v-926zM209 1409l170 279h289l147 -279h-213l-90 156
l-102 -156h-201zM604 658.001l-98.001 -72c-40.667 -31.333 -61 -70.333 -61 -117v-174c0 -69.333 25.667 -104 77 -104c24.667 0 45.334 10 62.001 30c13.333 24.667 20 52.667 20 84v353zM914.999 1927c-27.333 -67.333 -55.335 -115.332 -84.002 -143.999
c-40 -40.667 -90 -61 -150 -61c-35.333 0 -77.666 11.667 -126.999 35c-49.333 21.333 -85.333 32 -108 32c-15.333 0 -35.333 -8 -60 -24c-2.66699 -2.66699 -8 -9 -16 -19l-25 -30l-98 37c9.33301 25.333 17.333 45.666 24 60.999c14 30 30 54.667 48 74
c38 46 81.667 69 131 69c36.667 0 82.334 -10 137.001 -30c53.333 -22 93 -35 119 -39c26 0 48.5 7.5 67.5 22.5s33.167 34.833 42.5 59.5z" />
    <glyph glyph-name="uni1EAC" unicode="&#x1eac;" horiz-adv-x="1138" 
d="M317 1639h500l309 -1639h-397l-35 291h-264l-39 -291h-377zM266 1737l170 278h289l147 -278h-213l-90 156l-102 -156h-201zM469 582h188l-88 803zM383 -157h352v-242h-352v242z" />
    <glyph glyph-name="uni1EAD" unicode="&#x1ead;" 
d="M944 0l-323 0.000976562v101c-61.333 -84.667 -146 -127 -254 -127c-116 0 -196 40 -240 120c-31.333 59.333 -47 152.333 -47 279c0 110.667 28 198 84 262c39.333 46.667 100 87.667 182 123c104 40.667 163.667 68 179 82c52.667 35.333 79 83.666 79 144.999
c0 34.667 -5.33301 62 -16 82c-12 19.333 -34 29 -66 29c-60 0 -90 -30.667 -90 -92v-107h-327v119c0 96.667 38.667 174.667 116 234c78 58.667 177 88 297 88c156 0 266 -32.333 330 -97c64 -64 96 -169 96 -315v-926zM209 1409l170 279h289l147 -279h-213l-90 156
l-102 -156h-201zM604 658.001l-98.001 -72c-40.667 -31.333 -61 -70.333 -61 -117v-174c0 -69.333 25.667 -104 77 -104c24.667 0 45.334 10 62.001 30c13.333 24.667 20 52.667 20 84v353zM333.999 -156.999h352v-242h-352v242z" />
    <glyph glyph-name="uni1EAE" unicode="&#x1eae;" horiz-adv-x="1138" 
d="M317 1639h500l309 -1639h-397l-35 291h-264l-39 -291h-377zM469 582h188l-88 803zM424 2013c0 -40.667 13.666 -72.667 40.999 -96c27.333 -20.667 64 -31 110 -31c48 0 83.667 9 107 27c22 18 37 51.333 45 100h155c0 -92.667 -28 -163 -84 -211
c-55.333 -47.333 -129.666 -71 -222.999 -71c-96.667 0 -171.667 22.333 -225 67c-54.667 45.333 -82 117 -82 215h156zM883.999 2305l-223 -278h-190l90 278h323z" />
    <glyph glyph-name="uni1EAF" unicode="&#x1eaf;" 
d="M944 0l-323 0.000976562v101c-61.333 -84.667 -146 -127 -254 -127c-116 0 -196 40 -240 120c-31.333 59.333 -47 152.333 -47 279c0 110.667 28 198 84 262c39.333 46.667 100 87.667 182 123c104 40.667 163.667 68 179 82c52.667 35.333 79 83.666 79 144.999
c0 34.667 -5.33301 62 -16 82c-12 19.333 -34 29 -66 29c-60 0 -90 -30.667 -90 -92v-107h-327v119c0 96.667 38.667 174.667 116 234c78 58.667 177 88 297 88c156 0 266 -32.333 330 -97c64 -64 96 -169 96 -315v-926zM604 658.001l-98.001 -72
c-40.667 -31.333 -61 -70.333 -61 -117v-174c0 -69.333 25.667 -104 77 -104c24.667 0 45.334 10 62.001 30c13.333 24.667 20 52.667 20 84v353zM372.999 1706c0 -40.667 13.667 -72.666 41 -95.999c27.333 -20.667 64.333 -31 111 -31c47.333 0 82.666 9 105.999 27
c22 18 37 51.333 45 100h156c0 -92.667 -28 -162.834 -84 -210.501s-130.333 -71.5 -223 -71.5c-97.333 0 -172.666 22.333 -225.999 67c-54.667 45.333 -82 117 -82 215h156zM910.999 2039l-295 -336h-190l162 336h323z" />
    <glyph glyph-name="uni1EB0" unicode="&#x1eb0;" horiz-adv-x="1138" 
d="M317 1639h500l309 -1639h-397l-35 291h-264l-39 -291h-377zM469 582h188l-88 803zM424 2013c0 -40.667 13.666 -72.667 40.999 -96c27.333 -20.667 64 -31 110 -31c48 0 83.667 9 107 27c22 18 37 51.333 45 100h155c0 -92.667 -28 -163 -84 -211
c-55.333 -47.333 -129.666 -71 -222.999 -71c-96.667 0 -171.667 22.333 -225 67c-54.667 45.333 -82 117 -82 215h156zM593.999 2305l90 -278h-190l-223 278h323z" />
    <glyph glyph-name="uni1EB1" unicode="&#x1eb1;" 
d="M944 0l-323 0.000976562v101c-61.333 -84.667 -146 -127 -254 -127c-116 0 -196 40 -240 120c-31.333 59.333 -47 152.333 -47 279c0 110.667 28 198 84 262c39.333 46.667 100 87.667 182 123c104 40.667 163.667 68 179 82c52.667 35.333 79 83.666 79 144.999
c0 34.667 -5.33301 62 -16 82c-12 19.333 -34 29 -66 29c-60 0 -90 -30.667 -90 -92v-107h-327v119c0 96.667 38.667 174.667 116 234c78 58.667 177 88 297 88c156 0 266 -32.333 330 -97c64 -64 96 -169 96 -315v-926zM604 658.001l-98.001 -72
c-40.667 -31.333 -61 -70.333 -61 -117v-174c0 -69.333 25.667 -104 77 -104c24.667 0 45.334 10 62.001 30c13.333 24.667 20 52.667 20 84v353zM372.999 1706c0 -40.667 13.667 -72.666 41 -95.999c27.333 -20.667 64.333 -31 111 -31c47.333 0 82.666 9 105.999 27
c22 18 37 51.333 45 100h156c0 -92.667 -28 -162.834 -84 -210.501s-130.333 -71.5 -223 -71.5c-97.333 0 -172.666 22.333 -225.999 67c-54.667 45.333 -82 117 -82 215h156zM467.999 2048l162 -336h-190l-295 336h323z" />
    <glyph glyph-name="uni1EB2" unicode="&#x1eb2;" horiz-adv-x="1138" 
d="M317 1639h500l309 -1639h-397l-35 291h-264l-39 -291h-377zM469 582h188l-88 803zM424 2013c0 -40.667 13.666 -72.667 40.999 -96c27.333 -20.667 64 -31 110 -31c48 0 83.667 9 107 27c22 18 37 51.333 45 100h155c0 -92.667 -28 -163 -84 -211
c-55.333 -47.333 -129.666 -71 -222.999 -71c-96.667 0 -171.667 22.333 -225 67c-54.667 45.333 -82 117 -82 215h156zM501.999 2024l-0.000976562 41c0 28.667 31.333 76.334 94 143c13.333 13.333 24 28.333 32 45c8.66699 16.667 13 33 13 49c0 22 -3.33301 37 -10 45
c-4.66699 8.66699 -17.667 13.667 -39 15c-45.333 0 -68 -23.333 -68 -70v-49h-139v59c0 45.333 17 85.666 51 121c39.333 39.333 93.333 59 162 59c58.667 0 106.334 -14.333 143.001 -43s55 -71.667 55 -129c0 -51.333 -28 -100.333 -84 -147
c-57.333 -46.667 -86 -93 -86 -139h-124z" />
    <glyph glyph-name="uni1EB3" unicode="&#x1eb3;" 
d="M944 0l-323 0.000976562v101c-61.333 -84.667 -146 -127 -254 -127c-116 0 -196 40 -240 120c-31.333 59.333 -47 152.333 -47 279c0 110.667 28 198 84 262c39.333 46.667 100 87.667 182 123c104 40.667 163.667 68 179 82c52.667 35.333 79 83.666 79 144.999
c0 34.667 -5.33301 62 -16 82c-12 19.333 -34 29 -66 29c-60 0 -90 -30.667 -90 -92v-107h-327v119c0 96.667 38.667 174.667 116 234c78 58.667 177 88 297 88c156 0 266 -32.333 330 -97c64 -64 96 -169 96 -315v-926zM604 658.001l-98.001 -72
c-40.667 -31.333 -61 -70.333 -61 -117v-174c0 -69.333 25.667 -104 77 -104c24.667 0 45.334 10 62.001 30c13.333 24.667 20 52.667 20 84v353zM372.999 1706c0 -40.667 13.667 -72.666 41 -95.999c27.333 -20.667 64.333 -31 111 -31c47.333 0 82.666 9 105.999 27
c22 18 37 51.333 45 100h156c0 -92.667 -28 -162.834 -84 -210.501s-130.333 -71.5 -223 -71.5c-97.333 0 -172.666 22.333 -225.999 67c-54.667 45.333 -82 117 -82 215h156zM458.999 1683v41.0029c0 28.667 31.333 76.667 94 144c14 13.333 25.167 28.166 33.5 44.499
s12.5 32.833 12.5 49.5c0 22 -3.66699 37 -11 45c-4 8 -17 12.667 -39 14c-44.667 0 -67 -23 -67 -69v-49h-139v59c0 45.333 17 85.666 51 120.999c39.333 39.333 93 59 161 59c59.333 0 107.333 -14.333 144 -43s55 -71.667 55 -129c0 -52 -28 -101 -84 -147
c-57.333 -46.667 -86 -93.334 -86 -140.001h-125z" />
    <glyph glyph-name="uni1EB4" unicode="&#x1eb4;" horiz-adv-x="1138" 
d="M317 1639h500l309 -1639h-397l-35 291h-264l-39 -291h-377zM469 582h188l-88 803zM424 2013c0 -40.667 13.666 -72.667 40.999 -96c27.333 -20.667 64 -31 110 -31c48 0 83.667 9 107 27c22 18 37 51.333 45 100h155c0 -92.667 -28 -163 -84 -211
c-55.333 -47.333 -129.666 -71 -222.999 -71c-96.667 0 -171.667 22.333 -225 67c-54.667 45.333 -82 117 -82 215h156zM834.999 2274c-27.333 -66 -55.334 -110 -84.001 -132c-30 -21.333 -64 -32 -102 -32c-22 0 -61.667 12.333 -119 37c-24.667 12 -47.667 18 -69 18
c-11.333 0 -26.666 -6 -45.999 -18l-36 -41l-78 28c24.667 62.667 49.834 105.667 75.501 129s54.5 35 86.5 35l39 -2c9.33301 0 24.333 -4.66699 45 -14l120 -39c41.333 0 70.666 21.667 87.999 65z" />
    <glyph glyph-name="uni1EB5" unicode="&#x1eb5;" 
d="M944 0l-323 0.000976562v101c-61.333 -84.667 -146 -127 -254 -127c-116 0 -196 40 -240 120c-31.333 59.333 -47 152.333 -47 279c0 110.667 28 198 84 262c39.333 46.667 100 87.667 182 123c104 40.667 163.667 68 179 82c52.667 35.333 79 83.666 79 144.999
c0 34.667 -5.33301 62 -16 82c-12 19.333 -34 29 -66 29c-60 0 -90 -30.667 -90 -92v-107h-327v119c0 96.667 38.667 174.667 116 234c78 58.667 177 88 297 88c156 0 266 -32.333 330 -97c64 -64 96 -169 96 -315v-926zM604 658.001l-98.001 -72
c-40.667 -31.333 -61 -70.333 -61 -117v-174c0 -69.333 25.667 -104 77 -104c24.667 0 45.334 10 62.001 30c13.333 24.667 20 52.667 20 84v353zM372.999 1706c0 -40.667 13.667 -72.666 41 -95.999c27.333 -20.667 64.333 -31 111 -31c47.333 0 82.666 9 105.999 27
c22 18 37 51.333 45 100h156c0 -92.667 -28 -162.834 -84 -210.501s-130.333 -71.5 -223 -71.5c-97.333 0 -172.666 22.333 -225.999 67c-54.667 45.333 -82 117 -82 215h156zM895.999 1985c-27.333 -67.333 -55.335 -115.332 -84.002 -143.999
c-40 -40.667 -90 -61 -150 -61c-35.333 0 -77.666 11.667 -126.999 35c-49.333 21.333 -85.333 32 -108 32c-15.333 0 -35.333 -8 -60 -24c-2.66699 -2.66699 -8 -9 -16 -19l-25 -30l-98 37c9.33301 25.333 17.333 45.666 24 60.999c14 30 30 54.667 48 74
c38 46 81.667 69 131 69c36.667 0 82.334 -10 137.001 -30c53.333 -22 93 -35 119 -39c26 0 48.5 7.5 67.5 22.5s33.167 34.833 42.5 59.5z" />
    <glyph glyph-name="uni1EB6" unicode="&#x1eb6;" horiz-adv-x="1138" 
d="M317 1639h500l309 -1639h-397l-35 291h-264l-39 -291h-377zM469 582h188l-88 803zM424 2013c0 -40.667 13.666 -72.667 40.999 -96c27.333 -20.667 64 -31 110 -31c48 0 83.667 9 107 27c22 18 37 51.333 45 100h155c0 -92.667 -28 -163 -84 -211
c-55.333 -47.333 -129.666 -71 -222.999 -71c-96.667 0 -171.667 22.333 -225 67c-54.667 45.333 -82 117 -82 215h156zM382.999 -157h352v-242h-352v242z" />
    <glyph glyph-name="uni1EB7" unicode="&#x1eb7;" 
d="M944 0l-323 0.000976562v101c-61.333 -84.667 -146 -127 -254 -127c-116 0 -196 40 -240 120c-31.333 59.333 -47 152.333 -47 279c0 110.667 28 198 84 262c39.333 46.667 100 87.667 182 123c104 40.667 163.667 68 179 82c52.667 35.333 79 83.666 79 144.999
c0 34.667 -5.33301 62 -16 82c-12 19.333 -34 29 -66 29c-60 0 -90 -30.667 -90 -92v-107h-327v119c0 96.667 38.667 174.667 116 234c78 58.667 177 88 297 88c156 0 266 -32.333 330 -97c64 -64 96 -169 96 -315v-926zM604 658.001l-98.001 -72
c-40.667 -31.333 -61 -70.333 -61 -117v-174c0 -69.333 25.667 -104 77 -104c24.667 0 45.334 10 62.001 30c13.333 24.667 20 52.667 20 84v353zM372.999 1706c0 -40.667 13.667 -72.666 41 -95.999c27.333 -20.667 64.333 -31 111 -31c47.333 0 82.666 9 105.999 27
c22 18 37 51.333 45 100h156c0 -92.667 -28 -162.834 -84 -210.501s-130.333 -71.5 -223 -71.5c-97.333 0 -172.666 22.333 -225.999 67c-54.667 45.333 -82 117 -82 215h156zM333.999 -156.998h352v-242h-352v242z" />
    <glyph glyph-name="uni1EB8" unicode="&#x1eb8;" 
d="M84 1639h838v-316h-461v-327h404v-316h-404v-364h479v-316h-856v1639zM322 -157h352v-242h-352v242z" />
    <glyph glyph-name="uni1EB9" unicode="&#x1eb9;" 
d="M80 963c0 99.333 27.999 181.333 83.999 246c74 86 190 129 348 129c152 0 268 -43 348 -129c56 -64.667 84 -146.667 84 -246v-361h-512v-280c0 -34 3 -57.333 9 -70c10.667 -24.667 34.334 -37 71.001 -37c32.667 0 56 11.667 70 35c6.66699 18 10 42 10 72v164h352
v-140c0 -96.667 -28 -177.667 -84 -243c-73.333 -86 -189.333 -129 -348 -129c-151.333 0 -267.333 43 -348 129c-56 64 -84 145 -84 243v617zM431.999 844h160v143c0 34.667 -2.66699 58 -8 70c-14 26 -38 39 -72 39c-31.333 0 -53 -10.333 -65 -31
c-10 -22 -15 -48 -15 -78v-143zM333.999 -157h352v-242h-352v242z" />
    <glyph glyph-name="uni1EBA" unicode="&#x1eba;" 
d="M84 1639h838v-316h-461v-327h404v-316h-404v-364h479v-316h-856v1639zM434 1725c2 40.667 15.667 81.333 41 122l78 98c28.667 33.333 43 67 43 101c0 23.333 -3.33301 42.333 -10 57c-8 15.333 -23 23 -45 23c-18 0 -32.333 -8.33301 -43 -25
c-8 -22 -12 -43.667 -12 -65v-56h-152v68c0 56 19 102.333 57 139c37.333 36.667 89.333 55 156 55c69.333 0 123.333 -15 162 -45c36.667 -31.333 55 -79.666 55 -145c0 -48 -17 -93.667 -51 -137l-98 -105c-21.333 -28 -36 -56.333 -44 -85h-137z" />
    <glyph glyph-name="uni1EBB" unicode="&#x1ebb;" 
d="M80 963c0 99.333 27.999 181.333 83.999 246c74 86 190 129 348 129c152 0 268 -43 348 -129c56 -64.667 84 -146.667 84 -246v-361h-512v-280c0 -34 3 -57.333 9 -70c10.667 -24.667 34.334 -37 71.001 -37c32.667 0 56 11.667 70 35c6.66699 18 10 42 10 72v164h352
v-140c0 -96.667 -28 -177.667 -84 -243c-73.333 -86 -189.333 -129 -348 -129c-151.333 0 -267.333 43 -348 129c-56 64 -84 145 -84 243v617zM431.999 844h160v143c0 34.667 -2.66699 58 -8 70c-14 26 -38 39 -72 39c-31.333 0 -53 -10.333 -65 -31
c-10 -22 -15 -48 -15 -78v-143zM468.999 1417v41.0029c0 28.667 31.333 76.667 94 144c14 13.333 25.167 28.166 33.5 44.499s12.5 32.833 12.5 49.5c0 22 -3.66699 37 -11 45c-4 8 -17 12.667 -39 14c-44.667 0 -67 -23 -67 -69v-49h-139v59c0 45.333 17 85.666 51 120.999
c39.333 39.333 93 59 161 59c59.333 0 107.333 -14.333 144 -43s55 -71.667 55 -129c0 -52 -28 -101 -84 -147c-57.333 -46.667 -86 -93.334 -86 -140.001h-125z" />
    <glyph glyph-name="uni1EBC" unicode="&#x1ebc;" 
d="M84 1639h838v-316h-461v-327h404v-316h-404v-364h479v-316h-856v1639zM879 1964c-27.333 -66.667 -55.335 -114.333 -84.002 -143c-40 -41.333 -90 -62 -150 -62c-35.333 0 -77.666 11.667 -126.999 35c-48.667 22 -84.667 33 -108 33
c-15.333 0 -35.333 -8.33301 -60 -25c-2.66699 -2.66699 -8 -8.66699 -16 -18c-8 -10.667 -16.333 -21 -25 -31l-98 37c10 26 18.333 46.667 25 62c13.333 30 29 54.333 47 73c38 46.667 81.667 70 131 70c36.667 0 82.334 -10.333 137.001 -31
c53.333 -21.333 93 -34.333 119 -39c26 0 48.5 7.5 67.5 22.5s33.5 34.833 43.5 59.5z" />
    <glyph glyph-name="uni1EBD" unicode="&#x1ebd;" 
d="M80 963c0 99.333 27.999 181.333 83.999 246c74 86 190 129 348 129c152 0 268 -43 348 -129c56 -64.667 84 -146.667 84 -246v-361h-512v-280c0 -34 3 -57.333 9 -70c10.667 -24.667 34.334 -37 71.001 -37c32.667 0 56 11.667 70 35c6.66699 18 10 42 10 72v164h352
v-140c0 -96.667 -28 -177.667 -84 -243c-73.333 -86 -189.333 -129 -348 -129c-151.333 0 -267.333 43 -348 129c-56 64 -84 145 -84 243v617zM431.999 844h160v143c0 34.667 -2.66699 58 -8 70c-14 26 -38 39 -72 39c-31.333 0 -53 -10.333 -65 -31
c-10 -22 -15 -48 -15 -78v-143zM866.999 1646c-27.333 -67.333 -55.335 -115.332 -84.002 -143.999c-40 -40.667 -90 -61 -150 -61c-35.333 0 -77.666 11.667 -126.999 35c-49.333 21.333 -85.333 32 -108 32c-15.333 0 -35.333 -8 -60 -24c-2.66699 -2.66699 -8 -9 -16 -19
l-25 -30l-98 37c9.33301 25.333 17.333 45.666 24 60.999c14 30 30 54.667 48 74c38 46 81.667 69 131 69c36.667 0 82.334 -10 137.001 -30c53.333 -22 93 -35 119 -39c26 0 48.5 7.5 67.5 22.5s33.167 34.833 42.5 59.5z" />
    <glyph glyph-name="uni1EBE" unicode="&#x1ebe;" 
d="M84 1639h838v-316h-461v-327h404v-316h-404v-364h479v-316h-856v1639zM209 1737l170 278h289l147 -278h-213l-90 156l-102 -156h-201zM836 2207h287l-197 -249h-176z" />
    <glyph glyph-name="uni1EBF" unicode="&#x1ebf;" 
d="M80 963c0 99.333 27.999 181.333 83.999 246c74 86 190 129 348 129c152 0 268 -43 348 -129c56 -64.667 84 -146.667 84 -246v-361h-512v-280c0 -34 3 -57.333 9 -70c10.667 -24.667 34.334 -37 71.001 -37c32.667 0 56 11.667 70 35c6.66699 18 10 42 10 72v164h352
v-140c0 -96.667 -28 -177.667 -84 -243c-73.333 -86 -189.333 -129 -348 -129c-151.333 0 -267.333 43 -348 129c-56 64 -84 145 -84 243v617zM208.999 1409l170 279h289l147 -279h-213l-90 156l-102 -156h-201zM431.999 844h160v143c0 34.667 -2.66699 58 -8 70
c-14 26 -38 39 -72 39c-31.333 0 -53 -10.333 -65 -31c-10 -22 -15 -48 -15 -78v-143zM1201 1973l-254 -349h-190l114 349h330z" />
    <glyph glyph-name="uni1EC0" unicode="&#x1ec0;" 
d="M84 1639h838v-316h-461v-327h404v-316h-404v-364h479v-316h-856v1639zM209 1737l170 278h289l147 -278h-213l-90 156l-102 -156h-201zM870 2217l80 -249h-170l-201 249h291z" />
    <glyph glyph-name="uni1EC1" unicode="&#x1ec1;" 
d="M80 963c0 99.333 27.999 181.333 83.999 246c74 86 190 129 348 129c152 0 268 -43 348 -129c56 -64.667 84 -146.667 84 -246v-361h-512v-280c0 -34 3 -57.333 9 -70c10.667 -24.667 34.334 -37 71.001 -37c32.667 0 56 11.667 70 35c6.66699 18 10 42 10 72v164h352
v-140c0 -96.667 -28 -177.667 -84 -243c-73.333 -86 -189.333 -129 -348 -129c-151.333 0 -267.333 43 -348 129c-56 64 -84 145 -84 243v617zM208.999 1409l170 279h289l147 -279h-213l-90 156l-102 -156h-201zM431.999 844h160v143c0 34.667 -2.66699 58 -8 70
c-14 26 -38 39 -72 39c-31.333 0 -53 -10.333 -65 -31c-10 -22 -15 -48 -15 -78v-143zM872.999 1954l114 -349h-190l-254 349h330z" />
    <glyph glyph-name="uni1EC2" unicode="&#x1ec2;" 
d="M84 1639h838v-316h-461v-327h404v-316h-404v-364h479v-316h-856v1639zM209 1737l170 278h289l147 -278h-213l-90 156l-102 -156h-201zM781 1909v40.999c0 28.667 31.333 76.334 94 143.001c13.333 14 24.166 29.167 32.499 45.5s12.5 32.833 12.5 49.5
c0 21.333 -3.33301 36.333 -10 45c-4.66699 8 -17.667 12.667 -39 14c-45.333 0 -68 -23.333 -68 -70v-49h-139v60c0 44.667 17 84.667 51 120c39.333 40 93.333 60 162 60c58.667 0 106.334 -14.333 143.001 -43s55 -71.667 55 -129c0 -52 -28 -101.333 -84 -148
c-57.333 -46 -86 -92.333 -86 -139h-124z" />
    <glyph glyph-name="uni1EC3" unicode="&#x1ec3;" 
d="M80 963c0 99.333 27.999 181.333 83.999 246c74 86 190 129 348 129c152 0 268 -43 348 -129c56 -64.667 84 -146.667 84 -246v-361h-512v-280c0 -34 3 -57.333 9 -70c10.667 -24.667 34.334 -37 71.001 -37c32.667 0 56 11.667 70 35c6.66699 18 10 42 10 72v164h352
v-140c0 -96.667 -28 -177.667 -84 -243c-73.333 -86 -189.333 -129 -348 -129c-151.333 0 -267.333 43 -348 129c-56 64 -84 145 -84 243v617zM208.999 1409l170 279h289l147 -279h-213l-90 156l-102 -156h-201zM431.999 844h160v143c0 34.667 -2.66699 58 -8 70
c-14 26 -38 39 -72 39c-31.333 0 -53 -10.333 -65 -31c-10 -22 -15 -48 -15 -78v-143zM757.999 1604v41c0 28.667 31.333 76.334 94 143.001c14 14 25 29 33 45c8 16.667 12 33 12 49c0 22 -3.33301 37.333 -10 46c-4 8 -17 12.667 -39 14c-45.333 0 -68 -23.333 -68 -70
v-49h-139v59c0 45.333 17 85.666 51 120.999c40 40 94 60 162 60c58.667 0 106.5 -14.333 143.5 -43s55.5 -71.667 55.5 -129c0 -52 -28 -101.333 -84 -148c-57.333 -46 -86 -92.333 -86 -139h-125z" />
    <glyph glyph-name="uni1EC4" unicode="&#x1ec4;" 
d="M84 1639h838v-316h-461v-327h404v-316h-404v-364h479v-316h-856v1639zM209 1737l170 278h289l147 -278h-213l-90 156l-102 -156h-201zM872 2263c-20 -57.333 -44.332 -100.333 -72.999 -129c-36 -36.667 -81.333 -55 -136 -55c-24.667 0 -52.667 6.16699 -84 18.5
s-56.333 21.833 -75 28.5c-20.667 5.33301 -38.667 9.33301 -54 12c-13.333 0 -30.333 -6 -51 -18c-14.667 -12.667 -27.667 -28.334 -39 -47l-88 33c19.333 48.667 41.333 88.667 66 120c34 42.667 72.667 64 116 64c28.667 0 69.667 -10.333 123 -31
s89.666 -31 108.999 -31c22 0 41 6.33301 57 19c15.333 10.667 29 29 41 55z" />
    <glyph glyph-name="uni1EC5" unicode="&#x1ec5;" 
d="M80 963c0 99.333 27.999 181.333 83.999 246c74 86 190 129 348 129c152 0 268 -43 348 -129c56 -64.667 84 -146.667 84 -246v-361h-512v-280c0 -34 3 -57.333 9 -70c10.667 -24.667 34.334 -37 71.001 -37c32.667 0 56 11.667 70 35c6.66699 18 10 42 10 72v164h352
v-140c0 -96.667 -28 -177.667 -84 -243c-73.333 -86 -189.333 -129 -348 -129c-151.333 0 -267.333 43 -348 129c-56 64 -84 145 -84 243v617zM208.999 1409l170 279h289l147 -279h-213l-90 156l-102 -156h-201zM431.999 844h160v143c0 34.667 -2.66699 58 -8 70
c-14 26 -38 39 -72 39c-31.333 0 -53 -10.333 -65 -31c-10 -22 -15 -48 -15 -78v-143zM895.999 1937c-27.333 -67.333 -55.335 -115.332 -84.002 -143.999c-40 -40.667 -90 -61 -150 -61c-35.333 0 -77.666 11.667 -126.999 35c-49.333 21.333 -85.333 32 -108 32
c-15.333 0 -35.333 -8 -60 -24c-2.66699 -2.66699 -8 -9 -16 -19l-25 -30l-98 37c9.33301 25.333 17.333 45.666 24 60.999c14 30 30 54.667 48 74c38 46 81.667 69 131 69c36.667 0 82.334 -10 137.001 -30c53.333 -22 93 -35 119 -39c26 0 48.5 7.5 67.5 22.5
s33.167 34.833 42.5 59.5z" />
    <glyph glyph-name="uni1EC6" unicode="&#x1ec6;" 
d="M84 1639h838v-316h-461v-327h404v-316h-404v-364h479v-316h-856v1639zM209 1737l170 278h289l147 -278h-213l-90 156l-102 -156h-201zM322 -157h352v-242h-352v242z" />
    <glyph glyph-name="uni1EC7" unicode="&#x1ec7;" 
d="M80 963c0 99.333 27.999 181.333 83.999 246c74 86 190 129 348 129c152 0 268 -43 348 -129c56 -64.667 84 -146.667 84 -246v-361h-512v-280c0 -34 3 -57.333 9 -70c10.667 -24.667 34.334 -37 71.001 -37c32.667 0 56 11.667 70 35c6.66699 18 10 42 10 72v164h352
v-140c0 -96.667 -28 -177.667 -84 -243c-73.333 -86 -189.333 -129 -348 -129c-151.333 0 -267.333 43 -348 129c-56 64 -84 145 -84 243v617zM208.999 1409l170 279h289l147 -279h-213l-90 156l-102 -156h-201zM431.999 844h160v143c0 34.667 -2.66699 58 -8 70
c-14 26 -38 39 -72 39c-31.333 0 -53 -10.333 -65 -31c-10 -22 -15 -48 -15 -78v-143zM333.999 -157h352v-242h-352v242z" />
    <glyph glyph-name="uni1EC8" unicode="&#x1ec8;" horiz-adv-x="569" 
d="M96 1639h377v-1639h-377v1639zM211 1725c2 40.667 15.667 81.333 41 122l78 98c28.667 33.333 43 67 43 101c0 23.333 -3.33301 42.333 -10 57c-8 15.333 -23 23 -45 23c-18 0 -32.333 -8.33301 -43 -25c-8 -22 -12 -43.667 -12 -65v-56h-152v68c0 56 19 102.333 57 139
c37.333 36.667 89.333 55 156 55c69.333 0 123.333 -15 162 -45c36.667 -31.333 55 -79.666 55 -145c0 -48 -17 -93.667 -51 -137l-98 -105c-21.333 -28 -36 -56.333 -44 -85h-137z" />
    <glyph glyph-name="uni1EC9" unicode="&#x1ec9;" horiz-adv-x="569" 
d="M108 1311h353v-1311h-353v1311zM223 1417v41.002c0 28.667 31.333 76.667 94 144c14 13.333 25 28.333 33 45c8 16 12 32.333 12 49c0 22 -3.33301 37 -10 45c-4 8 -17 12.667 -39 14c-44.667 0 -67 -23 -67 -69v-49h-140v59c0 45.333 17 85.666 51 120.999
c40 39.333 94 59 162 59c58.667 0 106.5 -14.333 143.5 -43s55.5 -71.667 55.5 -129c0 -52 -28 -101 -84 -147c-57.333 -46.667 -86 -93.334 -86 -140.001h-125z" />
    <glyph glyph-name="uni1ECA" unicode="&#x1eca;" horiz-adv-x="569" 
d="M96 1639h377v-1639h-377v1639zM102 -157h352v-242h-352v242z" />
    <glyph glyph-name="uni1ECB" unicode="&#x1ecb;" horiz-adv-x="569" 
d="M108 1311h353v-1311h-353v1311zM108 1639h353v-242h-353v242zM108 -157h353v-242h-353v242z" />
    <glyph glyph-name="uni1ECC" unicode="&#x1ecc;" horiz-adv-x="1138" 
d="M461 414c0 -49.333 8.33301 -87.667 25 -115c16 -23.333 44 -35 84 -35c44.667 0 76 19.333 94 58c9.33301 28.667 14 59.334 14 92.001v811c0 39.333 -4 70.666 -12 93.999c-16.667 36.667 -48.667 55 -96 55c-45.333 0 -77 -17.667 -95 -53
c-9.33301 -28.667 -14 -60.667 -14 -96v-811zM84 1192c0 154.667 45.667 273.667 137 357c86 77.333 202.333 116 349 116c144.667 0 262 -39.667 352 -119c90 -80 135 -198 135 -354v-745c0 -143.333 -43.667 -258 -131 -344s-206 -129 -356 -129
c-148 0 -265.667 42.333 -353 127c-88.667 84.667 -133 200 -133 346v745zM398 -157.001h352v-242h-352v242z" />
    <glyph glyph-name="uni1ECD" unicode="&#x1ecd;" 
d="M80 963c0 99.333 28 181.333 84 246c74 86 190 129 348 129c152 0 268 -43 348 -129c56 -64.667 84 -146.667 84 -246v-617c0 -96.667 -28 -177.667 -84 -243c-73.333 -86 -189.333 -129 -348 -129c-151.333 0 -267.333 43 -348 129c-56 64 -84 145 -84 243v617zM432 322
c0 -34 2.99902 -57.333 8.99902 -70c10.667 -24.667 34.334 -37 71.001 -37c32.667 0 56 11.667 70 35c6.66699 18 10 42 10 72v665c0 34.667 -2.66699 58 -8 70c-14 26 -38 39 -72 39c-31.333 0 -53 -10.333 -65 -31c-10 -22 -15 -48 -15 -78v-665zM333.999 -157h352v-242
h-352v242z" />
    <glyph glyph-name="uni1ECE" unicode="&#x1ece;" horiz-adv-x="1138" 
d="M461 414c0 -49.333 8.33301 -87.667 25 -115c16 -23.333 44 -35 84 -35c44.667 0 76 19.333 94 58c9.33301 28.667 14 59.334 14 92.001v811c0 39.333 -4 70.666 -12 93.999c-16.667 36.667 -48.667 55 -96 55c-45.333 0 -77 -17.667 -95 -53
c-9.33301 -28.667 -14 -60.667 -14 -96v-811zM84 1192c0 154.667 45.667 273.667 137 357c86 77.333 202.333 116 349 116c144.667 0 262 -39.667 352 -119c90 -80 135 -198 135 -354v-745c0 -143.333 -43.667 -258 -131 -344s-206 -129 -356 -129
c-148 0 -265.667 42.333 -353 127c-88.667 84.667 -133 200 -133 346v745zM502 1725c2 40.667 15.667 81.332 41 121.999l78 98c28.667 33.333 43 67 43 101c0 23.333 -3.33301 42.333 -10 57c-8 15.333 -23 23 -45 23c-18 0 -32.333 -8.33301 -43 -25
c-8 -22 -12 -43.667 -12 -65v-56h-152v68c0 56 19 102.333 57 139c37.333 36.667 89.333 55 156 55c69.333 0 123.333 -15 162 -45c36.667 -31.333 55 -79.666 55 -144.999c0 -48 -17 -93.667 -51 -137l-98 -105c-21.333 -28 -36 -56.333 -44 -85h-137z" />
    <glyph glyph-name="uni1ECF" unicode="&#x1ecf;" 
d="M80 963c0 99.333 28 181.333 84 246c74 86 190 129 348 129c152 0 268 -43 348 -129c56 -64.667 84 -146.667 84 -246v-617c0 -96.667 -28 -177.667 -84 -243c-73.333 -86 -189.333 -129 -348 -129c-151.333 0 -267.333 43 -348 129c-56 64 -84 145 -84 243v617zM432 322
c0 -34 2.99902 -57.333 8.99902 -70c10.667 -24.667 34.334 -37 71.001 -37c32.667 0 56 11.667 70 35c6.66699 18 10 42 10 72v665c0 34.667 -2.66699 58 -8 70c-14 26 -38 39 -72 39c-31.333 0 -53 -10.333 -65 -31c-10 -22 -15 -48 -15 -78v-665zM452.999 1417
l-0.000976562 41.002c0 28.667 31.333 76.667 94 144c14 13.333 25 28.333 33 45c8 16 12 32.333 12 49c0 22 -3.33301 37 -10 45c-4 8 -17 12.667 -39 14c-45.333 0 -68 -23 -68 -69v-49h-139v59c0 45.333 17 85.666 51 120.999c40 39.333 94 59 162 59
c58.667 0 106.334 -14.333 143.001 -43c37.333 -28.667 56 -71.667 56 -129c0 -52 -28 -101 -84 -147c-57.333 -46.667 -86 -93.334 -86 -140.001h-125z" />
    <glyph glyph-name="uni1ED0" unicode="&#x1ed0;" horiz-adv-x="1138" 
d="M84 1192c0 154.667 45.667 273.667 137 357c86 77.333 202.333 116 349 116c144.667 0 262 -39.667 352 -119c90 -80 135 -198 135 -354v-745c0 -143.333 -43.667 -258 -131 -344s-206 -129 -356 -129c-148 0 -265.667 42.333 -353 127c-88.667 84.667 -133 200 -133 346
v745zM266 1737l170 278h289l148 -278h-213l-90 156l-103 -156h-201zM461 414c0 -49.333 8.33301 -87.667 25 -115c16 -23.333 44 -35 84 -35c44.667 0 76 19.333 94 58c9.33301 28.667 14 59.334 14 92.001v811c0 39.333 -4 70.666 -12 93.999
c-16.667 36.667 -48.667 55 -96 55c-45.333 0 -77 -17.667 -95 -53c-9.33301 -28.667 -14 -60.667 -14 -96v-811zM869 2267h286l-196 -249h-177z" />
    <glyph glyph-name="uni1ED1" unicode="&#x1ed1;" 
d="M80 963c0 99.333 28 181.333 84 246c74 86 190 129 348 129c152 0 268 -43 348 -129c56 -64.667 84 -146.667 84 -246v-617c0 -96.667 -28 -177.667 -84 -243c-73.333 -86 -189.333 -129 -348 -129c-151.333 0 -267.333 43 -348 129c-56 64 -84 145 -84 243v617z
M209 1409l170 279h289l147 -279h-213l-90 156l-102 -156h-201zM432 322c0 -34 2.99902 -57.333 8.99902 -70c10.667 -24.667 34.334 -37 71.001 -37c32.667 0 56 11.667 70 35c6.66699 18 10 42 10 72v665c0 34.667 -2.66699 58 -8 70c-14 26 -38 39 -72 39
c-31.333 0 -53 -10.333 -65 -31c-10 -22 -15 -48 -15 -78v-665zM852.999 1923h319l-219 -278h-197z" />
    <glyph glyph-name="uni1ED2" unicode="&#x1ed2;" horiz-adv-x="1138" 
d="M84 1192c0 154.667 45.667 273.667 137 357c86 77.333 202.333 116 349 116c144.667 0 262 -39.667 352 -119c90 -80 135 -198 135 -354v-745c0 -143.333 -43.667 -258 -131 -344s-206 -129 -356 -129c-148 0 -265.667 42.333 -353 127c-88.667 84.667 -133 200 -133 346
v745zM266 1737l170 278h289l148 -278h-213l-90 156l-103 -156h-201zM461 414c0 -49.333 8.33301 -87.667 25 -115c16 -23.333 44 -35 84 -35c44.667 0 76 19.333 94 58c9.33301 28.667 14 59.334 14 92.001v811c0 39.333 -4 70.666 -12 93.999
c-16.667 36.667 -48.667 55 -96 55c-45.333 0 -77 -17.667 -95 -53c-9.33301 -28.667 -14 -60.667 -14 -96v-811zM892 2239l80 -250h-170l-201 250h291z" />
    <glyph glyph-name="uni1ED3" unicode="&#x1ed3;" 
d="M80 963c0 99.333 28 181.333 84 246c74 86 190 129 348 129c152 0 268 -43 348 -129c56 -64.667 84 -146.667 84 -246v-617c0 -96.667 -28 -177.667 -84 -243c-73.333 -86 -189.333 -129 -348 -129c-151.333 0 -267.333 43 -348 129c-56 64 -84 145 -84 243v617z
M209 1409l170 279h289l147 -279h-213l-90 156l-102 -156h-201zM432 322c0 -34 2.99902 -57.333 8.99902 -70c10.667 -24.667 34.334 -37 71.001 -37c32.667 0 56 11.667 70 35c6.66699 18 10 42 10 72v665c0 34.667 -2.66699 58 -8 70c-14 26 -38 39 -72 39
c-31.333 0 -53 -10.333 -65 -31c-10 -22 -15 -48 -15 -78v-665zM882.999 1909l90 -279h-190l-223 279h323z" />
    <glyph glyph-name="uni1ED4" unicode="&#x1ed4;" horiz-adv-x="1138" 
d="M84 1192c0 154.667 45.667 273.667 137 357c86 77.333 202.333 116 349 116c144.667 0 262 -39.667 352 -119c90 -80 135 -198 135 -354v-745c0 -143.333 -43.667 -258 -131 -344s-206 -129 -356 -129c-148 0 -265.667 42.333 -353 127c-88.667 84.667 -133 200 -133 346
v745zM266 1737l170 278h289l148 -278h-213l-90 156l-103 -156h-201zM461 414c0 -49.333 8.33301 -87.667 25 -115c16 -23.333 44 -35 84 -35c44.667 0 76 19.333 94 58c9.33301 28.667 14 59.334 14 92.001v811c0 39.333 -4 70.666 -12 93.999
c-16.667 36.667 -48.667 55 -96 55c-45.333 0 -77 -17.667 -95 -53c-9.33301 -28.667 -14 -60.667 -14 -96v-811zM862 1893l-0.000976562 41c0 28.667 31.667 76.334 95 143.001c13.333 13.333 24 28.333 32 45c8.66699 16.667 13 33 13 49c0 22 -3.66699 37 -11 45
c-4 8 -16.667 13 -38 15c-45.333 0 -68 -23.333 -68 -70v-49h-139v59c0 45.333 17 85.666 51 120.999c39.333 39.333 93.333 59 162 59c58.667 0 106.334 -14.333 143.001 -43s55 -71.667 55 -129c0 -52 -28 -101 -84 -147c-57.333 -46.667 -86 -93 -86 -139h-125z" />
    <glyph glyph-name="uni1ED5" unicode="&#x1ed5;" 
d="M80 963c0 99.333 28 181.333 84 246c74 86 190 129 348 129c152 0 268 -43 348 -129c56 -64.667 84 -146.667 84 -246v-617c0 -96.667 -28 -177.667 -84 -243c-73.333 -86 -189.333 -129 -348 -129c-151.333 0 -267.333 43 -348 129c-56 64 -84 145 -84 243v617z
M209 1409l170 279h289l147 -279h-213l-90 156l-102 -156h-201zM432 322c0 -34 2.99902 -57.333 8.99902 -70c10.667 -24.667 34.334 -37 71.001 -37c32.667 0 56 11.667 70 35c6.66699 18 10 42 10 72v665c0 34.667 -2.66699 58 -8 70c-14 26 -38 39 -72 39
c-31.333 0 -53 -10.333 -65 -31c-10 -22 -15 -48 -15 -78v-665zM796.999 1581v41.001c0 28.667 31.333 76.667 94 144c14 13.333 25 28.333 33 45c8 16 12 32.333 12 49c0 22 -3.33301 37 -10 45c-4 8 -17 12.667 -39 14c-45.333 0 -68 -23 -68 -69v-50h-139v60
c0 44.667 17 85 51 121c40 39.333 94 59 162 59c58.667 0 106.5 -14.333 143.5 -43s55.5 -71.667 55.5 -129c0 -52 -28 -101 -84 -147c-57.333 -46.667 -86 -93.334 -86 -140.001h-125z" />
    <glyph glyph-name="uni1ED6" unicode="&#x1ed6;" horiz-adv-x="1138" 
d="M84 1192c0 154.667 45.667 273.667 137 357c86 77.333 202.333 116 349 116c144.667 0 262 -39.667 352 -119c90 -80 135 -198 135 -354v-745c0 -143.333 -43.667 -258 -131 -344s-206 -129 -356 -129c-148 0 -265.667 42.333 -353 127c-88.667 84.667 -133 200 -133 346
v745zM266 1737l170 278h289l148 -278h-213l-90 156l-103 -156h-201zM461 414c0 -49.333 8.33301 -87.667 25 -115c16 -23.333 44 -35 84 -35c44.667 0 76 19.333 94 58c9.33301 28.667 14 59.334 14 92.001v811c0 39.333 -4 70.666 -12 93.999
c-16.667 36.667 -48.667 55 -96 55c-45.333 0 -77 -17.667 -95 -53c-9.33301 -28.667 -14 -60.667 -14 -96v-811zM872 2263c-20 -57.333 -44.332 -100.332 -72.999 -128.999c-36 -36.667 -81.333 -55 -136 -55c-24.667 0 -52.667 6.16699 -84 18.5s-56.333 21.833 -75 28.5
c-20.667 5.33301 -38.667 9.33301 -54 12c-13.333 0 -30.333 -6 -51 -18c-14.667 -12.667 -27.667 -28.334 -39 -47.001l-88 33c19.333 48.667 41.333 88.667 66 120c34 42.667 72.667 64 116 64c28.667 0 69.667 -10.333 123 -31s89.666 -31 108.999 -31
c22 0 41 6.33301 57 19c15.333 10.667 29 29 41 55z" />
    <glyph glyph-name="uni1ED7" unicode="&#x1ed7;" 
d="M80 963c0 99.333 28 181.333 84 246c74 86 190 129 348 129c152 0 268 -43 348 -129c56 -64.667 84 -146.667 84 -246v-617c0 -96.667 -28 -177.667 -84 -243c-73.333 -86 -189.333 -129 -348 -129c-151.333 0 -267.333 43 -348 129c-56 64 -84 145 -84 243v617z
M209 1409l170 279h289l147 -279h-213l-90 156l-102 -156h-201zM432 322c0 -34 2.99902 -57.333 8.99902 -70c10.667 -24.667 34.334 -37 71.001 -37c32.667 0 56 11.667 70 35c6.66699 18 10 42 10 72v665c0 34.667 -2.66699 58 -8 70c-14 26 -38 39 -72 39
c-31.333 0 -53 -10.333 -65 -31c-10 -22 -15 -48 -15 -78v-665zM923.999 1937c-27.333 -67.333 -55.335 -115.332 -84.002 -143.999c-40 -40.667 -90 -61 -150 -61c-35.333 0 -77.666 11.667 -126.999 35c-49.333 21.333 -85.333 32 -108 32c-15.333 0 -35.333 -8 -60 -24
c-2.66699 -2.66699 -8 -9 -16 -19l-25 -30l-98 37c9.33301 25.333 17.333 45.666 24 60.999c14 30 30 54.667 48 74c38 46 81.667 69 131 69c36.667 0 82.334 -10 137.001 -30c53.333 -22 93 -35 119 -39c26 0 48.5 7.5 67.5 22.5s33.167 34.833 42.5 59.5z" />
    <glyph glyph-name="uni1ED8" unicode="&#x1ed8;" horiz-adv-x="1138" 
d="M84 1192c0 154.667 45.667 273.667 137 357c86 77.333 202.333 116 349 116c144.667 0 262 -39.667 352 -119c90 -80 135 -198 135 -354v-745c0 -143.333 -43.667 -258 -131 -344s-206 -129 -356 -129c-148 0 -265.667 42.333 -353 127c-88.667 84.667 -133 200 -133 346
v745zM266 1737l170 278h289l148 -278h-213l-90 156l-103 -156h-201zM461 414c0 -49.333 8.33301 -87.667 25 -115c16 -23.333 44 -35 84 -35c44.667 0 76 19.333 94 58c9.33301 28.667 14 59.334 14 92.001v811c0 39.333 -4 70.666 -12 93.999
c-16.667 36.667 -48.667 55 -96 55c-45.333 0 -77 -17.667 -95 -53c-9.33301 -28.667 -14 -60.667 -14 -96v-811zM398 -157.001h352v-242h-352v242z" />
    <glyph glyph-name="uni1ED9" unicode="&#x1ed9;" 
d="M80 963c0 99.333 28 181.333 84 246c74 86 190 129 348 129c152 0 268 -43 348 -129c56 -64.667 84 -146.667 84 -246v-617c0 -96.667 -28 -177.667 -84 -243c-73.333 -86 -189.333 -129 -348 -129c-151.333 0 -267.333 43 -348 129c-56 64 -84 145 -84 243v617z
M209 1409l170 279h289l147 -279h-213l-90 156l-102 -156h-201zM432 322c0 -34 2.99902 -57.333 8.99902 -70c10.667 -24.667 34.334 -37 71.001 -37c32.667 0 56 11.667 70 35c6.66699 18 10 42 10 72v665c0 34.667 -2.66699 58 -8 70c-14 26 -38 39 -72 39
c-31.333 0 -53 -10.333 -65 -31c-10 -22 -15 -48 -15 -78v-665zM333.999 -157h352v-242h-352v242z" />
    <glyph glyph-name="uni1EDA" unicode="&#x1eda;" horiz-adv-x="1138" 
d="M531 2015h317l-217 -278h-197zM461 414c0 -49.333 8.33301 -87.667 25 -115c16 -23.333 44 -35 84 -35c44.667 0 76 19.333 94 58c9.33301 28.667 14 59.334 14 92.001v811c0 39.333 -4 70.666 -12 93.999c-16.667 36.667 -48.667 55 -96 55
c-45.333 0 -77 -17.667 -95 -53c-9.33301 -28.667 -14 -60.667 -14 -96v-811zM1014 1420c28.667 -64 43 -140 43 -228v-745c0 -143.333 -43.667 -258 -131 -344s-206 -129 -356 -129c-148 0 -265.667 42.333 -353 127c-88.667 84.667 -133 200 -133 346v745
c0 154.667 45.667 273.667 137 357c86 77.333 202.333 116 349 116c112.667 0 209 -24 289 -72v228h278l-1 -272z" />
    <glyph glyph-name="uni1EDB" unicode="&#x1edb;" 
d="M473 1688h318l-217 -279h-197zM432 322c0 -34 2.99902 -57.333 8.99902 -70c10.667 -24.667 34.334 -37 71.001 -37c32.667 0 56 11.667 70 35c6.66699 18 10 42 10 72v665c0 34.667 -2.66699 58 -8 70c-14 26 -38 39 -72 39c-31.333 0 -53 -10.333 -65 -31
c-10 -22 -15 -48 -15 -78v-665zM864.999 1290l-35 5.00098v157h190v-135c0 -31.333 -6.66699 -52.333 -20 -63l-56 -45l-67 -37c10.667 -7.33301 18.667 -13 24 -17l4 -12c0 -5.33301 3.66699 -14.333 11 -27c18.667 -50 28 -101 28 -153v-617
c0 -96.667 -28 -177.667 -84 -243c-73.333 -86 -189.333 -129 -348 -129c-151.333 0 -267.333 43 -348 129c-56 64 -84 145 -84 243v617c0 99.333 28 181.333 84 246c74 86 190 129 348 129c68.667 0 124 -7 166 -21c20.667 -4 50 -19.667 88 -47l41 -29l31 15
c18 9.33301 27 20.666 27 33.999z" />
    <glyph glyph-name="uni1EDC" unicode="&#x1edc;" horiz-adv-x="1138" 
d="M686 2073l90 -279h-190l-223 279h323zM461 414c0 -49.333 8.33301 -87.667 25 -115c16 -23.333 44 -35 84 -35c44.667 0 76 19.333 94 58c9.33301 28.667 14 59.334 14 92.001v811c0 39.333 -4 70.666 -12 93.999c-16.667 36.667 -48.667 55 -96 55
c-45.333 0 -77 -17.667 -95 -53c-9.33301 -28.667 -14 -60.667 -14 -96v-811zM1014 1420c28.667 -64 43 -140 43 -228v-745c0 -143.333 -43.667 -258 -131 -344s-206 -129 -356 -129c-148 0 -265.667 42.333 -353 127c-88.667 84.667 -133 200 -133 346v745
c0 154.667 45.667 273.667 137 357c86 77.333 202.333 116 349 116c112.667 0 209 -24 289 -72v228h278l-1 -272z" />
    <glyph glyph-name="uni1EDD" unicode="&#x1edd;" 
d="M557 1688l90 -279h-190l-223 279h323zM432 322c0 -34 2.99902 -57.333 8.99902 -70c10.667 -24.667 34.334 -37 71.001 -37c32.667 0 56 11.667 70 35c6.66699 18 10 42 10 72v665c0 34.667 -2.66699 58 -8 70c-14 26 -38 39 -72 39c-31.333 0 -53 -10.333 -65 -31
c-10 -22 -15 -48 -15 -78v-665zM864.999 1290l-35 5.00098v157h190v-135c0 -31.333 -6.66699 -52.333 -20 -63l-56 -45l-67 -37c10.667 -7.33301 18.667 -13 24 -17l4 -12c0 -5.33301 3.66699 -14.333 11 -27c18.667 -50 28 -101 28 -153v-617
c0 -96.667 -28 -177.667 -84 -243c-73.333 -86 -189.333 -129 -348 -129c-151.333 0 -267.333 43 -348 129c-56 64 -84 145 -84 243v617c0 99.333 28 181.333 84 246c74 86 190 129 348 129c68.667 0 124 -7 166 -21c20.667 -4 50 -19.667 88 -47l41 -29l31 15
c18 9.33301 27 20.666 27 33.999z" />
    <glyph glyph-name="uni1EDE" unicode="&#x1ede;" horiz-adv-x="1138" 
d="M461 414c0 -49.333 8.33301 -87.667 25 -115c16 -23.333 44 -35 84 -35c44.667 0 76 19.333 94 58c9.33301 28.667 14 59.334 14 92.001v811c0 39.333 -4 70.666 -12 93.999c-16.667 36.667 -48.667 55 -96 55c-45.333 0 -77 -17.667 -95 -53
c-9.33301 -28.667 -14 -60.667 -14 -96v-811zM502 1725c2 40.667 15.667 81.332 41 121.999l78 98c28.667 33.333 43 67 43 101c0 23.333 -3.33301 42.333 -10 57c-8 15.333 -23 23 -45 23c-18 0 -32.333 -8.33301 -43 -25c-8 -22 -12 -43.667 -12 -65v-56h-152v68
c0 56 19 102.333 57 139c37.333 36.667 89.333 55 156 55c69.333 0 123.333 -15 162 -45c36.667 -31.333 55 -79.666 55 -144.999c0 -48 -17 -93.667 -51 -137l-98 -105c-21.333 -28 -36 -56.333 -44 -85h-137zM1014 1420c28.667 -64 43 -140 43 -228v-745
c0 -143.333 -43.667 -258 -131 -344s-206 -129 -356 -129c-148 0 -265.667 42.333 -353 127c-88.667 84.667 -133 200 -133 346v745c0 154.667 45.667 273.667 137 357c86 77.333 202.333 116 349 116c112.667 0 209 -24 289 -72v228h278l-1 -272z" />
    <glyph glyph-name="uni1EDF" unicode="&#x1edf;" 
d="M453 1417l-0.000976562 41.002c0 28.667 31.333 76.667 94 144c14 13.333 25 28.333 33 45c8 16 12 32.333 12 49c0 22 -3.33301 37 -10 45c-4 8 -17 12.667 -39 14c-45.333 0 -68 -23 -68 -69v-49h-139v59c0 45.333 17 85.666 51 120.999c40 39.333 94 59 162 59
c58.667 0 106.334 -14.333 143.001 -43c37.333 -28.667 56 -71.667 56 -129c0 -52 -28 -101 -84 -147c-57.333 -46.667 -86 -93.334 -86 -140.001h-125zM431.999 322.002c0 -34 2.99902 -57.333 8.99902 -70c10.667 -24.667 34.334 -37 71.001 -37c32.667 0 56 11.667 70 35
c6.66699 18 10 42 10 72v665c0 34.667 -2.66699 58 -8 70c-14 26 -38 39 -72 39c-31.333 0 -53 -10.333 -65 -31c-10 -22 -15 -48 -15 -78v-665zM864.998 1290l-35 5.00098v157h190v-135c0 -31.333 -6.66699 -52.333 -20 -63l-56 -45l-67 -37
c10.667 -7.33301 18.667 -13 24 -17l4 -12c0 -5.33301 3.66699 -14.333 11 -27c18.667 -50 28 -101 28 -153v-617c0 -96.667 -28 -177.667 -84 -243c-73.333 -86 -189.333 -129 -348 -129c-151.333 0 -267.333 43 -348 129c-56 64 -84 145 -84 243v617
c0 99.333 28 181.333 84 246c74 86 190 129 348 129c68.667 0 124 -7 166 -21c20.667 -4 50 -19.667 88 -47l41 -29l31 15c18 9.33301 27 20.666 27 33.999z" />
    <glyph glyph-name="uni1EE0" unicode="&#x1ee0;" horiz-adv-x="1138" 
d="M903 2022c-27.333 -66.667 -55.333 -114.333 -84 -143c-39.333 -41.333 -89 -62 -149 -62c-35.333 0 -77.666 11.667 -126.999 35c-49.333 22 -85.666 33 -108.999 33c-14.667 0 -34.334 -8.33301 -59.001 -25c-2.66699 -2.66699 -8 -8.66699 -16 -18l-25 -31l-98 37
c9.33301 26 17.333 46.667 24 62c14 30 29.667 54.333 47 73c38.667 46.667 82.667 70 132 70c36.667 0 82.334 -10.333 137.001 -31c53.333 -21.333 93 -34.333 119 -39c25.333 0 47.666 7.5 66.999 22.5s33.666 34.833 42.999 59.5zM461 414.001
c0 -49.333 8.33301 -87.667 25 -115c16 -23.333 44 -35 84 -35c44.667 0 76 19.333 94 58c9.33301 28.667 14 59.334 14 92.001v811c0 39.333 -4 70.666 -12 93.999c-16.667 36.667 -48.667 55 -96 55c-45.333 0 -77 -17.667 -95 -53c-9.33301 -28.667 -14 -60.667 -14 -96
v-811zM1014 1420c28.667 -64 43 -140 43 -228v-745c0 -143.333 -43.667 -258 -131 -344s-206 -129 -356 -129c-148 0 -265.667 42.333 -353 127c-88.667 84.667 -133 200 -133 346v745c0 154.667 45.667 273.667 137 357c86 77.333 202.333 116 349 116
c112.667 0 209 -24 289 -72v228h278l-1 -272z" />
    <glyph glyph-name="uni1EE1" unicode="&#x1ee1;" 
d="M846 1636c-27.333 -67.333 -55.335 -115.332 -84.002 -143.999c-40 -40.667 -90 -61 -150 -61c-35.333 0 -77.666 11.667 -126.999 35c-49.333 21.333 -85.333 32 -108 32c-15.333 0 -35.333 -8 -60 -24c-2.66699 -2.66699 -8 -9 -16 -19l-25 -30l-98 37
c9.33301 25.333 17.333 45.666 24 60.999c14 30 30 54.667 48 74c38 46 81.667 69 131 69c36.667 0 82.334 -10 137.001 -30c53.333 -22 93 -35 119 -39c26 0 48.5 7.5 67.5 22.5s33.167 34.833 42.5 59.5zM431.998 322.001c0 -34 2.99902 -57.333 8.99902 -70
c10.667 -24.667 34.334 -37 71.001 -37c32.667 0 56 11.667 70 35c6.66699 18 10 42 10 72v665c0 34.667 -2.66699 58 -8 70c-14 26 -38 39 -72 39c-31.333 0 -53 -10.333 -65 -31c-10 -22 -15 -48 -15 -78v-665zM864.997 1290l-35 5.00098v157h190v-135
c0 -31.333 -6.66699 -52.333 -20 -63l-56 -45l-67 -37c10.667 -7.33301 18.667 -13 24 -17l4 -12c0 -5.33301 3.66699 -14.333 11 -27c18.667 -50 28 -101 28 -153v-617c0 -96.667 -28 -177.667 -84 -243c-73.333 -86 -189.333 -129 -348 -129
c-151.333 0 -267.333 43 -348 129c-56 64 -84 145 -84 243v617c0 99.333 28 181.333 84 246c74 86 190 129 348 129c68.667 0 124 -7 166 -21c20.667 -4 50 -19.667 88 -47l41 -29l31 15c18 9.33301 27 20.666 27 33.999z" />
    <glyph glyph-name="uni1EE2" unicode="&#x1ee2;" horiz-adv-x="1138" 
d="M461 414c0 -49.333 8.33301 -87.667 25 -115c16 -23.333 44 -35 84 -35c44.667 0 76 19.333 94 58c9.33301 28.667 14 59.334 14 92.001v811c0 39.333 -4 70.666 -12 93.999c-16.667 36.667 -48.667 55 -96 55c-45.333 0 -77 -17.667 -95 -53
c-9.33301 -28.667 -14 -60.667 -14 -96v-811zM398 -157.001h352v-242h-352v242zM1014 1420c28.667 -64 43 -140 43 -228v-745c0 -143.333 -43.667 -258 -131 -344s-206 -129 -356 -129c-148 0 -265.667 42.333 -353 127c-88.667 84.667 -133 200 -133 346v745
c0 154.667 45.667 273.667 137 357c86 77.333 202.333 116 349 116c112.667 0 209 -24 289 -72v228h278l-1 -272z" />
    <glyph glyph-name="uni1EE3" unicode="&#x1ee3;" 
d="M334 -157h352v-242h-352v242zM432 322c0 -34 2.99902 -57.333 8.99902 -70c10.667 -24.667 34.334 -37 71.001 -37c32.667 0 56 11.667 70 35c6.66699 18 10 42 10 72v665c0 34.667 -2.66699 58 -8 70c-14 26 -38 39 -72 39c-31.333 0 -53 -10.333 -65 -31
c-10 -22 -15 -48 -15 -78v-665zM864.999 1290l-35 5.00098v157h190v-135c0 -31.333 -6.66699 -52.333 -20 -63l-56 -45l-67 -37c10.667 -7.33301 18.667 -13 24 -17l4 -12c0 -5.33301 3.66699 -14.333 11 -27c18.667 -50 28 -101 28 -153v-617
c0 -96.667 -28 -177.667 -84 -243c-73.333 -86 -189.333 -129 -348 -129c-151.333 0 -267.333 43 -348 129c-56 64 -84 145 -84 243v617c0 99.333 28 181.333 84 246c74 86 190 129 348 129c68.667 0 124 -7 166 -21c20.667 -4 50 -19.667 88 -47l41 -29l31 15
c18 9.33301 27 20.666 27 33.999z" />
    <glyph glyph-name="uni1EE4" unicode="&#x1ee4;" horiz-adv-x="1138" 
d="M84 1639l377.001 -0.000976562v-1196c0 -57.333 5.33301 -99 16 -125c10 -27.333 41 -41 93 -41c35.333 0 62.666 10.667 81.999 32c17.333 20.667 26 65.334 26 134.001v1196h379v-1192c0 -143.333 -43.667 -258 -131 -344s-206 -129 -356 -129
c-148 0 -265.667 42.333 -353 127c-88.667 84.667 -133 200 -133 346v1192zM398.001 -157.001h352v-242h-352v242z" />
    <glyph glyph-name="uni1EE5" unicode="&#x1ee5;" 
d="M944 0l-339.999 0.000976562v146c-35.333 -57.333 -73.333 -101 -114 -131c-42.667 -27.333 -95.334 -41 -158.001 -41c-82 0 -144 26.333 -186 79c-44 53.333 -66 120.333 -66 201v1057h352v-897c0 -42.667 3 -69.334 9 -80.001c12 -30 35.667 -45 71 -45
c32.667 0 56 17 70 51c6.66699 23.333 10 48 10 74v897h352v-1311zM334.001 -156.999h352v-242h-352v242z" />
    <glyph glyph-name="uni1EE6" unicode="&#x1ee6;" horiz-adv-x="1138" 
d="M84 1639l377.001 -0.000976562v-1196c0 -57.333 5.33301 -99 16 -125c10 -27.333 41 -41 93 -41c35.333 0 62.666 10.667 81.999 32c17.333 20.667 26 65.334 26 134.001v1196h379v-1192c0 -143.333 -43.667 -258 -131 -344s-206 -129 -356 -129
c-148 0 -265.667 42.333 -353 127c-88.667 84.667 -133 200 -133 346v1192zM502.001 1725c2 40.667 15.667 81.332 41 121.999l78 98c28.667 33.333 43 67 43 101c0 23.333 -3.33301 42.333 -10 57c-8 15.333 -23 23 -45 23c-18 0 -32.333 -8.33301 -43 -25
c-8 -22 -12 -43.667 -12 -65v-56h-152v68c0 56 19 102.333 57 139c37.333 36.667 89.333 55 156 55c69.333 0 123.333 -15 162 -45c36.667 -31.333 55 -79.666 55 -144.999c0 -48 -17 -93.667 -51 -137l-98 -105c-21.333 -28 -36 -56.333 -44 -85h-137z" />
    <glyph glyph-name="uni1EE7" unicode="&#x1ee7;" 
d="M944 0l-339.999 0.000976562v146c-35.333 -57.333 -73.333 -101 -114 -131c-42.667 -27.333 -95.334 -41 -158.001 -41c-82 0 -144 26.333 -186 79c-44 53.333 -66 120.333 -66 201v1057h352v-897c0 -42.667 3 -69.334 9 -80.001c12 -30 35.667 -45 71 -45
c32.667 0 56 17 70 51c6.66699 23.333 10 48 10 74v897h352v-1311zM469.001 1417v41.0029c0 28.667 31.333 76.667 94 144c14 13.333 25.167 28.166 33.5 44.499s12.5 32.833 12.5 49.5c0 22 -3.66699 37 -11 45c-4 8 -17 12.667 -39 14c-44.667 0 -67 -23 -67 -69v-49h-139
v59c0 45.333 17 85.666 51 120.999c39.333 39.333 93 59 161 59c59.333 0 107.333 -14.333 144 -43s55 -71.667 55 -129c0 -52 -28 -101 -84 -147c-57.333 -46.667 -86 -93.334 -86 -140.001h-125z" />
    <glyph glyph-name="uni1EE8" unicode="&#x1ee8;" horiz-adv-x="1138" 
d="M531 2015h317l-217 -278h-197zM1004 1821l278.001 -0.000976562l-1 -272l-131 -138h-91l-2 -964c0 -143.333 -43.667 -258 -131 -344s-206 -129 -356 -129c-148 0 -265.667 42.333 -353 127c-88.667 84.667 -133 200 -133 346v1192h377v-1196
c0 -57.333 5.33301 -99 16 -125c10 -27.333 41 -41 93 -41c35.333 0 62.666 10.667 81.999 32c17.333 20.667 26 65.334 26 134.001v1196l326 -4v186z" />
    <glyph glyph-name="uni1EE9" unicode="&#x1ee9;" 
d="M944 1196l0.000976562 -1196h-340v146c-35.333 -57.333 -73.333 -101 -114 -131c-42.667 -27.333 -95.334 -41 -158.001 -41c-82 0 -144 26.333 -186 79c-44 53.333 -66 120.333 -66 201v1057h352v-897c0 -42.667 3 -69.334 9 -80.001c12 -30 35.667 -45 71 -45
c32.667 0 56 17 70 51c6.66699 23.333 10 48 10 74v897h332v4c0 6.66699 1.33301 11.334 4 14.001v7c0 4 0.666992 7.33301 2 10h-37v157h180v-135v-26c0 -24.667 -4 -42 -12 -52c-5.33301 -10.667 -12 -20 -20 -28c-10 -10 -21 -19.667 -33 -29
c-16.667 -6.66699 -31 -12.667 -43 -18c-14 -7.33301 -21 -13.666 -21 -18.999zM473.001 1688h318l-217 -279h-197z" />
    <glyph glyph-name="uni1EEA" unicode="&#x1eea;" horiz-adv-x="1138" 
d="M615 2015l90 -278h-191l-223 278h324zM1004 1821l278.001 -0.000976562l-1 -272l-131 -138h-91l-2 -964c0 -143.333 -43.667 -258 -131 -344s-206 -129 -356 -129c-148 0 -265.667 42.333 -353 127c-88.667 84.667 -133 200 -133 346v1192h377v-1196
c0 -57.333 5.33301 -99 16 -125c10 -27.333 41 -41 93 -41c35.333 0 62.666 10.667 81.999 32c17.333 20.667 26 65.334 26 134.001v1196l326 -4v186z" />
    <glyph glyph-name="uni1EEB" unicode="&#x1eeb;" 
d="M944 1196l0.000976562 -1196h-340v146c-35.333 -57.333 -73.333 -101 -114 -131c-42.667 -27.333 -95.334 -41 -158.001 -41c-82 0 -144 26.333 -186 79c-44 53.333 -66 120.333 -66 201v1057h352v-897c0 -42.667 3 -69.334 9 -80.001c12 -30 35.667 -45 71 -45
c32.667 0 56 17 70 51c6.66699 23.333 10 48 10 74v897h332v4c0 6.66699 1.33301 11.334 4 14.001v7c0 4 0.666992 7.33301 2 10h-37v157h180v-135v-26c0 -24.667 -4 -42 -12 -52c-5.33301 -10.667 -12 -20 -20 -28c-10 -10 -21 -19.667 -33 -29
c-16.667 -6.66699 -31 -12.667 -43 -18c-14 -7.33301 -21 -13.666 -21 -18.999zM557.001 1688l90 -279h-190l-223 279h323z" />
    <glyph glyph-name="uni1EEC" unicode="&#x1eec;" horiz-adv-x="1138" 
d="M502 1725c2 40.667 15.667 81.333 41 122l78 98c28.667 33.333 43 67 43 101c0 23.333 -3.33301 42.333 -10 57c-8 15.333 -23 23 -45 23c-18 0 -32.333 -8.33301 -43 -25c-8 -22 -12 -43.667 -12 -65v-56h-152v68c0 56 19 102.333 57 139
c37.333 36.667 89.333 55 156 55c69.333 0 123.333 -15 162 -45c36.667 -31.333 55 -79.666 55 -145c0 -48 -17 -93.667 -51 -137l-98 -105c-21.333 -28 -36 -56.333 -44 -85h-137zM1004 1821l278.001 -0.000976562l-1 -272l-131 -138h-91l-2 -964
c0 -143.333 -43.667 -258 -131 -344s-206 -129 -356 -129c-148 0 -265.667 42.333 -353 127c-88.667 84.667 -133 200 -133 346v1192h377v-1196c0 -57.333 5.33301 -99 16 -125c10 -27.333 41 -41 93 -41c35.333 0 62.666 10.667 81.999 32
c17.333 20.667 26 65.334 26 134.001v1196l326 -4v186z" />
    <glyph glyph-name="uni1EED" unicode="&#x1eed;" 
d="M453 1417l-0.000976562 41.002c0 28.667 31.333 76.667 94 144c14 13.333 25 28.333 33 45c8 16 12 32.333 12 49c0 22 -3.33301 37 -10 45c-4 8 -17 12.667 -39 14c-45.333 0 -68 -23 -68 -69v-49h-139v59c0 45.333 17 85.666 51 120.999c40 39.333 94 59 162 59
c58.667 0 106.334 -14.333 143.001 -43c37.333 -28.667 56 -71.667 56 -129c0 -52 -28 -101 -84 -147c-57.333 -46.667 -86 -93.334 -86 -140.001h-125zM943.999 1196l0.000976562 -1196h-340v146c-35.333 -57.333 -73.333 -101 -114 -131
c-42.667 -27.333 -95.334 -41 -158.001 -41c-82 0 -144 26.333 -186 79c-44 53.333 -66 120.333 -66 201v1057h352v-897c0 -42.667 3 -69.334 9 -80.001c12 -30 35.667 -45 71 -45c32.667 0 56 17 70 51c6.66699 23.333 10 48 10 74v897h332v4
c0 6.66699 1.33301 11.334 4 14.001v7c0 4 0.666992 7.33301 2 10h-37v157h180v-135v-26c0 -24.667 -4 -42 -12 -52c-5.33301 -10.667 -12 -20 -20 -28c-10 -10 -21 -19.667 -33 -29c-16.667 -6.66699 -31 -12.667 -43 -18c-14 -7.33301 -21 -13.666 -21 -18.999z" />
    <glyph glyph-name="uni1EEE" unicode="&#x1eee;" horiz-adv-x="1138" 
d="M936 1964c-27.333 -66.667 -55.332 -114.334 -83.999 -143.001c-39.333 -41.333 -89 -62 -149 -62c-36 0 -78.333 11.667 -127 35c-49.333 22 -85.666 33 -108.999 33c-14.667 0 -34.334 -8.33301 -59.001 -25c-2.66699 -2.66699 -8.33398 -8.66699 -17.001 -18l-24 -31
l-98 37c9.33301 26 17.333 46.667 24 62c14 30 29.667 54.333 47 73c38.667 46.667 82.334 70 131.001 70c37.333 0 83.333 -10.333 138 -31c52.667 -21.333 92 -34.333 118 -39c26 0 48.667 7.66699 68 23c19.333 14.667 33.666 34.334 42.999 59.001zM1004 1821
l278.001 -0.000976562l-1 -272l-131 -138h-91l-2 -964c0 -143.333 -43.667 -258 -131 -344s-206 -129 -356 -129c-148 0 -265.667 42.333 -353 127c-88.667 84.667 -133 200 -133 346v1192h377v-1196c0 -57.333 5.33301 -99 16 -125c10 -27.333 41 -41 93 -41
c35.333 0 62.666 10.667 81.999 32c17.333 20.667 26 65.334 26 134.001v1196l326 -4v186z" />
    <glyph glyph-name="uni1EEF" unicode="&#x1eef;" 
d="M944 1196l0.000976562 -1196h-340v146c-35.333 -57.333 -73.333 -101 -114 -131c-42.667 -27.333 -95.334 -41 -158.001 -41c-82 0 -144 26.333 -186 79c-44 53.333 -66 120.333 -66 201v1057h352v-897c0 -42.667 3 -69.334 9 -80.001c12 -30 35.667 -45 71 -45
c32.667 0 56 17 70 51c6.66699 23.333 10 48 10 74v897h332v4c0 6.66699 1.33301 11.334 4 14.001v7c0 4 0.666992 7.33301 2 10h-37v157h180v-135v-26c0 -24.667 -4 -42 -12 -52c-5.33301 -10.667 -12 -20 -20 -28c-10 -10 -21 -19.667 -33 -29
c-16.667 -6.66699 -31 -12.667 -43 -18c-14 -7.33301 -21 -13.666 -21 -18.999zM867.001 1637c-27.333 -67.333 -55.335 -115.332 -84.002 -143.999c-40 -40.667 -90 -61 -150 -61c-35.333 0 -77.666 11.667 -126.999 35c-49.333 21.333 -85.333 32 -108 32
c-15.333 0 -35.333 -8 -60 -24c-2.66699 -2.66699 -8 -9 -16 -19l-25 -30l-98 37c9.33301 25.333 17.333 45.666 24 60.999c14 30 30 54.667 48 74c38 46 81.667 69 131 69c36.667 0 82.334 -10 137.001 -30c53.333 -22 93 -35 119 -39c26 0 48.5 7.5 67.5 22.5
s33.167 34.833 42.5 59.5z" />
    <glyph glyph-name="uni1EF0" unicode="&#x1ef0;" horiz-adv-x="1138" 
d="M398 -157h352v-242h-352v242zM1004 1821l278.001 -0.000976562l-1 -272l-131 -138h-91l-2 -964c0 -143.333 -43.667 -258 -131 -344s-206 -129 -356 -129c-148 0 -265.667 42.333 -353 127c-88.667 84.667 -133 200 -133 346v1192h377v-1196
c0 -57.333 5.33301 -99 16 -125c10 -27.333 41 -41 93 -41c35.333 0 62.666 10.667 81.999 32c17.333 20.667 26 65.334 26 134.001v1196l326 -4v186z" />
    <glyph glyph-name="uni1EF1" unicode="&#x1ef1;" 
d="M334 -157h352v-242h-352v242zM944 1196l0.000976562 -1196h-340v146c-35.333 -57.333 -73.333 -101 -114 -131c-42.667 -27.333 -95.334 -41 -158.001 -41c-82 0 -144 26.333 -186 79c-44 53.333 -66 120.333 -66 201v1057h352v-897c0 -42.667 3 -69.334 9 -80.001
c12 -30 35.667 -45 71 -45c32.667 0 56 17 70 51c6.66699 23.333 10 48 10 74v897h332v4c0 6.66699 1.33301 11.334 4 14.001v7c0 4 0.666992 7.33301 2 10h-37v157h180v-135v-26c0 -24.667 -4 -42 -12 -52c-5.33301 -10.667 -12 -20 -20 -28c-10 -10 -21 -19.667 -33 -29
c-16.667 -6.66699 -31 -12.667 -43 -18c-14 -7.33301 -21 -13.666 -21 -18.999z" />
    <glyph glyph-name="Ygrave" unicode="&#x1ef2;" 
d="M16 1639h389l105 -553l114 553h383l-307 -965v-674h-377v647zM559 2015l90 -278h-190l-224 278h324z" />
    <glyph glyph-name="ygrave" unicode="&#x1ef3;" horiz-adv-x="909" 
d="M109 17l80 0.00292969c21.333 0 35.666 2.66699 42.999 8c6.66699 5.33301 12 18.333 16 39l-6 55c0 23.333 -1.33301 37.666 -4 42.999l-12 49l-216 1100h361l88 -922l94 922h346l-229 -1200l-12 -66c-4 -26 -9.66699 -45 -17 -57
c-16 -58.667 -42.667 -106.334 -80 -143.001c-28.667 -28.667 -66 -49.334 -112 -62.001c-20.667 -5.33301 -46 -10 -76 -14c-31.333 -4 -64.666 -6 -99.999 -6h-164v254zM496 1688l90 -279h-190l-224 279h324z" />
    <glyph glyph-name="uni1EF4" unicode="&#x1ef4;" 
d="M16 1639h389l105 -553l114 553h383l-307 -965v-674h-377v647zM336 -157h352v-242h-352v242z" />
    <glyph glyph-name="uni1EF5" unicode="&#x1ef5;" horiz-adv-x="909" 
d="M109 17l80 0.00292969c21.333 0 35.666 2.66699 42.999 8c6.66699 5.33301 12 18.333 16 39l-6 55c0 23.333 -1.33301 37.666 -4 42.999l-12 49l-216 1100h361l88 -922l94 922h346l-229 -1200l-12 -66c-4 -26 -9.66699 -45 -17 -57
c-16 -58.667 -42.667 -106.334 -80 -143.001c-28.667 -28.667 -66 -49.334 -112 -62.001c-20.667 -5.33301 -46 -10 -76 -14c-31.333 -4 -64.666 -6 -99.999 -6h-164v254zM269 -304.997h352v-242h-352v242z" />
    <glyph glyph-name="uni1EF6" unicode="&#x1ef6;" 
d="M16 1639h389l105 -553l114 553h383l-307 -965v-674h-377v647zM429 1725c2 40.667 15.667 81.333 41 122l78 98c28.667 33.333 43 67 43 101c0 23.333 -3.33301 42.333 -10 57c-8 15.333 -23 23 -45 23c-18 0 -32.333 -8.33301 -43 -25c-8 -22 -12 -43.667 -12 -65v-56
h-152v68c0 56 19 102.333 57 139c37.333 36.667 89.333 55 156 55c69.333 0 123.333 -15 162 -45c36.667 -31.333 55 -79.666 55 -145c0 -48 -17 -93.667 -51 -137l-98 -105c-21.333 -28 -36 -56.333 -44 -85h-137z" />
    <glyph glyph-name="uni1EF7" unicode="&#x1ef7;" horiz-adv-x="909" 
d="M109 17l80 0.00292969c21.333 0 35.666 2.66699 42.999 8c6.66699 5.33301 12 18.333 16 39l-6 55c0 23.333 -1.33301 37.666 -4 42.999l-12 49l-216 1100h361l88 -922l94 922h346l-229 -1200l-12 -66c-4 -26 -9.66699 -45 -17 -57
c-16 -58.667 -42.667 -106.334 -80 -143.001c-28.667 -28.667 -66 -49.334 -112 -62.001c-20.667 -5.33301 -46 -10 -76 -14c-31.333 -4 -64.666 -6 -99.999 -6h-164v254zM420 1401v40.998c0 28.667 31.333 76.334 94 143.001c14 14 25 29 33 45
c8 16.667 12 33.334 12 50.001c0 21.333 -3.33301 36.333 -10 45c-4 8 -17 12.667 -39 14c-44.667 0 -67 -23.333 -67 -70v-49h-140v60c0 44.667 17.333 84.667 52 120c39.333 40 93 60 161 60c58.667 0 106.5 -14.333 143.5 -43s55.5 -71.667 55.5 -129
c0 -52 -28 -101.333 -84 -148c-57.333 -46 -86 -92.333 -86 -139h-125z" />
    <glyph glyph-name="uni1EF8" unicode="&#x1ef8;" 
d="M16 1639h389l105 -553l114 553h383l-307 -965v-674h-377v647zM854 1964c-27.333 -66.667 -55.333 -114.334 -84 -143.001c-40 -41.333 -90 -62 -150 -62c-35.333 0 -77.666 11.667 -126.999 35c-48.667 22 -84.667 33 -108 33c-15.333 0 -35.333 -8.33301 -60 -25
c-2.66699 -2.66699 -8 -8.66699 -16 -18c-8 -10.667 -16.333 -21 -25 -31l-98 37c9.33301 26 17.666 46.667 24.999 62c13.333 30 29 54.333 47 73c38 46.667 81.667 70 131 70c36.667 0 82.334 -10.333 137.001 -31c53.333 -21.333 93 -34.333 119 -39
c26 0 48.333 7.66699 67 23c19.333 14.667 33.666 34.334 42.999 59.001z" />
    <glyph glyph-name="uni1EF9" unicode="&#x1ef9;" horiz-adv-x="909" 
d="M109 17l80 0.00292969c21.333 0 35.666 2.66699 42.999 8c6.66699 5.33301 12 18.333 16 39l-6 55c0 23.333 -1.33301 37.666 -4 42.999l-12 49l-216 1100h361l88 -922l94 922h346l-229 -1200l-12 -66c-4 -26 -9.66699 -45 -17 -57
c-16 -58.667 -42.667 -106.334 -80 -143.001c-28.667 -28.667 -66 -49.334 -112 -62.001c-20.667 -5.33301 -46 -10 -76 -14c-31.333 -4 -64.666 -6 -99.999 -6h-164v254zM829 1637c-27.333 -67.333 -55.335 -115.332 -84.002 -143.999c-40 -40.667 -90 -61 -150 -61
c-35.333 0 -77.666 11.667 -126.999 35c-49.333 21.333 -85.333 32 -108 32c-15.333 0 -35.333 -8 -60 -24c-2.66699 -2.66699 -8 -9 -16 -19l-25 -30l-98 37c9.33301 25.333 17.333 45.666 24 60.999c14 30 30 54.667 48 74c38 46 81.667 69 131 69
c36.667 0 82.334 -10 137.001 -30c53.333 -22 93 -35 119 -39c26 0 48.5 7.5 67.5 22.5s33.167 34.833 42.5 59.5z" />
    <glyph glyph-name="quoteleft" unicode="&#x2018;" horiz-adv-x="591" 
d="M446 1884l0.000976562 -377h-340v352c0 45.333 17.667 98 53 158c36.667 61.333 68.667 94.666 96 100h191c-36 -30 -70.333 -66 -103 -108c-24.667 -30 -46.334 -71.667 -65.001 -125h168z" />
    <glyph glyph-name="quoteright" unicode="&#x2019;" horiz-adv-x="523" 
d="M106 1740l-0.000976562 376.999h340v-352c0 -45.333 -17.667 -98 -53 -158c-36.667 -61.333 -68.667 -94.666 -96 -99.999h-191c36 30 70.333 66 103 108c24.667 30 46.334 71.667 65.001 125h-168z" />
    <glyph glyph-name="quotedblleft" unicode="&#x201c;" horiz-adv-x="966" 
d="M882 1884l0.000976562 -377h-340v352c0 45.333 17.667 98 53 158c36.667 61.333 68.667 94.666 96 100h191c-36 -30 -70.333 -66 -103 -108c-24.667 -30 -46.334 -71.667 -65.001 -125h168zM446.001 1884l0.000976562 -377h-340v352c0 45.333 17.667 98 53 158
c36.667 61.333 68.667 94.666 96 100h191c-36 -30 -70.333 -66 -103 -108c-24.667 -30 -46.334 -71.667 -65.001 -125h168z" />
    <glyph glyph-name="quotedblright" unicode="&#x201d;" horiz-adv-x="966" 
d="M106 1740l-0.000976562 376.999h340v-352c0 -45.333 -17.667 -98 -53 -158c-36.667 -61.333 -68.667 -94.666 -96 -99.999h-191c36 30 70.333 66 103 108c24.667 30 46.334 71.667 65.001 125h-168zM541.999 1740l-0.000976562 376.999h340v-352
c0 -45.333 -17.667 -98 -53 -158c-36.667 -61.333 -68.667 -94.666 -96 -99.999h-191c36 30 70.333 66 103 108c24.667 30 46.334 71.667 65.001 125h-168z" />
    <glyph glyph-name="ellipsis" unicode="&#x2026;" horiz-adv-x="1550" 
d="M426 0h-340v377h340v-377zM930 0h-340v377h340v-377zM1434 0h-340v377h340v-377z" />
    <glyph glyph-name=".null" horiz-adv-x="0" 
 />
    <glyph glyph-name="nonmarkingreturn" horiz-adv-x="571" 
 />
    <glyph glyph-name="ugrave" horiz-adv-x="582" 
 />
    <glyph glyph-name="uacute" horiz-adv-x="580" 
 />
    <glyph glyph-name="yacute" horiz-adv-x="629" 
 />
    </font>
</defs>
</svg>
